Upgrade-Regular_Italic_Testing.ufo
<glyph name="exclam" format="2">
  <advance width="221"/>
  <unicode hex="0021"/>
  <outline>
    <contour>
      <point x="98" y="189" type="line"/>
      <point x="177" y="189" type="line"/>
      <point x="251" y="720" type="line"/>
      <point x="172" y="720" type="line"/>
    </contour>
    <contour>
      <point x="68" y="0" type="line"/>
      <point x="152" y="0" type="line"/>
      <point x="165" y="84" type="line"/>
      <point x="80" y="84" type="line"/>
    </contour>
  </outline>
</glyph>
<glyph name="numbersign" format="2">
  <advance width="562"/>
  <unicode hex="0023"/>
  <outline>
    <contour>
      <point x="118" y="-35" type="line"/>
      <point x="190" y="-35" type="line"/>
      <point x="338" y="515" type="line"/>
      <point x="266" y="515" type="line"/>
    </contour>
    <contour>
      <point x="294" y="-35" type="line"/>
      <point x="366" y="-35" type="line"/>
      <point x="514" y="515" type="line"/>
      <point x="442" y="515" type="line"/>
    </contour>
    <contour>
      <point x="108" y="304" type="line"/>
      <point x="555" y="304" type="line"/>
      <point x="565" y="378" type="line"/>
      <point x="119" y="378" type="line"/>
    </contour>
    <contour>
      <point x="64" y="103" type="line"/>
      <point x="512" y="103" type="line"/>
      <point x="523" y="177" type="line"/>
      <point x="75" y="177" type="line"/>
    </contour>
  </outline>
</glyph>
<glyph name="dollar" format="2">
  <advance width="506"/>
  <unicode hex="0024"/>
  <outline>
    <contour>
      <point x="267" y="347" type="line" smooth="yes"/>
      <point x="341" y="347" type="line" smooth="yes"/>
      <point x="399" y="755" type="line" smooth="yes"/>
      <point x="324" y="755" type="line" smooth="yes"/>
    </contour>
    <contour>
      <point x="205" y="-96" type="line"/>
      <point x="280" y="-96" type="line"/>
      <point x="340" y="336" type="line"/>
      <point x="266" y="336" type="line"/>
    </contour>
    <component base="S" yOffset="-1"/>
  </outline>
</glyph>
<glyph name="ampersand" format="2">
  <advance width="611"/>
  <unicode hex="0026"/>
  <outline>
    <contour>
      <point x="489" y="-105" type="curve" smooth="yes"/>
      <point x="516" y="-105"/>
      <point x="550" y="-97"/>
      <point x="575" y="-84" type="curve"/>
      <point x="585" y="-11" type="line"/>
      <point x="567" y="-23"/>
      <point x="545" y="-30"/>
      <point x="525" y="-30" type="curve" smooth="yes"/>
      <point x="494" y="-30"/>
      <point x="477" y="-8"/>
      <point x="482" y="28" type="curve" smooth="yes"/>
      <point x="520" y="298" type="line"/>
      <point x="629" y="298" type="line"/>
      <point x="639" y="371" type="line"/>
      <point x="531" y="371" type="line"/>
      <point x="549" y="501" type="line"/>
      <point x="467" y="501" type="line"/>
      <point x="449" y="371" type="line"/>
      <point x="343" y="371" type="line" smooth="yes"/>
      <point x="262" y="371"/>
      <point x="213" y="419"/>
      <point x="213" y="479" type="curve" smooth="yes"/>
      <point x="213" y="551"/>
      <point x="264" y="602"/>
      <point x="357" y="602" type="curve" smooth="yes"/>
      <point x="407" y="602"/>
      <point x="460" y="589"/>
      <point x="505" y="563" type="curve"/>
      <point x="517" y="644" type="line"/>
      <point x="464" y="666"/>
      <point x="407" y="677"/>
      <point x="357" y="677" type="curve" smooth="yes"/>
      <point x="221" y="677"/>
      <point x="129" y="606"/>
      <point x="129" y="486" type="curve" smooth="yes"/>
      <point x="129" y="404"/>
      <point x="177" y="346"/>
      <point x="266" y="328" type="curve"/>
      <point x="260" y="342" type="line"/>
      <point x="135" y="322"/>
      <point x="78" y="235"/>
      <point x="78" y="151" type="curve" smooth="yes"/>
      <point x="78" y="40"/>
      <point x="157" y="-13"/>
      <point x="244" y="-13" type="curve" smooth="yes"/>
      <point x="311" y="-13"/>
      <point x="378" y="23"/>
      <point x="417" y="99" type="curve"/>
      <point x="403" y="44" type="line"/>
      <point x="395" y="-10" type="line" smooth="yes"/>
      <point x="386" y="-70"/>
      <point x="429" y="-105"/>
    </contour>
    <contour>
      <point x="276" y="65" type="curve" smooth="yes"/>
      <point x="206" y="65"/>
      <point x="167" y="110"/>
      <point x="167" y="167" type="curve" smooth="yes"/>
      <point x="167" y="246"/>
      <point x="225" y="298"/>
      <point x="331" y="298" type="curve" smooth="yes"/>
      <point x="439" y="298" type="line"/>
      <point x="429" y="228" type="line" smooth="yes"/>
      <point x="415" y="120"/>
      <point x="345" y="65"/>
    </contour>
  </outline>
</glyph>
<glyph name="quotesingle" format="2">
  <advance width="196"/>
  <unicode hex="0027"/>
  <outline>
    <contour>
      <point x="132" y="509" type="line"/>
      <point x="208" y="509" type="line"/>
      <point x="237" y="720" type="line"/>
      <point x="162" y="720" type="line"/>
    </contour>
  </outline>
</glyph>
<glyph name="parenleft" format="2">
  <advance width="343"/>
  <unicode hex="0028"/>
  <outline>
    <contour>
      <point x="209" y="-215" type="curve"/>
      <point x="296" y="-215" type="line"/>
      <point x="214" y="-73"/>
      <point x="175" y="61"/>
      <point x="175" y="198" type="curve" smooth="yes"/>
      <point x="175" y="389"/>
      <point x="256" y="572"/>
      <point x="414" y="720" type="curve"/>
      <point x="318" y="720" type="line"/>
      <point x="171" y="575"/>
      <point x="93" y="392"/>
      <point x="93" y="197" type="curve" smooth="yes"/>
      <point x="93" y="52"/>
      <point x="135" y="-83"/>
    </contour>
  </outline>
</glyph>
<glyph name="parenright" format="2">
  <advance width="343"/>
  <unicode hex="0029"/>
  <outline>
    <contour>
      <point x="1" y="-215" type="curve"/>
      <point x="96" y="-215" type="line"/>
      <point x="241" y="-73"/>
      <point x="321" y="113"/>
      <point x="321" y="308" type="curve" smooth="yes"/>
      <point x="321" y="453"/>
      <point x="279" y="588"/>
      <point x="205" y="720" type="curve"/>
      <point x="118" y="720" type="line"/>
      <point x="200" y="578"/>
      <point x="239" y="444"/>
      <point x="239" y="307" type="curve" smooth="yes"/>
      <point x="239" y="116"/>
      <point x="158" y="-67"/>
    </contour>
  </outline>
</glyph>
<glyph name="asterisk" format="2">
  <advance width="583"/>
  <unicode hex="002A"/>
  <outline>
    <contour>
      <point x="190" y="30" type="line"/>
      <point x="320" y="203" type="line"/>
      <point x="400" y="30" type="line"/>
      <point x="485" y="85" type="line"/>
      <point x="375" y="239" type="line"/>
      <point x="574" y="285" type="line"/>
      <point x="558" y="374" type="line"/>
      <point x="363" y="297" type="line"/>
      <point x="407" y="495" type="line"/>
      <point x="313" y="495" type="line"/>
      <point x="301" y="298" type="line"/>
      <point x="129" y="374" type="line"/>
      <point x="88" y="285" type="line"/>
      <point x="274" y="239" type="line"/>
      <point x="123" y="85" type="line"/>
    </contour>
  </outline>
</glyph>
<glyph name="plus" format="2">
  <advance width="536"/>
  <unicode hex="002B"/>
  <outline>
    <contour>
      <point x="242" y="76" type="line"/>
      <point x="316" y="76" type="line"/>
      <point x="341" y="255" type="line"/>
      <point x="512" y="255" type="line"/>
      <point x="522" y="326" type="line"/>
      <point x="352" y="326" type="line"/>
      <point x="377" y="505" type="line"/>
      <point x="303" y="505" type="line"/>
      <point x="278" y="326" type="line"/>
      <point x="106" y="326" type="line"/>
      <point x="96" y="255" type="line"/>
      <point x="267" y="255" type="line"/>
    </contour>
  </outline>
</glyph>
<glyph name="comma" format="2">
  <advance width="193"/>
  <unicode hex="002C"/>
  <outline>
    <contour>
      <point x="60" y="-159" type="line"/>
      <point x="110" y="-113"/>
      <point x="139" y="-56"/>
      <point x="149" y="19" type="curve" smooth="yes"/>
      <point x="160" y="95" type="line"/>
      <point x="81" y="95" type="line"/>
      <point x="70" y="15" type="line" smooth="yes"/>
      <point x="62" y="-37"/>
      <point x="48" y="-74"/>
      <point x="10" y="-118" type="curve"/>
    </contour>
  </outline>
</glyph>
<glyph name="hyphen" format="2">
  <advance width="365"/>
  <unicode hex="002D"/>
  <unicode hex="00AD"/>
  <unicode hex="2010"/>
  <outline>
    <contour>
      <point x="72" y="200" type="line"/>
      <point x="352" y="200" type="line"/>
      <point x="362" y="272" type="line"/>
      <point x="82" y="272" type="line"/>
    </contour>
  </outline>
</glyph>
<glyph name="period" format="2">
  <advance width="186"/>
  <unicode hex="002E"/>
  <outline>
    <contour>
      <point x="50" y="0" type="line"/>
      <point x="136" y="0" type="line"/>
      <point x="148" y="85" type="line"/>
      <point x="62" y="85" type="line"/>
    </contour>
  </outline>
</glyph>
<glyph name="slash" format="2">
  <advance width="417"/>
  <unicode hex="002F"/>
  <outline>
    <contour>
      <point x="18" y="0" type="line"/>
      <point x="107" y="0" type="line"/>
      <point x="500" y="720" type="line"/>
      <point x="411" y="720" type="line"/>
    </contour>
  </outline>
</glyph>
<glyph name="zero" format="2">
  <advance width="595"/>
  <unicode hex="0030"/>
  <anchor x="344" y="456" name="top"/>
  <outline>
    <contour>
      <point x="313" y="-14" type="curve" smooth="yes"/>
      <point x="491" y="-14"/>
      <point x="595" y="185"/>
      <point x="595" y="410" type="curve" smooth="yes"/>
      <point x="595" y="580"/>
      <point x="506" y="672"/>
      <point x="375" y="672" type="curve" smooth="yes"/>
      <point x="198" y="672"/>
      <point x="92" y="473"/>
      <point x="92" y="248" type="curve" smooth="yes"/>
      <point x="92" y="71"/>
      <point x="182" y="-14"/>
    </contour>
    <contour>
      <point x="312" y="64" type="curve" smooth="yes"/>
      <point x="234" y="64"/>
      <point x="180" y="126"/>
      <point x="180" y="252" type="curve" smooth="yes"/>
      <point x="180" y="426"/>
      <point x="248" y="593"/>
      <point x="376" y="593" type="curve" smooth="yes"/>
      <point x="453" y="593"/>
      <point x="508" y="532"/>
      <point x="508" y="405" type="curve" smooth="yes"/>
      <point x="508" y="228"/>
      <point x="437" y="64"/>
    </contour>
  </outline>
</glyph>
<glyph name="one" format="2">
  <advance width="362"/>
  <unicode hex="0031"/>
  <outline>
    <contour>
      <point x="166" y="0" type="line"/>
      <point x="250" y="0" type="line"/>
      <point x="344" y="673" type="line"/>
      <point x="126" y="641" type="line"/>
      <point x="116" y="563" type="line"/>
      <point x="248" y="585" type="line"/>
    </contour>
  </outline>
</glyph>
<glyph name="two" format="2">
  <advance width="509"/>
  <unicode hex="0032"/>
  <outline>
    <contour>
      <point x="51" y="0" type="line"/>
      <point x="456" y="0" type="line"/>
      <point x="467" y="84" type="line"/>
      <point x="92" y="84" type="line"/>
      <point x="130" y="71" type="line"/>
      <point x="250" y="147" type="line" smooth="yes"/>
      <point x="430" y="250"/>
      <point x="517" y="358"/>
      <point x="517" y="486" type="curve" smooth="yes"/>
      <point x="517" y="603"/>
      <point x="439" y="671"/>
      <point x="321" y="671" type="curve" smooth="yes"/>
      <point x="260" y="671"/>
      <point x="203" y="654"/>
      <point x="145" y="620" type="curve"/>
      <point x="132" y="530" type="line"/>
      <point x="189" y="571"/>
      <point x="246" y="592"/>
      <point x="311" y="592" type="curve" smooth="yes"/>
      <point x="384" y="592"/>
      <point x="429" y="547"/>
      <point x="429" y="479" type="curve" smooth="yes"/>
      <point x="429" y="374"/>
      <point x="343" y="282"/>
      <point x="172" y="185" type="curve" smooth="yes"/>
      <point x="68" y="116" type="line"/>
    </contour>
  </outline>
</glyph>
<glyph name="three" format="2">
  <advance width="494"/>
  <unicode hex="0033"/>
  <outline>
    <contour>
      <point x="244" y="-13" type="curve" smooth="yes"/>
      <point x="385" y="-13"/>
      <point x="472" y="64"/>
      <point x="472" y="182" type="curve" smooth="yes"/>
      <point x="472" y="274"/>
      <point x="413" y="331"/>
      <point x="325" y="339" type="curve"/>
      <point x="324" y="332" type="line"/>
      <point x="433" y="347"/>
      <point x="506" y="424"/>
      <point x="506" y="514" type="curve" smooth="yes"/>
      <point x="506" y="618"/>
      <point x="437" y="670"/>
      <point x="329" y="670" type="curve" smooth="yes"/>
      <point x="266" y="670"/>
      <point x="213" y="654"/>
      <point x="155" y="620" type="curve"/>
      <point x="143" y="535" type="line"/>
      <point x="197" y="573"/>
      <point x="253" y="592"/>
      <point x="311" y="592" type="curve" smooth="yes"/>
      <point x="380" y="592"/>
      <point x="419" y="560"/>
      <point x="419" y="501" type="curve" smooth="yes"/>
      <point x="419" y="422"/>
      <point x="348" y="374"/>
      <point x="245" y="374" type="curve" smooth="yes"/>
      <point x="214" y="374" type="line"/>
      <point x="203" y="295" type="line"/>
      <point x="239" y="295" type="line" smooth="yes"/>
      <point x="337" y="295"/>
      <point x="388" y="255"/>
      <point x="388" y="185" type="curve" smooth="yes"/>
      <point x="388" y="110"/>
      <point x="332" y="66"/>
      <point x="244" y="66" type="curve" smooth="yes"/>
      <point x="175" y="66"/>
      <point x="113" y="88"/>
      <point x="65" y="134" type="curve"/>
      <point x="52" y="45" type="line"/>
      <point x="105" y="6"/>
      <point x="163" y="-13"/>
    </contour>
  </outline>
</glyph>
<glyph name="four" format="2">
  <advance width="559"/>
  <unicode hex="0034"/>
  <outline>
    <contour>
      <point x="339" y="0" type="line"/>
      <point x="423" y="0" type="line"/>
      <point x="447" y="172" type="line"/>
      <point x="542" y="172" type="line"/>
      <point x="552" y="247" type="line"/>
      <point x="457" y="247" type="line"/>
      <point x="516" y="666" type="line"/>
      <point x="413" y="666" type="line"/>
      <point x="75" y="231" type="line"/>
      <point x="66" y="172" type="line"/>
      <point x="363" y="172" type="line"/>
    </contour>
    <contour>
      <point x="373" y="247" type="line"/>
      <point x="175" y="247" type="line"/>
      <point x="417" y="553" type="line"/>
    </contour>
  </outline>
</glyph>
<glyph name="five" format="2">
  <advance width="517"/>
  <unicode hex="0035"/>
  <outline>
    <contour>
      <point x="231" y="-12" type="curve" smooth="yes"/>
      <point x="385" y="-12"/>
      <point x="490" y="80"/>
      <point x="490" y="216" type="curve" smooth="yes"/>
      <point x="490" y="329"/>
      <point x="412" y="399"/>
      <point x="289" y="399" type="curve" smooth="yes"/>
      <point x="258" y="399"/>
      <point x="223" y="395"/>
      <point x="197" y="388" type="curve"/>
      <point x="202" y="379" type="line"/>
      <point x="243" y="578" type="line"/>
      <point x="510" y="578" type="line"/>
      <point x="522" y="658" type="line"/>
      <point x="178" y="658" type="line"/>
      <point x="106" y="303" type="line"/>
      <point x="153" y="315"/>
      <point x="209" y="322"/>
      <point x="260" y="322" type="curve" smooth="yes"/>
      <point x="348" y="322"/>
      <point x="399" y="280"/>
      <point x="399" y="205" type="curve" smooth="yes"/>
      <point x="399" y="122"/>
      <point x="335" y="67"/>
      <point x="238" y="67" type="curve" smooth="yes"/>
      <point x="169" y="67"/>
      <point x="114" y="89"/>
      <point x="70" y="132" type="curve"/>
      <point x="58" y="45" type="line"/>
      <point x="106" y="6"/>
      <point x="162" y="-12"/>
    </contour>
  </outline>
</glyph>
<glyph name="six" format="2">
  <advance width="552"/>
  <unicode hex="0036"/>
  <outline>
    <contour>
      <point x="293" y="-12" type="curve" smooth="yes"/>
      <point x="430" y="-12"/>
      <point x="532" y="89"/>
      <point x="532" y="237" type="curve" smooth="yes"/>
      <point x="532" y="354"/>
      <point x="459" y="426"/>
      <point x="352" y="426" type="curve" smooth="yes"/>
      <point x="257" y="426"/>
      <point x="173" y="362"/>
      <point x="153" y="255" type="curve"/>
      <point x="176" y="264" type="line"/>
      <point x="187" y="469"/>
      <point x="288" y="593"/>
      <point x="420" y="593" type="curve" smooth="yes"/>
      <point x="459" y="593"/>
      <point x="507" y="580"/>
      <point x="542" y="561" type="curve"/>
      <point x="554" y="645" type="line"/>
      <point x="513" y="661"/>
      <point x="469" y="671"/>
      <point x="423" y="671" type="curve" smooth="yes"/>
      <point x="233" y="671"/>
      <point x="89" y="492"/>
      <point x="89" y="218" type="curve" smooth="yes"/>
      <point x="89" y="71"/>
      <point x="167" y="-12"/>
    </contour>
    <contour>
      <point x="296" y="63" type="curve" smooth="yes"/>
      <point x="218" y="63"/>
      <point x="169" y="125"/>
      <point x="173" y="209" type="curve"/>
      <point x="183" y="294"/>
      <point x="259" y="353"/>
      <point x="333" y="353" type="curve" smooth="yes"/>
      <point x="401" y="353"/>
      <point x="446" y="302"/>
      <point x="446" y="228" type="curve" smooth="yes"/>
      <point x="446" y="133"/>
      <point x="384" y="63"/>
    </contour>
  </outline>
</glyph>
<glyph name="seven" format="2">
  <advance width="489"/>
  <unicode hex="0037"/>
  <outline>
    <contour>
      <point x="133" y="0" type="line" smooth="yes"/>
      <point x="223" y="0" type="line" smooth="yes"/>
      <point x="528" y="599" type="line" smooth="yes"/>
      <point x="537" y="658" type="line" smooth="yes"/>
      <point x="136" y="658" type="line"/>
      <point x="125" y="578" type="line"/>
      <point x="508" y="578" type="line" smooth="yes"/>
      <point x="439" y="600" type="line" smooth="yes"/>
    </contour>
  </outline>
</glyph>
<glyph name="eight" format="2">
  <advance width="534"/>
  <unicode hex="0038"/>
  <outline>
    <contour>
      <point x="276" y="-14" type="curve" smooth="yes"/>
      <point x="407" y="-14"/>
      <point x="507" y="68"/>
      <point x="506" y="189" type="curve" smooth="yes"/>
      <point x="506" y="269"/>
      <point x="448" y="334"/>
      <point x="337" y="374" type="curve" smooth="yes"/>
      <point x="311" y="384" type="line" smooth="yes"/>
      <point x="254" y="405"/>
      <point x="217" y="445"/>
      <point x="217" y="490" type="curve" smooth="yes"/>
      <point x="216" y="552"/>
      <point x="269" y="598"/>
      <point x="342" y="598" type="curve" smooth="yes"/>
      <point x="403" y="598"/>
      <point x="444" y="558"/>
      <point x="445" y="509" type="curve" smooth="yes"/>
      <point x="445" y="450"/>
      <point x="398" y="402"/>
      <point x="309" y="375" type="curve" smooth="yes"/>
      <point x="294" y="371" type="line"/>
      <point x="318" y="329" type="line"/>
      <point x="332" y="331" type="line" smooth="yes"/>
      <point x="458" y="364"/>
      <point x="532" y="432"/>
      <point x="532" y="521" type="curve" smooth="yes"/>
      <point x="532" y="607"/>
      <point x="457" y="672"/>
      <point x="347" y="672" type="curve" smooth="yes"/>
      <point x="223" y="672"/>
      <point x="129" y="596"/>
      <point x="129" y="485" type="curve" smooth="yes"/>
      <point x="129" y="407"/>
      <point x="189" y="345"/>
      <point x="280" y="312" type="curve" smooth="yes"/>
      <point x="306" y="303" type="line" smooth="yes"/>
      <point x="377" y="276"/>
      <point x="417" y="236"/>
      <point x="417" y="182" type="curve" smooth="yes"/>
      <point x="418" y="112"/>
      <point x="361" y="61"/>
      <point x="282" y="61" type="curve" smooth="yes"/>
      <point x="212" y="61"/>
      <point x="166" y="102"/>
      <point x="166" y="161" type="curve" smooth="yes"/>
      <point x="166" y="227"/>
      <point x="221" y="283"/>
      <point x="302" y="308" type="curve" smooth="yes"/>
      <point x="316" y="312" type="line"/>
      <point x="291" y="356" type="line" smooth="yes"/>
      <point x="277" y="353" type="line" smooth="yes"/>
      <point x="156" y="324"/>
      <point x="76" y="247"/>
      <point x="76" y="150" type="curve" smooth="yes"/>
      <point x="76" y="54"/>
      <point x="156" y="-14"/>
    </contour>
  </outline>
</glyph>
<glyph name="nine" format="2">
  <advance width="551"/>
  <unicode hex="0039"/>
  <outline>
    <contour>
      <point x="222" y="-12" type="curve" smooth="yes"/>
      <point x="411" y="-12"/>
      <point x="556" y="167"/>
      <point x="556" y="441" type="curve" smooth="yes"/>
      <point x="556" y="588"/>
      <point x="479" y="671"/>
      <point x="354" y="671" type="curve" smooth="yes"/>
      <point x="215" y="671"/>
      <point x="112" y="564"/>
      <point x="112" y="420" type="curve" smooth="yes"/>
      <point x="112" y="304"/>
      <point x="185" y="233"/>
      <point x="293" y="233" type="curve" smooth="yes"/>
      <point x="388" y="233"/>
      <point x="472" y="297"/>
      <point x="491" y="404" type="curve"/>
      <point x="469" y="395" type="line"/>
      <point x="458" y="190"/>
      <point x="356" y="66"/>
      <point x="225" y="66" type="curve" smooth="yes"/>
      <point x="185" y="66"/>
      <point x="138" y="78"/>
      <point x="103" y="98" type="curve"/>
      <point x="91" y="14" type="line"/>
      <point x="129" y="-2"/>
      <point x="177" y="-12"/>
    </contour>
    <contour>
      <point x="311" y="306" type="curve" smooth="yes"/>
      <point x="243" y="306"/>
      <point x="198" y="356"/>
      <point x="198" y="429" type="curve" smooth="yes"/>
      <point x="198" y="525"/>
      <point x="263" y="596"/>
      <point x="352" y="596" type="curve" smooth="yes"/>
      <point x="427" y="596"/>
      <point x="476" y="534"/>
      <point x="472" y="450" type="curve"/>
      <point x="461" y="365"/>
      <point x="386" y="306"/>
    </contour>
  </outline>
</glyph>
<glyph name="less" format="2">
  <advance width="466"/>
  <unicode hex="003C"/>
  <outline>
    <contour>
      <point x="303" y="81" type="line"/>
      <point x="415" y="81" type="line"/>
      <point x="212" y="287" type="line"/>
      <point x="476" y="495" type="line"/>
      <point x="363" y="495" type="line"/>
      <point x="100" y="288" type="line"/>
    </contour>
  </outline>
</glyph>
<glyph name="equal" format="2">
  <advance width="551"/>
  <unicode hex="003D"/>
  <outline>
    <contour>
      <point x="107" y="335" type="line"/>
      <point x="537" y="335" type="line"/>
      <point x="548" y="407" type="line"/>
      <point x="118" y="407" type="line"/>
    </contour>
    <contour>
      <point x="84" y="171" type="line"/>
      <point x="514" y="171" type="line"/>
      <point x="524" y="242" type="line"/>
      <point x="94" y="242" type="line"/>
    </contour>
  </outline>
</glyph>
<glyph name="greater" format="2">
  <advance width="466"/>
  <unicode hex="003E"/>
  <outline>
    <contour>
      <point x="71" y="81" type="line"/>
      <point x="185" y="81" type="line"/>
      <point x="446" y="288" type="line"/>
      <point x="243" y="495" type="line"/>
      <point x="132" y="495" type="line"/>
      <point x="335" y="288" type="line"/>
    </contour>
  </outline>
</glyph>
<glyph name="question" format="2">
  <advance width="442"/>
  <unicode hex="003F"/>
  <outline>
    <contour>
      <point x="158" y="0" type="line"/>
      <point x="242" y="0" type="line"/>
      <point x="254" y="84" type="line"/>
      <point x="170" y="84" type="line"/>
    </contour>
    <contour>
      <point x="188" y="189" type="curve"/>
      <point x="265" y="189" type="line"/>
      <point x="275" y="263"/>
      <point x="303" y="312"/>
      <point x="368" y="373" type="curve" smooth="yes"/>
      <point x="442" y="442"/>
      <point x="481" y="502"/>
      <point x="481" y="573" type="curve" smooth="yes"/>
      <point x="481" y="665"/>
      <point x="413" y="726"/>
      <point x="304" y="726" type="curve" smooth="yes"/>
      <point x="245" y="726"/>
      <point x="183" y="711"/>
      <point x="137" y="686" type="curve"/>
      <point x="124" y="601" type="line"/>
      <point x="170" y="634"/>
      <point x="228" y="652"/>
      <point x="282" y="652" type="curve" smooth="yes"/>
      <point x="355" y="652"/>
      <point x="395" y="613"/>
      <point x="395" y="558" type="curve" smooth="yes"/>
      <point x="395" y="508"/>
      <point x="370" y="467"/>
      <point x="306" y="406" type="curve" smooth="yes"/>
      <point x="232" y="338"/>
      <point x="201" y="281"/>
    </contour>
  </outline>
</glyph>
<glyph name="at" format="2">
  <advance width="796"/>
  <unicode hex="0040"/>
  <outline>
    <contour>
      <point x="387" y="-71" type="curve" smooth="yes"/>
      <point x="445" y="-71"/>
      <point x="510" y="-58"/>
      <point x="565" y="-34" type="curve"/>
      <point x="567" y="26" type="line"/>
      <point x="514" y="0"/>
      <point x="448" y="-16"/>
      <point x="387" y="-16" type="curve" smooth="yes"/>
      <point x="242" y="-16"/>
      <point x="142" y="91"/>
      <point x="142" y="234" type="curve" smooth="yes"/>
      <point x="142" y="427"/>
      <point x="272" y="571"/>
      <point x="483" y="571" type="curve" smooth="yes"/>
      <point x="639" y="571"/>
      <point x="736" y="472"/>
      <point x="736" y="344" type="curve" smooth="yes"/>
      <point x="736" y="236"/>
      <point x="696" y="160"/>
      <point x="634" y="160" type="curve" smooth="yes"/>
      <point x="579" y="160"/>
      <point x="554" y="204"/>
      <point x="563" y="273" type="curve" smooth="yes"/>
      <point x="584" y="435" type="line"/>
      <point x="548" y="446"/>
      <point x="505" y="452"/>
      <point x="473" y="452" type="curve" smooth="yes"/>
      <point x="352" y="452"/>
      <point x="263" y="366"/>
      <point x="263" y="240" type="curve" smooth="yes"/>
      <point x="263" y="158"/>
      <point x="312" y="107"/>
      <point x="383" y="107" type="curve" smooth="yes"/>
      <point x="434" y="107"/>
      <point x="497" y="135"/>
      <point x="522" y="218" type="curve"/>
      <point x="510" y="223" type="line"/>
      <point x="522" y="138"/>
      <point x="570" y="107"/>
      <point x="631" y="107" type="curve" smooth="yes"/>
      <point x="723" y="107"/>
      <point x="794" y="196"/>
      <point x="794" y="345" type="curve" smooth="yes"/>
      <point x="794" y="516"/>
      <point x="661" y="626"/>
      <point x="483" y="626" type="curve" smooth="yes"/>
      <point x="254" y="626"/>
      <point x="84" y="476"/>
      <point x="84" y="233" type="curve" smooth="yes"/>
      <point x="84" y="52"/>
      <point x="214" y="-71"/>
    </contour>
    <contour>
      <point x="395" y="161" type="curve" smooth="yes"/>
      <point x="350" y="161"/>
      <point x="323" y="196"/>
      <point x="323" y="246" type="curve" smooth="yes"/>
      <point x="323" y="334"/>
      <point x="381" y="400"/>
      <point x="466" y="400" type="curve" smooth="yes"/>
      <point x="486" y="400"/>
      <point x="505" y="397"/>
      <point x="519" y="393" type="curve"/>
      <point x="511" y="340" type="line" smooth="yes"/>
      <point x="492" y="191"/>
      <point x="440" y="161"/>
    </contour>
  </outline>
</glyph>
<glyph name="A" format="2">
  <advance width="639"/>
  <unicode hex="0041"/>
  <anchor x="407" y="642" name="top"/>
  <anchor x="617" y="16" name="ogonek"/>
  <outline>
    <contour>
      <point x="18" y="0" type="line"/>
      <point x="104" y="0" type="line"/>
      <point x="208" y="197" type="line"/>
      <point x="191" y="197" type="line"/>
      <point x="503" y="197" type="line"/>
      <point x="485" y="197" type="line"/>
      <point x="534" y="0" type="line"/>
      <point x="621" y="0" type="line"/>
      <point x="452" y="664" type="line"/>
      <point x="373" y="664" type="line"/>
    </contour>
    <contour>
      <point x="246" y="271" type="line"/>
      <point x="361" y="488" type="line"/>
      <point x="411" y="590" type="line"/>
      <point x="392" y="590" type="line"/>
      <point x="414" y="488" type="line"/>
      <point x="467" y="271" type="line"/>
      <point x="488" y="271" type="line"/>
      <point x="228" y="271" type="line"/>
    </contour>
  </outline>
</glyph>
<glyph name="B" format="2">
  <advance width="530"/>
  <unicode hex="0042"/>
  <outline>
    <contour>
      <point x="72" y="0" type="line"/>
      <point x="260" y="0" type="line" smooth="yes"/>
      <point x="426" y="0"/>
      <point x="508" y="78"/>
      <point x="508" y="193" type="curve" smooth="yes"/>
      <point x="508" y="273"/>
      <point x="459" y="336"/>
      <point x="336" y="339" type="curve"/>
      <point x="334" y="328" type="line"/>
      <point x="468" y="335"/>
      <point x="524" y="415"/>
      <point x="524" y="505" type="curve" smooth="yes"/>
      <point x="524" y="598"/>
      <point x="463" y="658"/>
      <point x="333" y="658" type="curve" smooth="yes"/>
      <point x="164" y="658" type="line"/>
    </contour>
    <contour>
      <point x="208" y="369" type="line"/>
      <point x="239" y="584" type="line"/>
      <point x="327" y="584" type="line" smooth="yes"/>
      <point x="399" y="584"/>
      <point x="438" y="550"/>
      <point x="438" y="488" type="curve" smooth="yes"/>
      <point x="438" y="411"/>
      <point x="387" y="369"/>
      <point x="296" y="369" type="curve" smooth="yes"/>
    </contour>
    <contour>
      <point x="167" y="74" type="line"/>
      <point x="198" y="298" type="line"/>
      <point x="293" y="298" type="line" smooth="yes"/>
      <point x="380" y="298"/>
      <point x="423" y="260"/>
      <point x="423" y="196" type="curve" smooth="yes"/>
      <point x="423" y="120"/>
      <point x="369" y="74"/>
      <point x="273" y="74" type="curve" smooth="yes"/>
    </contour>
  </outline>
</glyph>
<glyph name="C" format="2">
  <advance width="664"/>
  <unicode hex="0043"/>
  <anchor x="487" y="650" name="top"/>
  <anchor x="400" y="12" name="bottom"/>
  <outline>
    <contour>
      <point x="416" y="-14" type="curve" smooth="yes"/>
      <point x="487" y="-14"/>
      <point x="556" y="3"/>
      <point x="626" y="39" type="curve"/>
      <point x="639" y="127" type="line"/>
      <point x="568" y="85"/>
      <point x="501" y="64"/>
      <point x="423" y="64" type="curve" smooth="yes"/>
      <point x="278" y="64"/>
      <point x="182" y="158"/>
      <point x="182" y="293" type="curve" smooth="yes"/>
      <point x="182" y="468"/>
      <point x="305" y="594"/>
      <point x="481" y="594" type="curve" smooth="yes"/>
      <point x="557" y="594"/>
      <point x="625" y="573"/>
      <point x="688" y="534" type="curve"/>
      <point x="700" y="619" type="line"/>
      <point x="633" y="655"/>
      <point x="562" y="672"/>
      <point x="487" y="672" type="curve" smooth="yes"/>
      <point x="256" y="672"/>
      <point x="95" y="509"/>
      <point x="95" y="288" type="curve" smooth="yes"/>
      <point x="95" y="116"/>
      <point x="216" y="-14"/>
    </contour>
  </outline>
</glyph>
<glyph name="D" format="2">
  <advance width="694"/>
  <unicode hex="0044"/>
  <anchor x="359" y="642" name="top"/>
  <outline>
    <contour>
      <point x="72" y="0" type="line"/>
      <point x="273" y="0" type="line" smooth="yes"/>
      <point x="530" y="0"/>
      <point x="692" y="155"/>
      <point x="692" y="372" type="curve" smooth="yes"/>
      <point x="692" y="540"/>
      <point x="569" y="658"/>
      <point x="368" y="658" type="curve" smooth="yes"/>
      <point x="164" y="658" type="line"/>
    </contour>
    <contour>
      <point x="168" y="79" type="line"/>
      <point x="238" y="579" type="line"/>
      <point x="362" y="579" type="line" smooth="yes"/>
      <point x="513" y="579"/>
      <point x="606" y="492"/>
      <point x="606" y="368" type="curve" smooth="yes"/>
      <point x="606" y="199"/>
      <point x="483" y="79"/>
      <point x="283" y="79" type="curve" smooth="yes"/>
    </contour>
  </outline>
</glyph>
<glyph name="E" format="2">
  <advance width="503"/>
  <unicode hex="0045"/>
  <anchor x="347" y="642" name="top"/>
  <anchor x="444" y="16" name="ogonek"/>
  <outline>
    <contour>
      <point x="72" y="0" type="line"/>
      <point x="445" y="0" type="line"/>
      <point x="456" y="79" type="line"/>
      <point x="167" y="79" type="line"/>
      <point x="197" y="294" type="line"/>
      <point x="463" y="294" type="line"/>
      <point x="474" y="373" type="line"/>
      <point x="208" y="373" type="line"/>
      <point x="237" y="579" type="line"/>
      <point x="511" y="579" type="line"/>
      <point x="522" y="658" type="line"/>
      <point x="164" y="658" type="line"/>
    </contour>
  </outline>
</glyph>
<glyph name="F" format="2">
  <advance width="454"/>
  <unicode hex="0046"/>
  <outline>
    <contour>
      <point x="72" y="0" type="line"/>
      <point x="156" y="0" type="line"/>
      <point x="197" y="291" type="line"/>
      <point x="446" y="291" type="line"/>
      <point x="457" y="369" type="line"/>
      <point x="208" y="369" type="line"/>
      <point x="237" y="579" type="line"/>
      <point x="499" y="579" type="line"/>
      <point x="510" y="658" type="line"/>
      <point x="164" y="658" type="line"/>
    </contour>
  </outline>
</glyph>
<glyph name="G" format="2">
  <advance width="690"/>
  <unicode hex="0047"/>
  <anchor x="474" y="650" name="top"/>
  <anchor x="411" y="8" name="bottom"/>
  <outline>
    <contour>
      <point x="410" y="-14" type="curve" smooth="yes"/>
      <point x="479" y="-14"/>
      <point x="562" y="1"/>
      <point x="638" y="40" type="curve"/>
      <point x="679" y="337" type="line"/>
      <point x="458" y="337" type="line"/>
      <point x="447" y="258" type="line"/>
      <point x="584" y="258" type="line"/>
      <point x="561" y="95" type="line"/>
      <point x="518" y="72"/>
      <point x="468" y="64"/>
      <point x="415" y="64" type="curve" smooth="yes"/>
      <point x="278" y="64"/>
      <point x="181" y="156"/>
      <point x="181" y="290" type="curve" smooth="yes"/>
      <point x="181" y="470"/>
      <point x="304" y="594"/>
      <point x="480" y="594" type="curve" smooth="yes"/>
      <point x="553" y="594"/>
      <point x="623" y="577"/>
      <point x="682" y="544" type="curve"/>
      <point x="693" y="626" type="line"/>
      <point x="634" y="656"/>
      <point x="561" y="672"/>
      <point x="484" y="672" type="curve" smooth="yes"/>
      <point x="256" y="672"/>
      <point x="95" y="513"/>
      <point x="95" y="284" type="curve" smooth="yes"/>
      <point x="95" y="113"/>
      <point x="214" y="-14"/>
    </contour>
  </outline>
</glyph>
<glyph name="H" format="2">
  <advance width="683"/>
  <unicode hex="0048"/>
  <guideline x="342" y="0" angle="82.0" name="" identifier="JMBvttS7Pj"/>
  <anchor x="431" y="641" name="top"/>
  <outline>
    <contour>
      <point x="72" y="0" type="line"/>
      <point x="157" y="0" type="line"/>
      <point x="199" y="297" type="line"/>
      <point x="568" y="297" type="line"/>
      <point x="526" y="0" type="line"/>
      <point x="610" y="0" type="line"/>
      <point x="702" y="658" type="line"/>
      <point x="618" y="658" type="line"/>
      <point x="578" y="376" type="line"/>
      <point x="209" y="376" type="line"/>
      <point x="249" y="658" type="line"/>
      <point x="164" y="658" type="line"/>
    </contour>
  </outline>
</glyph>
<glyph name="I" format="2">
  <advance width="229"/>
  <unicode hex="0049"/>
  <anchor x="205" y="642" name="top"/>
  <anchor x="156" y="16" name="ogonek"/>
  <outline>
    <contour>
      <point x="72" y="0" type="line"/>
      <point x="157" y="0" type="line"/>
      <point x="249" y="658" type="line"/>
      <point x="164" y="658" type="line"/>
    </contour>
  </outline>
</glyph>
<glyph name="J" format="2">
  <advance width="239"/>
  <unicode hex="004A"/>
  <anchor x="216" y="642" name="top"/>
  <outline>
    <contour>
      <point x="-40" y="-220" type="line" smooth="yes"/>
      <point x="65" y="-220"/>
      <point x="142" y="-168"/>
      <point x="159" y="-47" type="curve" smooth="yes"/>
      <point x="258" y="658" type="line"/>
      <point x="174" y="658" type="line"/>
      <point x="75" y="-48" type="line" smooth="yes"/>
      <point x="65" y="-115"/>
      <point x="27" y="-142"/>
      <point x="-30" y="-142" type="curve" smooth="yes"/>
      <point x="-38" y="-142" type="line"/>
      <point x="-48" y="-220" type="line"/>
    </contour>
  </outline>
</glyph>
<glyph name="K" format="2">
  <advance width="569"/>
  <unicode hex="004B"/>
  <anchor x="301" y="16" name="bottom"/>
  <outline>
    <contour>
      <point x="72" y="0" type="line"/>
      <point x="156" y="0" type="line"/>
      <point x="203" y="334" type="line"/>
      <point x="188" y="334" type="line"/>
      <point x="447" y="0" type="line"/>
      <point x="553" y="0" type="line"/>
      <point x="269" y="359" type="line"/>
      <point x="273" y="321" type="line"/>
      <point x="632" y="658" type="line"/>
      <point x="527" y="658" type="line"/>
      <point x="188" y="340" type="line"/>
      <point x="204" y="340" type="line"/>
      <point x="249" y="658" type="line"/>
      <point x="164" y="658" type="line"/>
    </contour>
  </outline>
</glyph>
<glyph name="L" format="2">
  <advance width="457"/>
  <unicode hex="004C"/>
  <anchor x="214" y="642" name="top"/>
  <anchor x="270" y="16" name="bottom"/>
  <anchor x="406" y="530" name="caron.vert"/>
  <outline>
    <contour>
      <point x="72" y="0" type="line"/>
      <point x="435" y="0" type="line"/>
      <point x="446" y="79" type="line"/>
      <point x="168" y="79" type="line"/>
      <point x="249" y="658" type="line"/>
      <point x="164" y="658" type="line"/>
    </contour>
  </outline>
</glyph>
<glyph name="M" format="2">
  <advance width="772"/>
  <unicode hex="004D"/>
  <outline>
    <contour>
      <point x="72" y="0" type="line"/>
      <point x="152" y="0" type="line"/>
      <point x="219" y="483" type="line"/>
      <point x="238" y="649" type="line"/>
      <point x="206" y="649" type="line"/>
      <point x="250" y="483" type="line"/>
      <point x="361" y="127" type="line"/>
      <point x="442" y="127" type="line"/>
      <point x="652" y="483" type="line" smooth="yes"/>
      <point x="742" y="649" type="line"/>
      <point x="712" y="649" type="line"/>
      <point x="684" y="483" type="line"/>
      <point x="616" y="0" type="line"/>
      <point x="699" y="0" type="line"/>
      <point x="791" y="658" type="line"/>
      <point x="664" y="658" type="line"/>
      <point x="454" y="302" type="line"/>
      <point x="387" y="169" type="line"/>
      <point x="424" y="169" type="line"/>
      <point x="393" y="302" type="line"/>
      <point x="283" y="658" type="line"/>
      <point x="164" y="658" type="line"/>
    </contour>
  </outline>
</glyph>
<glyph name="N" format="2">
  <advance width="706"/>
  <unicode hex="004E"/>
  <anchor x="436" y="642" name="top"/>
  <anchor x="365" y="16" name="bottom"/>
  <outline>
    <contour>
      <point x="72" y="0" type="line"/>
      <point x="152" y="0" type="line"/>
      <point x="219" y="483" type="line"/>
      <point x="235" y="603" type="line"/>
      <point x="192" y="603" type="line"/>
      <point x="258" y="483" type="line"/>
      <point x="547" y="0" type="line"/>
      <point x="634" y="0" type="line"/>
      <point x="726" y="658" type="line"/>
      <point x="646" y="658" type="line"/>
      <point x="579" y="178" type="line"/>
      <point x="564" y="55" type="line"/>
      <point x="607" y="55" type="line"/>
      <point x="540" y="178" type="line"/>
      <point x="252" y="658" type="line"/>
      <point x="164" y="658" type="line"/>
    </contour>
  </outline>
</glyph>
<glyph name="O" format="2">
  <advance width="772"/>
  <unicode hex="004F"/>
  <anchor x="465" y="650" name="top"/>
  <outline>
    <contour>
      <point x="403" y="-15" type="curve" smooth="yes"/>
      <point x="622" y="-15"/>
      <point x="769" y="152"/>
      <point x="769" y="369" type="curve" smooth="yes"/>
      <point x="769" y="550"/>
      <point x="645" y="673"/>
      <point x="461" y="673" type="curve" smooth="yes"/>
      <point x="240" y="673"/>
      <point x="95" y="507"/>
      <point x="95" y="288" type="curve" smooth="yes"/>
      <point x="95" y="108"/>
      <point x="218" y="-15"/>
    </contour>
    <contour>
      <point x="405" y="64" type="curve" smooth="yes"/>
      <point x="265" y="64"/>
      <point x="182" y="163"/>
      <point x="182" y="292" type="curve" smooth="yes"/>
      <point x="182" y="469"/>
      <point x="294" y="594"/>
      <point x="459" y="594" type="curve" smooth="yes"/>
      <point x="598" y="594"/>
      <point x="683" y="495"/>
      <point x="683" y="366" type="curve" smooth="yes"/>
      <point x="683" y="190"/>
      <point x="570" y="64"/>
    </contour>
  </outline>
</glyph>
<glyph name="P" format="2">
  <advance width="489"/>
  <unicode hex="0050"/>
  <outline>
    <contour>
      <point x="72" y="0" type="line"/>
      <point x="156" y="0" type="line"/>
      <point x="189" y="236" type="line"/>
      <point x="252" y="236" type="line" smooth="yes"/>
      <point x="413" y="236"/>
      <point x="512" y="333"/>
      <point x="512" y="468" type="curve" smooth="yes"/>
      <point x="512" y="586"/>
      <point x="429" y="658"/>
      <point x="297" y="658" type="curve" smooth="yes"/>
      <point x="164" y="658" type="line"/>
    </contour>
    <contour>
      <point x="200" y="312" type="line"/>
      <point x="238" y="580" type="line"/>
      <point x="290" y="580" type="line" smooth="yes"/>
      <point x="378" y="580"/>
      <point x="426" y="533"/>
      <point x="426" y="461" type="curve" smooth="yes"/>
      <point x="426" y="371"/>
      <point x="359" y="312"/>
      <point x="258" y="312" type="curve" smooth="yes"/>
    </contour>
  </outline>
</glyph>
<glyph name="Q" format="2">
  <advance width="772"/>
  <unicode hex="0051"/>
  <guideline x="777" y="392" angle="82.0" identifier="kRPqQ8vboa"/>
  <outline>
    <contour>
      <point x="676" y="-144" type="curve"/>
      <point x="698" y="-62" type="line"/>
      <point x="606" y="-36"/>
      <point x="535" y="6"/>
      <point x="485" y="64" type="curve"/>
      <point x="409" y="12" type="line"/>
      <point x="472" y="-62"/>
      <point x="566" y="-114"/>
    </contour>
    <component base="O"/>
  </outline>
</glyph>
<glyph name="R" format="2">
  <advance width="526"/>
  <unicode hex="0052"/>
  <anchor x="328" y="642" name="top"/>
  <anchor x="294" y="16" name="bottom"/>
  <outline>
    <contour>
      <point x="73" y="0" type="line"/>
      <point x="157" y="0" type="line"/>
      <point x="197" y="288" type="line"/>
      <point x="265" y="288" type="line" smooth="yes"/>
      <point x="312" y="288"/>
      <point x="340" y="260"/>
      <point x="355" y="211" type="curve" smooth="yes"/>
      <point x="423" y="0" type="line"/>
      <point x="510" y="0" type="line"/>
      <point x="436" y="229" type="line" smooth="yes"/>
      <point x="419" y="287"/>
      <point x="383" y="320"/>
      <point x="317" y="323" type="curve"/>
      <point x="317" y="312" type="line"/>
      <point x="436" y="318"/>
      <point x="515" y="392"/>
      <point x="515" y="500" type="curve" smooth="yes"/>
      <point x="515" y="600"/>
      <point x="448" y="658"/>
      <point x="333" y="658" type="curve" smooth="yes"/>
      <point x="165" y="658" type="line"/>
    </contour>
    <contour>
      <point x="207" y="360" type="line"/>
      <point x="239" y="582" type="line"/>
      <point x="324" y="582" type="line" smooth="yes"/>
      <point x="386" y="582"/>
      <point x="425" y="545"/>
      <point x="425" y="486" type="curve" smooth="yes"/>
      <point x="425" y="415"/>
      <point x="373" y="360"/>
      <point x="294" y="360" type="curve" smooth="yes"/>
    </contour>
  </outline>
</glyph>
<glyph name="S" format="2">
  <advance width="506"/>
  <unicode hex="0053"/>
  <anchor x="339" y="650" name="top"/>
  <anchor x="261" y="12" name="bottom"/>
  <outline>
    <contour>
      <point x="251" y="-16" type="curve" smooth="yes"/>
      <point x="382" y="-16"/>
      <point x="479" y="71"/>
      <point x="479" y="192" type="curve" smooth="yes"/>
      <point x="479" y="270"/>
      <point x="435" y="328"/>
      <point x="336" y="368" type="curve" smooth="yes"/>
      <point x="323" y="373" type="line" smooth="yes"/>
      <point x="245" y="405"/>
      <point x="213" y="439"/>
      <point x="213" y="485" type="curve" smooth="yes"/>
      <point x="213" y="551"/>
      <point x="263" y="595"/>
      <point x="338" y="595" type="curve" smooth="yes"/>
      <point x="399" y="595"/>
      <point x="454" y="577"/>
      <point x="502" y="536" type="curve"/>
      <point x="515" y="627" type="line"/>
      <point x="464" y="658"/>
      <point x="403" y="673"/>
      <point x="339" y="673" type="curve" smooth="yes"/>
      <point x="207" y="673"/>
      <point x="125" y="586"/>
      <point x="125" y="476" type="curve" smooth="yes"/>
      <point x="125" y="398"/>
      <point x="169" y="343"/>
      <point x="270" y="302" type="curve" smooth="yes"/>
      <point x="282" y="297" type="line" smooth="yes"/>
      <point x="360" y="266"/>
      <point x="391" y="229"/>
      <point x="391" y="181" type="curve" smooth="yes"/>
      <point x="391" y="105"/>
      <point x="329" y="63"/>
      <point x="255" y="63" type="curve" smooth="yes"/>
      <point x="186" y="63"/>
      <point x="123" y="85"/>
      <point x="75" y="124" type="curve"/>
      <point x="63" y="34" type="line"/>
      <point x="117" y="1"/>
      <point x="180" y="-16"/>
    </contour>
  </outline>
</glyph>
<glyph name="T" format="2">
  <advance width="550"/>
  <unicode hex="0054"/>
  <anchor x="363" y="642" name="top"/>
  <anchor x="278" y="16" name="bottom"/>
  <outline>
    <contour>
      <point x="233" y="0" type="line"/>
      <point x="317" y="0" type="line"/>
      <point x="398" y="579" type="line"/>
      <point x="611" y="579" type="line"/>
      <point x="622" y="658" type="line"/>
      <point x="112" y="658" type="line"/>
      <point x="101" y="579" type="line"/>
      <point x="314" y="579" type="line"/>
    </contour>
  </outline>
</glyph>
<glyph name="U" format="2">
  <advance width="667"/>
  <unicode hex="0055"/>
  <guideline x="371" y="260" angle="82.0" name="" identifier="oYZKR9ebBy"/>
  <anchor x="424" y="642" name="top"/>
  <outline>
    <contour>
      <point x="350" y="-12" type="curve" smooth="yes"/>
      <point x="500" y="-12"/>
      <point x="612" y="84"/>
      <point x="635" y="251" type="curve" smooth="yes"/>
      <point x="692" y="658" type="line"/>
      <point x="614" y="658" type="line"/>
      <point x="557" y="253" type="line" smooth="yes"/>
      <point x="541" y="141"/>
      <point x="460" y="67"/>
      <point x="352" y="67" type="curve" smooth="yes"/>
      <point x="230" y="67"/>
      <point x="169" y="138"/>
      <point x="185" y="253" type="curve" smooth="yes"/>
      <point x="242" y="658" type="line"/>
      <point x="158" y="658" type="line"/>
      <point x="102" y="255" type="line" smooth="yes"/>
      <point x="80" y="100"/>
      <point x="172" y="-12"/>
    </contour>
  </outline>
</glyph>
<glyph name="V" format="2">
  <advance width="646"/>
  <unicode hex="0056"/>
  <outline>
    <contour>
      <point x="285" y="0" type="line"/>
      <point x="361" y="0" type="line"/>
      <point x="720" y="658" type="line"/>
      <point x="632" y="658" type="line"/>
      <point x="371" y="175" type="line"/>
      <point x="311" y="56" type="line"/>
      <point x="350" y="56" type="line"/>
      <point x="325" y="175" type="line"/>
      <point x="200" y="658" type="line"/>
      <point x="110" y="658" type="line"/>
    </contour>
  </outline>
</glyph>
<glyph name="W" format="2">
  <advance width="946"/>
  <unicode hex="0057"/>
  <anchor x="560" y="642" name="top"/>
  <outline>
    <contour>
      <point x="223" y="0" type="line"/>
      <point x="312" y="0" type="line"/>
      <point x="526" y="483" type="line"/>
      <point x="590" y="650" type="line"/>
      <point x="539" y="650" type="line"/>
      <point x="558" y="483" type="line"/>
      <point x="636" y="0" type="line"/>
      <point x="723" y="0" type="line"/>
      <point x="1021" y="658" type="line"/>
      <point x="933" y="658" type="line"/>
      <point x="720" y="175" type="line"/>
      <point x="663" y="21" type="line"/>
      <point x="706" y="20" type="line"/>
      <point x="691" y="175" type="line"/>
      <point x="612" y="658" type="line"/>
      <point x="521" y="658" type="line"/>
      <point x="307" y="175" type="line"/>
      <point x="248" y="20" type="line"/>
      <point x="293" y="20" type="line"/>
      <point x="277" y="175" type="line"/>
      <point x="198" y="658" type="line"/>
      <point x="110" y="658" type="line"/>
    </contour>
  </outline>
</glyph>
<glyph name="X" format="2">
  <advance width="616"/>
  <unicode hex="0058"/>
  <outline>
    <contour>
      <point x="26" y="0" type="line"/>
      <point x="128" y="0" type="line"/>
      <point x="313" y="229" type="line"/>
      <point x="369" y="298" type="line"/>
      <point x="390" y="319" type="line"/>
      <point x="672" y="658" type="line"/>
      <point x="570" y="658" type="line"/>
      <point x="401" y="450" type="line"/>
      <point x="353" y="388" type="line"/>
      <point x="324" y="362" type="line"/>
    </contour>
    <contour>
      <point x="493" y="0" type="line"/>
      <point x="590" y="0" type="line"/>
      <point x="389" y="364" type="line"/>
      <point x="369" y="390" type="line"/>
      <point x="340" y="450" type="line"/>
      <point x="229" y="658" type="line"/>
      <point x="132" y="658" type="line"/>
      <point x="318" y="318" type="line"/>
      <point x="337" y="291" type="line"/>
      <point x="370" y="229" type="line"/>
    </contour>
  </outline>
</glyph>
<glyph name="Y" format="2">
  <advance width="590"/>
  <unicode hex="0059"/>
  <anchor x="376" y="642" name="top"/>
  <outline>
    <contour>
      <point x="253" y="0" type="line"/>
      <point x="337" y="0" type="line"/>
      <point x="379" y="301" type="line"/>
      <point x="357" y="256" type="line"/>
      <point x="670" y="658" type="line"/>
      <point x="571" y="658" type="line"/>
      <point x="382" y="414" type="line"/>
      <point x="312" y="312" type="line"/>
      <point x="365" y="312" type="line"/>
      <point x="322" y="414" type="line"/>
      <point x="199" y="658" type="line"/>
      <point x="105" y="658" type="line"/>
      <point x="305" y="256" type="line"/>
      <point x="296" y="302" type="line"/>
    </contour>
  </outline>
</glyph>
<glyph name="Z" format="2">
  <advance width="586"/>
  <unicode hex="005A"/>
  <anchor x="379" y="642" name="top"/>
  <outline>
    <contour>
      <point x="51" y="0" type="line"/>
      <point x="536" y="0" type="line"/>
      <point x="547" y="79" type="line"/>
      <point x="144" y="79" type="line"/>
      <point x="139" y="18" type="line"/>
      <point x="226" y="124" type="line"/>
      <point x="621" y="613" type="line"/>
      <point x="627" y="658" type="line"/>
      <point x="148" y="658" type="line"/>
      <point x="136" y="579" type="line"/>
      <point x="536" y="579" type="line"/>
      <point x="541" y="641" type="line"/>
      <point x="452" y="534" type="line"/>
      <point x="58" y="47" type="line"/>
    </contour>
  </outline>
</glyph>
<glyph name="bracketleft" format="2">
  <advance width="334"/>
  <unicode hex="005B"/>
  <outline>
    <contour>
      <point x="59" y="-220" type="line"/>
      <point x="263" y="-220" type="line"/>
      <point x="273" y="-150" type="line"/>
      <point x="149" y="-150" type="line"/>
      <point x="262" y="650" type="line"/>
      <point x="385" y="650" type="line"/>
      <point x="395" y="720" type="line"/>
      <point x="192" y="720" type="line"/>
    </contour>
  </outline>
</glyph>
<glyph name="backslash" format="2">
  <advance width="473"/>
  <unicode hex="005C"/>
  <outline>
    <contour>
      <point x="374" y="0" type="line"/>
      <point x="455" y="0" type="line"/>
      <point x="200" y="720" type="line"/>
      <point x="119" y="720" type="line"/>
    </contour>
  </outline>
</glyph>
<glyph name="bracketright" format="2">
  <advance width="334"/>
  <unicode hex="005D"/>
  <outline>
    <contour>
      <point x="10" y="-215" type="line"/>
      <point x="213" y="-215" type="line"/>
      <point x="345" y="720" type="line"/>
      <point x="142" y="720" type="line"/>
      <point x="132" y="650" type="line"/>
      <point x="255" y="650" type="line"/>
      <point x="143" y="-145" type="line"/>
      <point x="20" y="-145" type="line"/>
    </contour>
  </outline>
</glyph>
<glyph name="underscore" format="2">
  <advance width="422"/>
  <unicode hex="005F"/>
  <outline>
    <contour>
      <point x="-31" y="-215" type="line"/>
      <point x="392" y="-215" type="line"/>
      <point x="402" y="-143" type="line"/>
      <point x="-20" y="-143" type="line"/>
    </contour>
  </outline>
</glyph>
<glyph name="a" format="2">
  <advance width="522"/>
  <unicode hex="0061"/>
  <anchor x="346" y="450" name="top"/>
  <anchor x="466" y="16" name="ogonek"/>
  <outline>
    <contour>
      <point x="233" y="-10" type="curve" smooth="yes"/>
      <point x="293" y="-10"/>
      <point x="355" y="22"/>
      <point x="392" y="109" type="curve"/>
      <point x="388" y="79" type="line" smooth="yes"/>
      <point x="386" y="54"/>
      <point x="384" y="26"/>
      <point x="384" y="0" type="curve"/>
      <point x="466" y="0" type="line"/>
      <point x="466" y="46"/>
      <point x="470" y="87"/>
      <point x="476" y="132" type="curve" smooth="yes"/>
      <point x="520" y="447" type="line"/>
      <point x="468" y="466"/>
      <point x="407" y="476"/>
      <point x="356" y="476" type="curve" smooth="yes"/>
      <point x="194" y="476"/>
      <point x="68" y="347"/>
      <point x="68" y="178" type="curve" smooth="yes"/>
      <point x="68" y="63"/>
      <point x="138" y="-10"/>
    </contour>
    <contour>
      <point x="254" y="63" type="curve" smooth="yes"/>
      <point x="196" y="63"/>
      <point x="149" y="105"/>
      <point x="149" y="187" type="curve" smooth="yes"/>
      <point x="149" y="306"/>
      <point x="239" y="404"/>
      <point x="346" y="404" type="curve" smooth="yes"/>
      <point x="377" y="404"/>
      <point x="404" y="401"/>
      <point x="430" y="392" type="curve"/>
      <point x="420" y="316" type="line" smooth="yes"/>
      <point x="391" y="109"/>
      <point x="316" y="63"/>
    </contour>
  </outline>
</glyph>
<glyph name="b" format="2">
  <advance width="515"/>
  <unicode hex="0062"/>
  <outline>
    <contour>
      <point x="233" y="-10" type="curve" smooth="yes"/>
      <point x="392" y="-10"/>
      <point x="513" y="120"/>
      <point x="513" y="289" type="curve" smooth="yes"/>
      <point x="513" y="401"/>
      <point x="446" y="476"/>
      <point x="352" y="476" type="curve" smooth="yes"/>
      <point x="286" y="476"/>
      <point x="222" y="444"/>
      <point x="187" y="350" type="curve"/>
      <point x="197" y="407" type="line"/>
      <point x="242" y="720" type="line"/>
      <point x="160" y="720" type="line"/>
      <point x="59" y="10" type="line"/>
      <point x="118" y="-3"/>
      <point x="181" y="-10"/>
    </contour>
    <contour>
      <point x="241" y="62" type="curve" smooth="yes"/>
      <point x="210" y="62"/>
      <point x="177" y="65"/>
      <point x="150" y="71" type="curve"/>
      <point x="162" y="149" type="line" smooth="yes"/>
      <point x="193" y="359"/>
      <point x="264" y="403"/>
      <point x="328" y="403" type="curve" smooth="yes"/>
      <point x="392" y="403"/>
      <point x="432" y="355"/>
      <point x="432" y="278" type="curve" smooth="yes"/>
      <point x="432" y="158"/>
      <point x="346" y="62"/>
    </contour>
  </outline>
</glyph>
<glyph name="c" format="2">
  <advance width="465"/>
  <unicode hex="0063"/>
  <anchor x="314" y="450" name="top"/>
  <anchor x="243" y="16" name="bottom"/>
  <outline>
    <contour>
      <point x="283" y="-10" type="curve" smooth="yes"/>
      <point x="334" y="-10"/>
      <point x="381" y="2"/>
      <point x="427" y="31" type="curve"/>
      <point x="439" y="113" type="line"/>
      <point x="394" y="80"/>
      <point x="348" y="64"/>
      <point x="293" y="64" type="curve" smooth="yes"/>
      <point x="206" y="64"/>
      <point x="152" y="119"/>
      <point x="152" y="203" type="curve" smooth="yes"/>
      <point x="152" y="319"/>
      <point x="223" y="402"/>
      <point x="331" y="402" type="curve" smooth="yes"/>
      <point x="384" y="402"/>
      <point x="425" y="387"/>
      <point x="471" y="357" type="curve"/>
      <point x="482" y="437" type="line"/>
      <point x="436" y="462"/>
      <point x="392" y="476"/>
      <point x="338" y="476" type="curve" smooth="yes"/>
      <point x="179" y="476"/>
      <point x="71" y="360"/>
      <point x="71" y="196" type="curve" smooth="yes"/>
      <point x="71" y="74"/>
      <point x="154" y="-10"/>
    </contour>
  </outline>
</glyph>
<glyph name="d" format="2">
  <advance width="521"/>
  <unicode hex="0064"/>
  <anchor x="675" y="704" name="caron.vert"/>
  <outline>
    <contour>
      <point x="233" y="-10" type="curve" smooth="yes"/>
      <point x="293" y="-10"/>
      <point x="356" y="20"/>
      <point x="391" y="107" type="curve"/>
      <point x="388" y="79" type="line" smooth="yes"/>
      <point x="386" y="51"/>
      <point x="384" y="24"/>
      <point x="384" y="0" type="curve"/>
      <point x="466" y="0" type="line"/>
      <point x="466" y="46"/>
      <point x="470" y="87"/>
      <point x="476" y="132" type="curve" smooth="yes"/>
      <point x="558" y="720" type="line"/>
      <point x="476" y="720" type="line"/>
      <point x="439" y="457" type="line"/>
      <point x="409" y="470"/>
      <point x="378" y="476"/>
      <point x="349" y="476" type="curve" smooth="yes"/>
      <point x="193" y="476"/>
      <point x="68" y="347"/>
      <point x="68" y="178" type="curve" smooth="yes"/>
      <point x="68" y="63"/>
      <point x="138" y="-10"/>
    </contour>
    <contour>
      <point x="254" y="63" type="curve" smooth="yes"/>
      <point x="196" y="63"/>
      <point x="149" y="105"/>
      <point x="149" y="187" type="curve" smooth="yes"/>
      <point x="149" y="307"/>
      <point x="238" y="404"/>
      <point x="338" y="404" type="curve" smooth="yes"/>
      <point x="372" y="404"/>
      <point x="403" y="396"/>
      <point x="429" y="381" type="curve"/>
      <point x="420" y="316" type="line" smooth="yes"/>
      <point x="389" y="107"/>
      <point x="316" y="63"/>
    </contour>
  </outline>
</glyph>
<glyph name="e" format="2">
  <advance width="479"/>
  <unicode hex="0065"/>
  <anchor x="302" y="450" name="top"/>
  <outline>
    <contour>
      <point x="282" y="-10" type="curve" smooth="yes"/>
      <point x="339" y="-10"/>
      <point x="389" y="4"/>
      <point x="438" y="35" type="curve"/>
      <point x="450" y="119" type="line"/>
      <point x="400" y="79"/>
      <point x="349" y="61"/>
      <point x="290" y="61" type="curve" smooth="yes"/>
      <point x="199" y="61"/>
      <point x="149" y="116"/>
      <point x="153" y="211" type="curve" smooth="yes"/>
      <point x="157" y="237" type="line" smooth="yes"/>
      <point x="161" y="331"/>
      <point x="226" y="406"/>
      <point x="311" y="406" type="curve" smooth="yes"/>
      <point x="359" y="406"/>
      <point x="389" y="384"/>
      <point x="389" y="348" type="curve" smooth="yes"/>
      <point x="389" y="293"/>
      <point x="340" y="266"/>
      <point x="227" y="259" type="curve" smooth="yes"/>
      <point x="143" y="253" type="line"/>
      <point x="137" y="193" type="line"/>
      <point x="221" y="198" type="line" smooth="yes"/>
      <point x="399" y="208"/>
      <point x="473" y="254"/>
      <point x="473" y="351" type="curve" smooth="yes"/>
      <point x="473" y="425"/>
      <point x="411" y="476"/>
      <point x="319" y="476" type="curve" smooth="yes"/>
      <point x="177" y="476"/>
      <point x="71" y="359"/>
      <point x="71" y="203" type="curve" smooth="yes"/>
      <point x="71" y="75"/>
      <point x="147" y="-10"/>
    </contour>
  </outline>
</glyph>
<glyph name="f" format="2">
  <advance width="270"/>
  <unicode hex="0066"/>
  <outline>
    <contour>
      <point x="88" y="0" type="line"/>
      <point x="169" y="0" type="line"/>
      <point x="224" y="393" type="line"/>
      <point x="308" y="393" type="line"/>
      <point x="318" y="466" type="line"/>
      <point x="234" y="466" type="line"/>
      <point x="246" y="549" type="line" smooth="yes"/>
      <point x="255" y="615"/>
      <point x="294" y="655"/>
      <point x="354" y="655" type="curve" smooth="yes"/>
      <point x="386" y="655"/>
      <point x="420" y="643"/>
      <point x="448" y="626" type="curve"/>
      <point x="459" y="704" type="line"/>
      <point x="428" y="720"/>
      <point x="386" y="730"/>
      <point x="352" y="730" type="curve" smooth="yes"/>
      <point x="251" y="730"/>
      <point x="180" y="659"/>
      <point x="165" y="550" type="curve" smooth="yes"/>
      <point x="153" y="466" type="line"/>
      <point x="83" y="466" type="line"/>
      <point x="73" y="393" type="line"/>
      <point x="143" y="393" type="line"/>
    </contour>
  </outline>
</glyph>
<glyph name="g" format="2">
  <advance width="515"/>
  <unicode hex="0067"/>
  <anchor x="331" y="450" name="top"/>
  <outline>
    <contour>
      <point x="213" y="-224" type="curve" smooth="yes"/>
      <point x="350" y="-224"/>
      <point x="437" y="-154"/>
      <point x="461" y="15" type="curve" smooth="yes"/>
      <point x="522" y="447" type="line"/>
      <point x="470" y="466"/>
      <point x="409" y="476"/>
      <point x="358" y="476" type="curve" smooth="yes"/>
      <point x="196" y="476"/>
      <point x="70" y="346"/>
      <point x="70" y="178" type="curve" smooth="yes"/>
      <point x="70" y="63"/>
      <point x="140" y="-10"/>
      <point x="235" y="-10" type="curve" smooth="yes"/>
      <point x="295" y="-10"/>
      <point x="357" y="19"/>
      <point x="392" y="107" type="curve"/>
      <point x="378" y="6" type="line" smooth="yes"/>
      <point x="362" y="-109"/>
      <point x="300" y="-151"/>
      <point x="212" y="-151" type="curve" smooth="yes"/>
      <point x="159" y="-151"/>
      <point x="101" y="-135"/>
      <point x="56" y="-107" type="curve"/>
      <point x="44" y="-187" type="line"/>
      <point x="97" y="-211"/>
      <point x="154" y="-224"/>
    </contour>
    <contour>
      <point x="256" y="63" type="curve" smooth="yes"/>
      <point x="198" y="63"/>
      <point x="151" y="105"/>
      <point x="151" y="186" type="curve" smooth="yes"/>
      <point x="151" y="306"/>
      <point x="241" y="404"/>
      <point x="348" y="404" type="curve" smooth="yes"/>
      <point x="378" y="404"/>
      <point x="407" y="401"/>
      <point x="433" y="392" type="curve"/>
      <point x="422" y="316" type="line" smooth="yes"/>
      <point x="391" y="108"/>
      <point x="318" y="63"/>
    </contour>
  </outline>
</glyph>
<glyph name="h" format="2">
  <advance width="496"/>
  <unicode hex="0068"/>
  <anchor x="192" y="661" name="top"/>
  <outline>
    <contour>
      <point x="57" y="0" type="line"/>
      <point x="140" y="0" type="line"/>
      <point x="159" y="139" type="line" smooth="yes"/>
      <point x="191" y="368"/>
      <point x="265" y="402"/>
      <point x="318" y="402" type="curve" smooth="yes"/>
      <point x="374" y="402"/>
      <point x="412" y="359"/>
      <point x="397" y="281" type="curve" smooth="yes"/>
      <point x="368" y="130" type="line" smooth="yes"/>
      <point x="360" y="87"/>
      <point x="358" y="44"/>
      <point x="358" y="0" type="curve"/>
      <point x="440" y="0" type="line"/>
      <point x="440" y="45"/>
      <point x="442" y="86"/>
      <point x="450" y="130" type="curve" smooth="yes"/>
      <point x="481" y="303" type="line" smooth="yes"/>
      <point x="501" y="409"/>
      <point x="441" y="476"/>
      <point x="350" y="476" type="curve" smooth="yes"/>
      <point x="289" y="476"/>
      <point x="224" y="442"/>
      <point x="186" y="353" type="curve"/>
      <point x="194" y="391"/>
      <point x="200" y="429"/>
      <point x="205" y="465" type="curve" smooth="yes"/>
      <point x="241" y="720" type="line"/>
      <point x="159" y="720" type="line"/>
    </contour>
  </outline>
</glyph>
<glyph name="i" format="2">
  <advance width="207"/>
  <unicode hex="0069"/>
  <anchor x="149" y="450" name="top"/>
  <anchor x="151" y="16" name="ogonek"/>
  <outline>
    <contour>
      <point x="68" y="0" type="curve"/>
      <point x="151" y="0" type="line"/>
      <point x="150" y="42"/>
      <point x="154" y="89"/>
      <point x="160" y="129" type="curve" smooth="yes"/>
      <point x="208" y="466" type="line"/>
      <point x="126" y="466" type="line"/>
      <point x="78" y="129" type="line" smooth="yes"/>
      <point x="73" y="88"/>
      <point x="68" y="43"/>
    </contour>
    <contour>
      <point x="144" y="611" type="line"/>
      <point x="229" y="611" type="line"/>
      <point x="241" y="694" type="line"/>
      <point x="155" y="694" type="line"/>
    </contour>
  </outline>
</glyph>
<glyph name="j" format="2">
  <advance width="208"/>
  <unicode hex="006A"/>
  <guideline x="128" y="413" angle="82.0" name="" identifier="yk6OMRxqcK"/>
  <anchor x="146" y="450" name="top"/>
  <outline>
    <contour>
      <point x="-53" y="-220" type="line" smooth="yes"/>
      <point x="55" y="-220"/>
      <point x="124" y="-161"/>
      <point x="141" y="-45" type="curve" smooth="yes"/>
      <point x="213" y="466" type="line"/>
      <point x="131" y="466" type="line"/>
      <point x="59" y="-45" type="line" smooth="yes"/>
      <point x="51" y="-108"/>
      <point x="13" y="-145"/>
      <point x="-43" y="-145" type="curve" smooth="yes"/>
      <point x="-51" y="-145" type="line"/>
      <point x="-61" y="-220" type="line"/>
    </contour>
    <contour>
      <point x="150" y="611" type="line"/>
      <point x="236" y="611" type="line"/>
      <point x="247" y="694" type="line"/>
      <point x="162" y="694" type="line"/>
    </contour>
  </outline>
</glyph>
<glyph name="k" format="2">
  <advance width="463"/>
  <unicode hex="006B"/>
  <anchor x="246" y="16" name="bottom"/>
  <outline>
    <contour>
      <point x="57" y="0" type="line"/>
      <point x="140" y="0" type="line"/>
      <point x="174" y="249" type="line"/>
      <point x="164" y="249" type="line"/>
      <point x="348" y="0" type="line"/>
      <point x="446" y="0" type="line"/>
      <point x="250" y="257" type="line"/>
      <point x="251" y="234" type="line"/>
      <point x="342" y="298"/>
      <point x="421" y="371"/>
      <point x="495" y="466" type="curve"/>
      <point x="400" y="466" type="line"/>
      <point x="337" y="388"/>
      <point x="259" y="322"/>
      <point x="165" y="256" type="curve"/>
      <point x="175" y="256" type="line"/>
      <point x="241" y="720" type="line"/>
      <point x="159" y="720" type="line"/>
    </contour>
  </outline>
</glyph>
<glyph name="l" format="2">
  <advance width="206"/>
  <unicode hex="006C"/>
  <anchor x="197" y="697" name="top"/>
  <anchor x="344" y="704" name="caron.vert"/>
  <anchor x="109" y="16" name="bottom"/>
  <outline>
    <contour>
      <point x="68" y="0" type="curve"/>
      <point x="150" y="0" type="line"/>
      <point x="149" y="44"/>
      <point x="153" y="88"/>
      <point x="159" y="130" type="curve" smooth="yes"/>
      <point x="242" y="720" type="line"/>
      <point x="160" y="720" type="line"/>
      <point x="76" y="134" type="line" smooth="yes"/>
      <point x="71" y="93"/>
      <point x="67" y="43"/>
    </contour>
  </outline>
</glyph>
<glyph name="m" format="2">
  <advance width="804"/>
  <unicode hex="006D"/>
  <outline>
    <contour>
      <point x="68" y="0" type="line"/>
      <point x="150" y="0" type="line"/>
      <point x="170" y="139" type="line" smooth="yes"/>
      <point x="194" y="313"/>
      <point x="245" y="401"/>
      <point x="326" y="401" type="curve" smooth="yes"/>
      <point x="384" y="401"/>
      <point x="416" y="356"/>
      <point x="406" y="281" type="curve" smooth="yes"/>
      <point x="366" y="0" type="line"/>
      <point x="448" y="0" type="line"/>
      <point x="467" y="139" type="line" smooth="yes"/>
      <point x="492" y="313"/>
      <point x="545" y="401"/>
      <point x="626" y="401" type="curve" smooth="yes"/>
      <point x="686" y="401"/>
      <point x="719" y="356"/>
      <point x="705" y="281" type="curve" smooth="yes"/>
      <point x="678" y="130" type="line" smooth="yes"/>
      <point x="670" y="85"/>
      <point x="667" y="43"/>
      <point x="667" y="0" type="curve"/>
      <point x="749" y="0" type="line"/>
      <point x="749" y="43"/>
      <point x="752" y="85"/>
      <point x="760" y="130" type="curve" smooth="yes"/>
      <point x="790" y="303" type="line" smooth="yes"/>
      <point x="809" y="410"/>
      <point x="750" y="476"/>
      <point x="658" y="476" type="curve" smooth="yes"/>
      <point x="601" y="476"/>
      <point x="519" y="447"/>
      <point x="477" y="321" type="curve"/>
      <point x="489" y="318" type="line"/>
      <point x="499" y="432"/>
      <point x="429" y="476"/>
      <point x="358" y="476" type="curve" smooth="yes"/>
      <point x="298" y="476"/>
      <point x="236" y="443"/>
      <point x="199" y="354" type="curve"/>
      <point x="203" y="385" type="line" smooth="yes"/>
      <point x="207" y="410"/>
      <point x="208" y="441"/>
      <point x="208" y="466" type="curve"/>
      <point x="126" y="466" type="line"/>
      <point x="126" y="431"/>
      <point x="124" y="393"/>
      <point x="117" y="349" type="curve" smooth="yes"/>
    </contour>
  </outline>
</glyph>
<glyph name="n" format="2">
  <advance width="501"/>
  <unicode hex="006E"/>
  <anchor x="321" y="450" name="top"/>
  <anchor x="261" y="16" name="bottom"/>
  <outline>
    <contour>
      <point x="68" y="0" type="line"/>
      <point x="150" y="0" type="line"/>
      <point x="170" y="139" type="line" smooth="yes"/>
      <point x="199" y="349"/>
      <point x="267" y="401"/>
      <point x="322" y="401" type="curve" smooth="yes"/>
      <point x="379" y="401"/>
      <point x="415" y="356"/>
      <point x="401" y="281" type="curve" smooth="yes"/>
      <point x="372" y="130" type="line" smooth="yes"/>
      <point x="364" y="87"/>
      <point x="363" y="44"/>
      <point x="363" y="0" type="curve"/>
      <point x="445" y="0" type="line"/>
      <point x="445" y="45"/>
      <point x="446" y="86"/>
      <point x="454" y="130" type="curve" smooth="yes"/>
      <point x="485" y="303" type="line" smooth="yes"/>
      <point x="504" y="405"/>
      <point x="450" y="476"/>
      <point x="354" y="476" type="curve" smooth="yes"/>
      <point x="297" y="476"/>
      <point x="236" y="443"/>
      <point x="199" y="354" type="curve"/>
      <point x="203" y="385" type="line" smooth="yes"/>
      <point x="206" y="407"/>
      <point x="208" y="441"/>
      <point x="208" y="466" type="curve"/>
      <point x="126" y="466" type="line"/>
      <point x="126" y="431"/>
      <point x="124" y="393"/>
      <point x="117" y="349" type="curve" smooth="yes"/>
    </contour>
  </outline>
</glyph>
<glyph name="o" format="2">
  <advance width="533"/>
  <unicode hex="006F"/>
  <guideline x="271" y="0" angle="2.3863606202212395e-08" name="" identifier="4bXGDtxiNW"/>
  <anchor x="323" y="454" name="top"/>
  <outline>
    <contour>
      <point x="282" y="-11" type="curve" smooth="yes"/>
      <point x="422" y="-11"/>
      <point x="528" y="109"/>
      <point x="528" y="266" type="curve" smooth="yes"/>
      <point x="528" y="397"/>
      <point x="444" y="477"/>
      <point x="317" y="477" type="curve" smooth="yes"/>
      <point x="177" y="477"/>
      <point x="71" y="357"/>
      <point x="71" y="200" type="curve" smooth="yes"/>
      <point x="71" y="68"/>
      <point x="155" y="-11"/>
    </contour>
    <contour>
      <point x="285" y="62" type="curve" smooth="yes"/>
      <point x="205" y="62"/>
      <point x="152" y="119"/>
      <point x="152" y="204" type="curve" smooth="yes"/>
      <point x="152" y="317"/>
      <point x="222" y="404"/>
      <point x="313" y="404" type="curve" smooth="yes"/>
      <point x="393" y="404"/>
      <point x="446" y="347"/>
      <point x="446" y="262" type="curve" smooth="yes"/>
      <point x="446" y="149"/>
      <point x="377" y="62"/>
    </contour>
  </outline>
</glyph>
<glyph name="p" format="2">
  <advance width="527"/>
  <unicode hex="0070"/>
  <outline>
    <contour>
      <point x="40" y="-212" type="line"/>
      <point x="122" y="-212" type="line"/>
      <point x="153" y="8" type="line"/>
      <point x="183" y="-4"/>
      <point x="214" y="-10"/>
      <point x="250" y="-10" type="curve" smooth="yes"/>
      <point x="411" y="-10"/>
      <point x="525" y="119"/>
      <point x="525" y="286" type="curve" smooth="yes"/>
      <point x="525" y="405"/>
      <point x="456" y="476"/>
      <point x="361" y="476" type="curve" smooth="yes"/>
      <point x="299" y="476"/>
      <point x="233" y="445"/>
      <point x="198" y="347" type="curve"/>
      <point x="203" y="384" type="line" smooth="yes"/>
      <point x="206" y="409"/>
      <point x="207" y="440"/>
      <point x="207" y="466" type="curve"/>
      <point x="126" y="466" type="line"/>
      <point x="126" y="428"/>
      <point x="125" y="393"/>
      <point x="118" y="347" type="curve" smooth="yes"/>
    </contour>
    <contour>
      <point x="256" y="60" type="curve" smooth="yes"/>
      <point x="222" y="60"/>
      <point x="192" y="65"/>
      <point x="164" y="78" type="curve"/>
      <point x="173" y="148" type="line" smooth="yes"/>
      <point x="204" y="376"/>
      <point x="284" y="403"/>
      <point x="340" y="403" type="curve" smooth="yes"/>
      <point x="398" y="403"/>
      <point x="443" y="360"/>
      <point x="443" y="275" type="curve" smooth="yes"/>
      <point x="443" y="158"/>
      <point x="366" y="60"/>
    </contour>
  </outline>
</glyph>
<glyph name="q" format="2">
  <advance width="512"/>
  <unicode hex="0071"/>
  <outline>
    <contour>
      <point x="345" y="-212" type="line"/>
      <point x="427" y="-212" type="line"/>
      <point x="520" y="447" type="line"/>
      <point x="467" y="465"/>
      <point x="407" y="476"/>
      <point x="356" y="476" type="curve" smooth="yes"/>
      <point x="194" y="476"/>
      <point x="68" y="345"/>
      <point x="68" y="178" type="curve" smooth="yes"/>
      <point x="68" y="62"/>
      <point x="139" y="-10"/>
      <point x="233" y="-10" type="curve" smooth="yes"/>
      <point x="293" y="-10"/>
      <point x="356" y="22"/>
      <point x="390" y="107" type="curve"/>
    </contour>
    <contour>
      <point x="254" y="63" type="curve" smooth="yes"/>
      <point x="196" y="63"/>
      <point x="149" y="105"/>
      <point x="149" y="187" type="curve" smooth="yes"/>
      <point x="149" y="307"/>
      <point x="238" y="404"/>
      <point x="346" y="404" type="curve" smooth="yes"/>
      <point x="377" y="404"/>
      <point x="401" y="401"/>
      <point x="430" y="391" type="curve"/>
      <point x="420" y="316" type="line" smooth="yes"/>
      <point x="391" y="109"/>
      <point x="316" y="63"/>
    </contour>
  </outline>
</glyph>
<glyph name="r" format="2">
  <advance width="340"/>
  <unicode hex="0072"/>
  <anchor x="246" y="450" name="top"/>
  <anchor x="112" y="16" name="bottom"/>
  <outline>
    <contour>
      <point x="68" y="0" type="line"/>
      <point x="150" y="0" type="line"/>
      <point x="170" y="139" type="line" smooth="yes"/>
      <point x="201" y="365"/>
      <point x="271" y="391"/>
      <point x="316" y="391" type="curve" smooth="yes"/>
      <point x="335" y="391"/>
      <point x="357" y="387"/>
      <point x="375" y="378" type="curve"/>
      <point x="387" y="466" type="line"/>
      <point x="370" y="473"/>
      <point x="348" y="476"/>
      <point x="333" y="476" type="curve" smooth="yes"/>
      <point x="283" y="476"/>
      <point x="233" y="444"/>
      <point x="200" y="354" type="curve"/>
      <point x="203" y="384" type="line" smooth="yes"/>
      <point x="207" y="412"/>
      <point x="208" y="442"/>
      <point x="208" y="466" type="curve"/>
      <point x="126" y="466" type="line"/>
      <point x="126" y="428"/>
      <point x="123" y="390"/>
      <point x="117" y="349" type="curve" smooth="yes"/>
    </contour>
  </outline>
</glyph>
<glyph name="s" format="2">
  <advance width="385"/>
  <unicode hex="0073"/>
  <anchor x="249" y="450" name="top"/>
  <anchor x="192" y="16" name="bottom"/>
  <outline>
    <contour>
      <point x="187" y="-10" type="curve" smooth="yes"/>
      <point x="298" y="-10"/>
      <point x="365" y="50"/>
      <point x="365" y="137" type="curve" smooth="yes"/>
      <point x="365" y="200"/>
      <point x="329" y="241"/>
      <point x="250" y="271" type="curve" smooth="yes"/>
      <point x="236" y="276" type="line" smooth="yes"/>
      <point x="189" y="294"/>
      <point x="170" y="313"/>
      <point x="170" y="345" type="curve" smooth="yes"/>
      <point x="170" y="386"/>
      <point x="206" y="408"/>
      <point x="256" y="408" type="curve" smooth="yes"/>
      <point x="295" y="408"/>
      <point x="348" y="395"/>
      <point x="380" y="374" type="curve"/>
      <point x="390" y="448" type="line"/>
      <point x="352" y="465"/>
      <point x="296" y="476"/>
      <point x="257" y="476" type="curve" smooth="yes"/>
      <point x="153" y="476"/>
      <point x="88" y="419"/>
      <point x="88" y="337" type="curve" smooth="yes"/>
      <point x="88" y="272"/>
      <point x="121" y="232"/>
      <point x="192" y="206" type="curve" smooth="yes"/>
      <point x="206" y="201" type="line" smooth="yes"/>
      <point x="259" y="180"/>
      <point x="283" y="160"/>
      <point x="283" y="126" type="curve" smooth="yes"/>
      <point x="283" y="82"/>
      <point x="244" y="58"/>
      <point x="191" y="58" type="curve" smooth="yes"/>
      <point x="146" y="57"/>
      <point x="92" y="73"/>
      <point x="57" y="98" type="curve"/>
      <point x="47" y="23" type="line"/>
      <point x="87" y="3"/>
      <point x="144" y="-10"/>
    </contour>
  </outline>
</glyph>
<glyph name="t" format="2">
  <advance width="302"/>
  <unicode hex="0074"/>
  <anchor x="193" y="12" name="bottom"/>
  <anchor x="394" y="705" name="caron.vert"/>
  <outline>
    <contour>
      <point x="196" y="-9" type="curve" smooth="yes"/>
      <point x="222" y="-9"/>
      <point x="251" y="-3"/>
      <point x="275" y="9" type="curve"/>
      <point x="285" y="84" type="line"/>
      <point x="265" y="71"/>
      <point x="245" y="65"/>
      <point x="224" y="65" type="curve" smooth="yes"/>
      <point x="192" y="65"/>
      <point x="178" y="83"/>
      <point x="183" y="123" type="curve" smooth="yes"/>
      <point x="221" y="392" type="line"/>
      <point x="329" y="392" type="line"/>
      <point x="340" y="466" type="line"/>
      <point x="232" y="466" type="line"/>
      <point x="252" y="609" type="line"/>
      <point x="170" y="609" type="line"/>
      <point x="150" y="466" type="line"/>
      <point x="81" y="466" type="line"/>
      <point x="71" y="392" type="line"/>
      <point x="139" y="392" type="line"/>
      <point x="100" y="115" type="line" smooth="yes"/>
      <point x="89" y="36"/>
      <point x="125" y="-9"/>
    </contour>
  </outline>
</glyph>
<glyph name="u" format="2">
  <advance width="503"/>
  <unicode hex="0075"/>
  <anchor x="307" y="450" name="top"/>
  <anchor x="447" y="16" name="ogonek"/>
  <outline>
    <contour>
      <point x="214" y="-11" type="curve" smooth="yes"/>
      <point x="273" y="-11"/>
      <point x="336" y="23"/>
      <point x="373" y="112" type="curve"/>
      <point x="369" y="79" type="line" smooth="yes"/>
      <point x="366" y="54"/>
      <point x="365" y="25"/>
      <point x="365" y="0" type="curve"/>
      <point x="447" y="0" type="line"/>
      <point x="447" y="37"/>
      <point x="449" y="78"/>
      <point x="455" y="120" type="curve" smooth="yes"/>
      <point x="503" y="466" type="line"/>
      <point x="421" y="466" type="line"/>
      <point x="400" y="316" type="line" smooth="yes"/>
      <point x="372" y="112"/>
      <point x="302" y="64"/>
      <point x="245" y="64" type="curve" smooth="yes"/>
      <point x="185" y="64"/>
      <point x="152" y="105"/>
      <point x="166" y="185" type="curve" smooth="yes"/>
      <point x="192" y="339" type="line" smooth="yes"/>
      <point x="199" y="383"/>
      <point x="203" y="423"/>
      <point x="203" y="466" type="curve"/>
      <point x="121" y="466" type="line"/>
      <point x="121" y="427"/>
      <point x="117" y="389"/>
      <point x="109" y="342" type="curve" smooth="yes"/>
      <point x="81" y="163" type="line" smooth="yes"/>
      <point x="63" y="56"/>
      <point x="122" y="-11"/>
    </contour>
  </outline>
</glyph>
<glyph name="v" format="2">
  <advance width="446"/>
  <unicode hex="0076"/>
  <outline>
    <contour>
      <point x="182" y="0" type="line"/>
      <point x="267" y="0" type="line"/>
      <point x="350" y="124"/>
      <point x="424" y="270"/>
      <point x="494" y="466" type="curve"/>
      <point x="411" y="466" type="line"/>
      <point x="350" y="281"/>
      <point x="281" y="142"/>
      <point x="200" y="21" type="curve"/>
      <point x="250" y="21" type="line"/>
      <point x="232" y="151" type="line"/>
      <point x="165" y="466" type="line"/>
      <point x="81" y="466" type="line"/>
    </contour>
  </outline>
</glyph>
<glyph name="w" format="2">
  <advance width="725"/>
  <unicode hex="0077"/>
  <anchor x="429" y="450" name="top"/>
  <outline>
    <contour>
      <point x="169" y="0" type="line"/>
      <point x="254" y="0" type="line"/>
      <point x="321" y="123"/>
      <point x="385" y="259"/>
      <point x="439" y="404" type="curve"/>
      <point x="413" y="404" type="line"/>
      <point x="426" y="294" type="line"/>
      <point x="481" y="0" type="line"/>
      <point x="566" y="0" type="line"/>
      <point x="649" y="144"/>
      <point x="719" y="300"/>
      <point x="773" y="466" type="curve"/>
      <point x="695" y="466" type="line"/>
      <point x="643" y="309"/>
      <point x="578" y="160"/>
      <point x="504" y="21" type="curve"/>
      <point x="550" y="21" type="line"/>
      <point x="531" y="151" type="line"/>
      <point x="471" y="466" type="line"/>
      <point x="394" y="466" type="line"/>
      <point x="333" y="300"/>
      <point x="266" y="153"/>
      <point x="196" y="21" type="curve"/>
      <point x="238" y="21" type="line"/>
      <point x="224" y="151" type="line"/>
      <point x="162" y="466" type="line"/>
      <point x="81" y="466" type="line"/>
    </contour>
  </outline>
</glyph>
<glyph name="x" format="2">
  <advance width="456"/>
  <unicode hex="0078"/>
  <outline>
    <contour>
      <point x="18" y="0" type="line"/>
      <point x="114" y="0" type="line"/>
      <point x="228" y="139" type="line"/>
      <point x="277" y="202" type="line"/>
      <point x="298" y="226" type="line"/>
      <point x="497" y="466" type="line"/>
      <point x="402" y="466" type="line"/>
      <point x="302" y="342" type="line"/>
      <point x="260" y="287" type="line"/>
      <point x="240" y="266" type="line"/>
    </contour>
    <contour>
      <point x="345" y="0" type="line"/>
      <point x="438" y="0" type="line"/>
      <point x="300" y="260" type="line"/>
      <point x="279" y="288" type="line"/>
      <point x="255" y="343" type="line"/>
      <point x="190" y="466" type="line"/>
      <point x="98" y="466" type="line"/>
      <point x="228" y="222" type="line"/>
      <point x="245" y="199" type="line"/>
      <point x="273" y="139" type="line"/>
    </contour>
  </outline>
</glyph>
<glyph name="y" format="2">
  <advance width="469"/>
  <unicode hex="0079"/>
  <anchor x="283" y="450" name="top"/>
  <outline>
    <contour>
      <point x="230" y="-28" type="line"/>
      <point x="230" y="29" type="line"/>
      <point x="175" y="-72"/>
      <point x="74" y="-137"/>
      <point x="-31" y="-137" type="curve" smooth="yes"/>
      <point x="-39" y="-137" type="line"/>
      <point x="-49" y="-212" type="line"/>
      <point x="-41" y="-212" type="line" smooth="yes"/>
      <point x="91" y="-212"/>
      <point x="202" y="-150"/>
      <point x="301" y="-6" type="curve" smooth="yes"/>
      <point x="377" y="104"/>
      <point x="444" y="259"/>
      <point x="507" y="466" type="curve"/>
      <point x="423" y="466" type="line"/>
      <point x="372" y="287"/>
      <point x="314" y="143"/>
      <point x="246" y="31" type="curve"/>
      <point x="264" y="31" type="line"/>
      <point x="242" y="152" type="line"/>
      <point x="166" y="466" type="line"/>
      <point x="77" y="466" type="line"/>
      <point x="201" y="-28" type="line"/>
    </contour>
  </outline>
</glyph>
<glyph name="z" format="2">
  <advance width="435"/>
  <unicode hex="007A"/>
  <anchor x="271" y="450" name="top"/>
  <outline>
    <contour>
      <point x="40" y="0" type="line"/>
      <point x="395" y="0" type="line"/>
      <point x="406" y="74" type="line"/>
      <point x="82" y="74" type="line"/>
      <point x="131" y="40" type="line"/>
      <point x="196" y="111" type="line"/>
      <point x="448" y="409" type="line"/>
      <point x="456" y="466" type="line"/>
      <point x="110" y="466" type="line"/>
      <point x="100" y="392" type="line"/>
      <point x="414" y="392" type="line"/>
      <point x="392" y="456" type="line"/>
      <point x="300" y="355" type="line"/>
      <point x="48" y="56" type="line"/>
    </contour>
  </outline>
</glyph>
<glyph name="braceleft" format="2">
  <advance width="457"/>
  <unicode hex="007B"/>
  <outline>
    <contour>
      <point x="362" y="-220" type="curve" smooth="yes"/>
      <point x="386" y="-220" type="line"/>
      <point x="396" y="-148" type="line"/>
      <point x="372" y="-148" type="line" smooth="yes"/>
      <point x="280" y="-148"/>
      <point x="240" y="-104"/>
      <point x="260" y="-14" type="curve" smooth="yes"/>
      <point x="281" y="88" type="line" smooth="yes"/>
      <point x="299" y="173"/>
      <point x="259" y="226"/>
      <point x="184" y="250" type="curve"/>
      <point x="184" y="251" type="line"/>
      <point x="265" y="272"/>
      <point x="321" y="323"/>
      <point x="326" y="412" type="curve" smooth="yes"/>
      <point x="332" y="514" type="line" smooth="yes"/>
      <point x="337" y="605"/>
      <point x="389" y="648"/>
      <point x="480" y="648" type="curve" smooth="yes"/>
      <point x="504" y="648" type="line"/>
      <point x="515" y="720" type="line"/>
      <point x="491" y="720" type="line" smooth="yes"/>
      <point x="346" y="720"/>
      <point x="259" y="657"/>
      <point x="251" y="525" type="curve" smooth="yes"/>
      <point x="244" y="412" type="line" smooth="yes"/>
      <point x="239" y="341"/>
      <point x="187" y="301"/>
      <point x="98" y="287" type="curve"/>
      <point x="88" y="213" type="line"/>
      <point x="173" y="199"/>
      <point x="213" y="160"/>
      <point x="199" y="88" type="curve" smooth="yes"/>
      <point x="176" y="-25" type="line" smooth="yes"/>
      <point x="148" y="-157"/>
      <point x="217" y="-220"/>
    </contour>
  </outline>
</glyph>
<glyph name="bar" format="2">
  <advance width="207"/>
  <unicode hex="007C"/>
  <outline>
    <contour>
      <point x="37" y="-215" type="line"/>
      <point x="108" y="-215" type="line"/>
      <point x="240" y="720" type="line"/>
      <point x="169" y="720" type="line"/>
    </contour>
  </outline>
</glyph>
<glyph name="braceright" format="2">
  <advance width="457"/>
  <unicode hex="007D"/>
  <outline>
    <contour>
      <point x="12" y="-220" type="line"/>
      <point x="36" y="-220" type="line" smooth="yes"/>
      <point x="181" y="-220"/>
      <point x="268" y="-157"/>
      <point x="276" y="-25" type="curve" smooth="yes"/>
      <point x="283" y="88" type="line" smooth="yes"/>
      <point x="288" y="160"/>
      <point x="340" y="199"/>
      <point x="429" y="213" type="curve"/>
      <point x="439" y="287" type="line"/>
      <point x="354" y="301"/>
      <point x="313" y="341"/>
      <point x="328" y="412" type="curve" smooth="yes"/>
      <point x="352" y="525" type="line" smooth="yes"/>
      <point x="379" y="657"/>
      <point x="310" y="720"/>
      <point x="165" y="720" type="curve" smooth="yes"/>
      <point x="142" y="720" type="line"/>
      <point x="131" y="648" type="line"/>
      <point x="156" y="648" type="line" smooth="yes"/>
      <point x="247" y="648"/>
      <point x="287" y="605"/>
      <point x="268" y="514" type="curve" smooth="yes"/>
      <point x="246" y="412" type="line" smooth="yes"/>
      <point x="228" y="331"/>
      <point x="268" y="274"/>
      <point x="342" y="251" type="curve"/>
      <point x="342" y="250" type="line"/>
      <point x="259" y="227"/>
      <point x="205" y="171"/>
      <point x="201" y="88" type="curve" smooth="yes"/>
      <point x="195" y="-14" type="line" smooth="yes"/>
      <point x="190" y="-104"/>
      <point x="138" y="-148"/>
      <point x="47" y="-148" type="curve" smooth="yes"/>
      <point x="23" y="-148" type="line"/>
    </contour>
  </outline>
</glyph>
<glyph name="exclamdown" format="2">
  <advance width="221"/>
  <unicode hex="00A1"/>
  <outline>
    <contour>
      <point x="37" y="-241" type="line"/>
      <point x="116" y="-241" type="line"/>
      <point x="188" y="277" type="line"/>
      <point x="109" y="277" type="line"/>
    </contour>
    <contour>
      <point x="122" y="382" type="line"/>
      <point x="206" y="382" type="line"/>
      <point x="218" y="466" type="line"/>
      <point x="134" y="466" type="line"/>
    </contour>
  </outline>
</glyph>
<glyph name="cent" format="2">
  <advance width="464"/>
  <unicode hex="00A2"/>
  <outline>
    <contour>
      <point x="213" y="-109" type="line"/>
      <point x="282" y="-109" type="line"/>
      <point x="379" y="575" type="line"/>
      <point x="310" y="575" type="line"/>
    </contour>
    <component base="c"/>
  </outline>
</glyph>
<glyph name="sterling" format="2">
  <advance width="524"/>
  <unicode hex="00A3"/>
  <outline>
    <contour>
      <point x="59" y="0" type="line"/>
      <point x="469" y="0" type="line"/>
      <point x="481" y="80" type="line"/>
      <point x="95" y="80" type="line"/>
      <point x="135" y="56" type="line"/>
      <point x="234" y="110"/>
      <point x="275" y="202"/>
      <point x="266" y="309" type="curve" smooth="yes"/>
      <point x="258" y="406" type="line" smooth="yes"/>
      <point x="249" y="530"/>
      <point x="305" y="599"/>
      <point x="404" y="599" type="curve" smooth="yes"/>
      <point x="458" y="599"/>
      <point x="510" y="584"/>
      <point x="554" y="550" type="curve"/>
      <point x="566" y="632" type="line"/>
      <point x="519" y="658"/>
      <point x="464" y="673"/>
      <point x="404" y="673" type="curve" smooth="yes"/>
      <point x="240" y="673"/>
      <point x="163" y="569"/>
      <point x="176" y="403" type="curve" smooth="yes"/>
      <point x="184" y="306" type="line" smooth="yes"/>
      <point x="192" y="201"/>
      <point x="147" y="123"/>
      <point x="71" y="80" type="curve"/>
    </contour>
    <contour>
      <point x="92" y="298" type="line"/>
      <point x="410" y="298" type="line"/>
      <point x="420" y="373" type="line"/>
      <point x="102" y="373" type="line"/>
    </contour>
  </outline>
</glyph>
<glyph name="currency" format="2">
  <advance width="627"/>
  <unicode hex="00A4"/>
  <outline>
    <contour>
      <point x="118" y="36" type="line"/>
      <point x="244" y="146" type="line"/>
      <point x="270" y="127"/>
      <point x="303" y="115"/>
      <point x="341" y="115" type="curve" smooth="yes"/>
      <point x="374" y="115"/>
      <point x="405" y="123"/>
      <point x="431" y="138" type="curve"/>
      <point x="519" y="36" type="line"/>
      <point x="593" y="101" type="line"/>
      <point x="508" y="200" type="line"/>
      <point x="532" y="233"/>
      <point x="547" y="276"/>
      <point x="547" y="326" type="curve" smooth="yes"/>
      <point x="547" y="352"/>
      <point x="540" y="375"/>
      <point x="529" y="395" type="curve"/>
      <point x="654" y="505" type="line"/>
      <point x="598" y="570" type="line"/>
      <point x="472" y="461" type="line"/>
      <point x="446" y="479"/>
      <point x="413" y="491"/>
      <point x="375" y="491" type="curve" smooth="yes"/>
      <point x="340" y="491"/>
      <point x="307" y="482"/>
      <point x="279" y="467" type="curve"/>
      <point x="190" y="571" type="line"/>
      <point x="116" y="506" type="line"/>
      <point x="206" y="402" type="line"/>
      <point x="182" y="370"/>
      <point x="168" y="328"/>
      <point x="168" y="280" type="curve" smooth="yes"/>
      <point x="168" y="254"/>
      <point x="174" y="230"/>
      <point x="185" y="210" type="curve"/>
      <point x="62" y="102" type="line"/>
    </contour>
    <contour>
      <point x="349" y="189" type="curve" smooth="yes"/>
      <point x="288" y="189"/>
      <point x="244" y="234"/>
      <point x="244" y="291" type="curve" smooth="yes"/>
      <point x="244" y="360"/>
      <point x="294" y="416"/>
      <point x="366" y="416" type="curve" smooth="yes"/>
      <point x="427" y="416"/>
      <point x="471" y="371"/>
      <point x="471" y="315" type="curve" smooth="yes"/>
      <point x="471" y="245"/>
      <point x="420" y="189"/>
    </contour>
  </outline>
</glyph>
<glyph name="yen" format="2">
  <advance width="590"/>
  <unicode hex="00A5"/>
  <outline>
    <contour>
      <point x="167" y="121" type="line"/>
      <point x="457" y="121" type="line"/>
      <point x="465" y="180" type="line"/>
      <point x="175" y="180" type="line"/>
    </contour>
    <contour>
      <point x="183" y="238" type="line"/>
      <point x="473" y="238" type="line"/>
      <point x="482" y="297" type="line"/>
      <point x="191" y="297" type="line"/>
    </contour>
    <component base="Y"/>
  </outline>
</glyph>
<glyph name="brokenbar" format="2">
  <advance width="207"/>
  <unicode hex="00A6"/>
  <outline>
    <contour>
      <point x="112" y="312" type="line"/>
      <point x="183" y="312" type="line"/>
      <point x="240" y="720" type="line"/>
      <point x="169" y="720" type="line"/>
    </contour>
    <contour>
      <point x="38" y="-215" type="line"/>
      <point x="109" y="-215" type="line"/>
      <point x="166" y="193" type="line"/>
      <point x="95" y="193" type="line"/>
    </contour>
  </outline>
</glyph>
<glyph name="section" format="2">
  <advance width="412"/>
  <unicode hex="00A7"/>
  <outline>
    <contour>
      <point x="199" y="-12" type="curve" smooth="yes"/>
      <point x="315" y="-12"/>
      <point x="378" y="50"/>
      <point x="378" y="143" type="curve" smooth="yes"/>
      <point x="378" y="201"/>
      <point x="339" y="246"/>
      <point x="261" y="272" type="curve" smooth="yes"/>
      <point x="248" y="276" type="line" smooth="yes"/>
      <point x="201" y="292"/>
      <point x="182" y="313"/>
      <point x="182" y="341" type="curve" smooth="yes"/>
      <point x="182" y="376"/>
      <point x="205" y="411"/>
      <point x="247" y="418" type="curve"/>
      <point x="216" y="458" type="line"/>
      <point x="141" y="443"/>
      <point x="100" y="386"/>
      <point x="100" y="328" type="curve" smooth="yes"/>
      <point x="100" y="266"/>
      <point x="139" y="234"/>
      <point x="203" y="212" type="curve" smooth="yes"/>
      <point x="217" y="207" type="line" smooth="yes"/>
      <point x="273" y="188"/>
      <point x="297" y="164"/>
      <point x="297" y="130" type="curve" smooth="yes"/>
      <point x="297" y="80"/>
      <point x="261" y="52"/>
      <point x="200" y="52" type="curve" smooth="yes"/>
      <point x="149" y="52"/>
      <point x="109" y="66"/>
      <point x="70" y="95" type="curve"/>
      <point x="60" y="23" type="line"/>
      <point x="102" y="0"/>
      <point x="146" y="-12"/>
    </contour>
    <contour>
      <point x="406" y="340" type="curve" smooth="yes"/>
      <point x="406" y="402"/>
      <point x="364" y="439"/>
      <point x="290" y="465" type="curve" smooth="yes"/>
      <point x="277" y="469" type="line" smooth="yes"/>
      <point x="229" y="487"/>
      <point x="209" y="507"/>
      <point x="209" y="535" type="curve" smooth="yes"/>
      <point x="209" y="580"/>
      <point x="241" y="607"/>
      <point x="297" y="607" type="curve" smooth="yes"/>
      <point x="343" y="607"/>
      <point x="383" y="595"/>
      <point x="419" y="570" type="curve"/>
      <point x="429" y="640" type="line"/>
      <point x="389" y="661"/>
      <point x="345" y="670"/>
      <point x="296" y="670" type="curve" smooth="yes"/>
      <point x="188" y="670"/>
      <point x="128" y="612"/>
      <point x="128" y="525" type="curve" smooth="yes"/>
      <point x="128" y="469"/>
      <point x="163" y="427"/>
      <point x="232" y="405" type="curve" smooth="yes"/>
      <point x="246" y="400" type="line" smooth="yes"/>
      <point x="301" y="381"/>
      <point x="324" y="358"/>
      <point x="324" y="325" type="curve" smooth="yes"/>
      <point x="324" y="287"/>
      <point x="304" y="259"/>
      <point x="258" y="250" type="curve"/>
      <point x="288" y="206" type="line"/>
      <point x="367" y="225"/>
      <point x="406" y="277"/>
    </contour>
  </outline>
</glyph>
<glyph name="copyright" format="2">
  <advance width="675"/>
  <unicode hex="00A9"/>
  <outline>
    <contour>
      <point x="370" y="107" type="curve" smooth="yes"/>
      <point x="555" y="107"/>
      <point x="686" y="253"/>
      <point x="686" y="434" type="curve" smooth="yes"/>
      <point x="686" y="586"/>
      <point x="572" y="699"/>
      <point x="419" y="699" type="curve" smooth="yes"/>
      <point x="233" y="699"/>
      <point x="102" y="554"/>
      <point x="102" y="373" type="curve" smooth="yes"/>
      <point x="102" y="221"/>
      <point x="216" y="107"/>
    </contour>
    <contour>
      <point x="371" y="155" type="curve" smooth="yes"/>
      <point x="249" y="155"/>
      <point x="152" y="249"/>
      <point x="152" y="374" type="curve" smooth="yes"/>
      <point x="152" y="536"/>
      <point x="271" y="651"/>
      <point x="418" y="651" type="curve" smooth="yes"/>
      <point x="539" y="651"/>
      <point x="636" y="558"/>
      <point x="636" y="431" type="curve" smooth="yes"/>
      <point x="636" y="270"/>
      <point x="517" y="155"/>
    </contour>
    <contour>
      <point x="386" y="227" type="curve" smooth="yes"/>
      <point x="417" y="227"/>
      <point x="456" y="238"/>
      <point x="488" y="256" type="curve"/>
      <point x="496" y="311" type="line"/>
      <point x="465" y="290"/>
      <point x="426" y="278"/>
      <point x="390" y="278" type="curve" smooth="yes"/>
      <point x="329" y="278"/>
      <point x="288" y="324"/>
      <point x="288" y="383" type="curve" smooth="yes"/>
      <point x="288" y="470"/>
      <point x="340" y="529"/>
      <point x="424" y="529" type="curve" smooth="yes"/>
      <point x="458" y="529"/>
      <point x="493" y="518"/>
      <point x="520" y="498" type="curve"/>
      <point x="528" y="553" type="line"/>
      <point x="500" y="571"/>
      <point x="464" y="580"/>
      <point x="428" y="580" type="curve" smooth="yes"/>
      <point x="314" y="580"/>
      <point x="232" y="495"/>
      <point x="232" y="379" type="curve" smooth="yes"/>
      <point x="232" y="292"/>
      <point x="294" y="227"/>
    </contour>
  </outline>
</glyph>
<glyph name="ordfeminine" format="2">
  <advance width="442"/>
  <unicode hex="00AA"/>
  <outline>
    <contour>
      <point x="98" y="233" type="line"/>
      <point x="415" y="233" type="line"/>
      <point x="424" y="299" type="line"/>
      <point x="107" y="299" type="line"/>
    </contour>
    <component base="a.sinf" xOffset="103" yOffset="536"/>
  </outline>
</glyph>
<glyph name="guillemotleft" format="2">
  <advance width="508"/>
  <unicode hex="00AB"/>
  <outline>
    <contour>
      <point x="384" y="67" type="line"/>
      <point x="478" y="67" type="line"/>
      <point x="350" y="226" type="line" smooth="yes"/>
      <point x="522" y="386" type="line"/>
      <point x="428" y="386" type="line"/>
      <point x="255" y="226" type="line"/>
    </contour>
    <contour>
      <point x="201" y="67" type="line"/>
      <point x="295" y="67" type="line"/>
      <point x="167" y="226" type="line" smooth="yes"/>
      <point x="339" y="386" type="line"/>
      <point x="245" y="386" type="line"/>
      <point x="72" y="226" type="line"/>
    </contour>
  </outline>
</glyph>
<glyph name="logicalnot" format="2">
  <advance width="425"/>
  <unicode hex="00AC"/>
  <outline>
    <contour>
      <point x="340" y="156" type="line"/>
      <point x="406" y="156" type="line"/>
      <point x="430" y="329" type="line"/>
      <point x="82" y="329" type="line"/>
      <point x="72" y="257" type="line"/>
      <point x="354" y="257" type="line"/>
    </contour>
  </outline>
</glyph>
<glyph name="registered" format="2">
  <advance width="675"/>
  <unicode hex="00AE"/>
  <outline>
    <contour>
      <point x="370" y="107" type="curve" smooth="yes"/>
      <point x="555" y="107"/>
      <point x="686" y="253"/>
      <point x="686" y="434" type="curve" smooth="yes"/>
      <point x="686" y="586"/>
      <point x="572" y="699"/>
      <point x="419" y="699" type="curve" smooth="yes"/>
      <point x="233" y="699"/>
      <point x="102" y="554"/>
      <point x="102" y="373" type="curve" smooth="yes"/>
      <point x="102" y="221"/>
      <point x="216" y="107"/>
    </contour>
    <contour>
      <point x="371" y="155" type="curve" smooth="yes"/>
      <point x="249" y="155"/>
      <point x="152" y="249"/>
      <point x="152" y="374" type="curve" smooth="yes"/>
      <point x="152" y="536"/>
      <point x="271" y="651"/>
      <point x="418" y="651" type="curve" smooth="yes"/>
      <point x="539" y="651"/>
      <point x="636" y="558"/>
      <point x="636" y="431" type="curve" smooth="yes"/>
      <point x="636" y="270"/>
      <point x="517" y="155"/>
    </contour>
    <contour>
      <point x="269" y="233" type="line"/>
      <point x="324" y="233" type="line"/>
      <point x="344" y="379" type="line"/>
      <point x="367" y="379" type="line" smooth="yes"/>
      <point x="392" y="379"/>
      <point x="410" y="362"/>
      <point x="419" y="333" type="curve" smooth="yes"/>
      <point x="453" y="233" type="line"/>
      <point x="512" y="233" type="line"/>
      <point x="471" y="353" type="line" smooth="yes"/>
      <point x="463" y="377"/>
      <point x="447" y="395"/>
      <point x="424" y="401" type="curve"/>
      <point x="473" y="405"/>
      <point x="512" y="447"/>
      <point x="512" y="494" type="curve" smooth="yes"/>
      <point x="512" y="545"/>
      <point x="474" y="576"/>
      <point x="411" y="576" type="curve" smooth="yes"/>
      <point x="318" y="576" type="line"/>
    </contour>
    <contour>
      <point x="351" y="426" type="line"/>
      <point x="365" y="529" type="line"/>
      <point x="403" y="529" type="line" smooth="yes"/>
      <point x="436" y="529"/>
      <point x="456" y="510"/>
      <point x="456" y="484" type="curve" smooth="yes"/>
      <point x="456" y="450"/>
      <point x="431" y="426"/>
      <point x="388" y="426" type="curve" smooth="yes"/>
    </contour>
  </outline>
</glyph>
<glyph name="degree" format="2">
  <advance width="351"/>
  <unicode hex="00B0"/>
  <outline>
    <contour>
      <point x="248" y="473" type="curve" smooth="yes"/>
      <point x="324" y="473"/>
      <point x="388" y="532"/>
      <point x="388" y="615" type="curve" smooth="yes"/>
      <point x="388" y="677"/>
      <point x="344" y="729"/>
      <point x="272" y="729" type="curve" smooth="yes"/>
      <point x="196" y="729"/>
      <point x="133" y="671"/>
      <point x="133" y="587" type="curve" smooth="yes"/>
      <point x="133" y="525"/>
      <point x="176" y="473"/>
    </contour>
    <contour>
      <point x="252" y="529" type="curve" smooth="yes"/>
      <point x="216" y="529"/>
      <point x="190" y="555"/>
      <point x="190" y="593" type="curve" smooth="yes"/>
      <point x="190" y="637"/>
      <point x="223" y="673"/>
      <point x="268" y="673" type="curve" smooth="yes"/>
      <point x="303" y="673"/>
      <point x="330" y="647"/>
      <point x="330" y="609" type="curve" smooth="yes"/>
      <point x="330" y="566"/>
      <point x="296" y="529"/>
    </contour>
  </outline>
</glyph>
<glyph name="plusminus" format="2">
  <advance width="555"/>
  <unicode hex="00B1"/>
  <outline>
    <contour>
      <point x="50" y="-72" type="line"/>
      <point x="480" y="-72" type="line"/>
      <point x="489" y="0" type="line"/>
      <point x="60" y="0" type="line"/>
    </contour>
    <component base="plus" xOffset="15"/>
  </outline>
</glyph>
<glyph name="paragraph" format="2">
  <advance width="451"/>
  <unicode hex="00B6"/>
  <outline>
    <contour>
      <point x="135" y="0" type="line"/>
      <point x="215" y="0" type="line"/>
      <point x="297" y="586" type="line"/>
      <point x="383" y="586" type="line"/>
      <point x="300" y="0" type="line"/>
      <point x="381" y="0" type="line"/>
      <point x="473" y="658" type="line"/>
      <point x="236" y="658" type="line" smooth="yes"/>
      <point x="155" y="658"/>
      <point x="104" y="608"/>
      <point x="104" y="543" type="curve" smooth="yes"/>
      <point x="104" y="491"/>
      <point x="141" y="455"/>
      <point x="198" y="455" type="curve"/>
    </contour>
  </outline>
</glyph>
<glyph name="ordmasculine" format="2">
  <advance width="465"/>
  <unicode hex="00BA"/>
  <outline>
    <contour>
      <point x="97" y="233" type="line"/>
      <point x="422" y="233" type="line"/>
      <point x="431" y="299" type="line"/>
      <point x="105" y="299" type="line"/>
    </contour>
    <component base="o.sinf" xOffset="103" yOffset="537"/>
  </outline>
</glyph>
<glyph name="guillemotright" format="2">
  <advance width="509"/>
  <unicode hex="00BB"/>
  <outline>
    <contour>
      <point x="51" y="67" type="line"/>
      <point x="145" y="67" type="line"/>
      <point x="318" y="226" type="line"/>
      <point x="188" y="386" type="line"/>
      <point x="94" y="386" type="line"/>
      <point x="223" y="226" type="line" smooth="yes"/>
    </contour>
    <contour>
      <point x="234" y="67" type="line"/>
      <point x="328" y="67" type="line"/>
      <point x="501" y="226" type="line"/>
      <point x="371" y="386" type="line"/>
      <point x="277" y="386" type="line"/>
      <point x="406" y="226" type="line" smooth="yes"/>
    </contour>
  </outline>
</glyph>
<glyph name="questiondown" format="2">
  <advance width="441"/>
  <unicode hex="00BF"/>
  <outline>
    <contour>
      <point x="255" y="382" type="line"/>
      <point x="339" y="382" type="line"/>
      <point x="351" y="466" type="line"/>
      <point x="267" y="466" type="line"/>
    </contour>
    <contour>
      <point x="205" y="-239" type="curve" smooth="yes"/>
      <point x="264" y="-239"/>
      <point x="326" y="-225"/>
      <point x="373" y="-202" type="curve"/>
      <point x="385" y="-117" type="line"/>
      <point x="339" y="-148"/>
      <point x="281" y="-165"/>
      <point x="227" y="-165" type="curve" smooth="yes"/>
      <point x="154" y="-165"/>
      <point x="114" y="-129"/>
      <point x="114" y="-77" type="curve" smooth="yes"/>
      <point x="114" y="-29"/>
      <point x="139" y="9"/>
      <point x="203" y="68" type="curve" smooth="yes"/>
      <point x="277" y="133"/>
      <point x="308" y="189"/>
      <point x="321" y="277" type="curve"/>
      <point x="244" y="277" type="line"/>
      <point x="234" y="207"/>
      <point x="206" y="159"/>
      <point x="141" y="100" type="curve" smooth="yes"/>
      <point x="68" y="34"/>
      <point x="28" y="-24"/>
      <point x="28" y="-91" type="curve" smooth="yes"/>
      <point x="28" y="-181"/>
      <point x="96" y="-239"/>
    </contour>
  </outline>
</glyph>
<glyph name="AE" format="2">
  <advance width="840"/>
  <unicode hex="00C6"/>
  <anchor x="589" y="642" name="top"/>
  <outline>
    <contour>
      <point x="8" y="0" type="line"/>
      <point x="99" y="0" type="line"/>
      <point x="238" y="204" type="line"/>
      <point x="215" y="204" type="line"/>
      <point x="459" y="204" type="line"/>
      <point x="438" y="204" type="line"/>
      <point x="410" y="0" type="line"/>
      <point x="783" y="0" type="line"/>
      <point x="794" y="79" type="line"/>
      <point x="505" y="79" type="line"/>
      <point x="535" y="294" type="line"/>
      <point x="801" y="294" type="line"/>
      <point x="812" y="373" type="line"/>
      <point x="546" y="373" type="line"/>
      <point x="575" y="579" type="line"/>
      <point x="849" y="579" type="line"/>
      <point x="860" y="658" type="line"/>
      <point x="452" y="658" type="line"/>
    </contour>
    <contour>
      <point x="289" y="282" type="line"/>
      <point x="444" y="507" type="line"/>
      <point x="511" y="612" type="line"/>
      <point x="495" y="612" type="line"/>
      <point x="449" y="282" type="line"/>
      <point x="472" y="282" type="line"/>
      <point x="264" y="282" type="line"/>
    </contour>
  </outline>
</glyph>
<glyph name="Eth" format="2">
  <advance width="706"/>
  <unicode hex="00D0"/>
  <anchor x="371" y="642" name="top"/>
  <outline>
    <contour>
      <point x="69" y="293" type="line"/>
      <point x="328" y="293" type="line"/>
      <point x="338" y="366" type="line"/>
      <point x="79" y="366" type="line"/>
    </contour>
    <component base="D" xOffset="10"/>
  </outline>
</glyph>
<glyph name="multiply" format="2">
  <advance width="512"/>
  <unicode hex="00D7"/>
  <outline>
    <contour>
      <point x="140" y="95" type="line"/>
      <point x="293" y="228" type="line"/>
      <point x="410" y="92" type="line"/>
      <point x="468" y="143" type="line"/>
      <point x="351" y="280" type="line"/>
      <point x="509" y="418" type="line"/>
      <point x="458" y="476" type="line"/>
      <point x="300" y="338" type="line"/>
      <point x="178" y="479" type="line"/>
      <point x="120" y="428" type="line"/>
      <point x="241" y="287" type="line"/>
      <point x="89" y="153" type="line"/>
    </contour>
  </outline>
</glyph>
<glyph name="Oslash" format="2">
  <advance width="772"/>
  <unicode hex="00D8"/>
  <anchor x="467" y="654" name="top"/>
  <outline>
    <contour>
      <point x="138" y="-48" type="line"/>
      <point x="224" y="-48" type="line"/>
      <point x="727" y="706" type="line"/>
      <point x="641" y="706" type="line"/>
    </contour>
    <component base="O" yOffset="1"/>
  </outline>
</glyph>
<glyph name="Thorn" format="2">
  <advance width="493"/>
  <unicode hex="00DE"/>
  <outline>
    <contour>
      <point x="72" y="0" type="line"/>
      <point x="156" y="0" type="line"/>
      <point x="174" y="125" type="line"/>
      <point x="237" y="125" type="line" smooth="yes"/>
      <point x="391" y="125"/>
      <point x="497" y="222"/>
      <point x="497" y="364" type="curve" smooth="yes"/>
      <point x="497" y="475"/>
      <point x="414" y="543"/>
      <point x="282" y="543" type="curve" smooth="yes"/>
      <point x="233" y="543" type="line"/>
      <point x="249" y="658" type="line"/>
      <point x="164" y="658" type="line"/>
    </contour>
    <contour>
      <point x="185" y="202" type="line"/>
      <point x="222" y="466" type="line"/>
      <point x="275" y="466" type="line" smooth="yes"/>
      <point x="363" y="466"/>
      <point x="411" y="421"/>
      <point x="411" y="350" type="curve" smooth="yes"/>
      <point x="411" y="263"/>
      <point x="344" y="202"/>
      <point x="243" y="202" type="curve" smooth="yes"/>
    </contour>
  </outline>
</glyph>
<glyph name="germandbls" format="2">
  <advance width="551"/>
  <unicode hex="00DF"/>
  <anchor x="408" y="456" name="top"/>
  <outline>
    <contour>
      <point x="60" y="0" type="line"/>
      <point x="142" y="0" type="line"/>
      <point x="211" y="488" type="line" smooth="yes"/>
      <point x="226" y="601"/>
      <point x="276" y="660"/>
      <point x="361" y="660" type="curve" smooth="yes"/>
      <point x="445" y="660"/>
      <point x="500" y="597"/>
      <point x="481" y="465" type="curve"/>
      <point x="462" y="472"/>
      <point x="438" y="476"/>
      <point x="414" y="476" type="curve" smooth="yes"/>
      <point x="323" y="476"/>
      <point x="261" y="421"/>
      <point x="261" y="331" type="curve" smooth="yes"/>
      <point x="261" y="269"/>
      <point x="293" y="230"/>
      <point x="360" y="206" type="curve" smooth="yes"/>
      <point x="374" y="201" type="line" smooth="yes"/>
      <point x="423" y="183"/>
      <point x="449" y="161"/>
      <point x="449" y="126" type="curve" smooth="yes"/>
      <point x="449" y="83"/>
      <point x="414" y="58"/>
      <point x="357" y="58" type="curve" smooth="yes"/>
      <point x="315" y="58"/>
      <point x="262" y="73"/>
      <point x="230" y="94" type="curve"/>
      <point x="220" y="19" type="line"/>
      <point x="258" y="3"/>
      <point x="313" y="-10"/>
      <point x="355" y="-10" type="curve" smooth="yes"/>
      <point x="463" y="-10"/>
      <point x="530" y="48"/>
      <point x="530" y="139" type="curve" smooth="yes"/>
      <point x="530" y="201"/>
      <point x="491" y="245"/>
      <point x="417" y="271" type="curve" smooth="yes"/>
      <point x="402" y="276" type="line" smooth="yes"/>
      <point x="362" y="291"/>
      <point x="342" y="309"/>
      <point x="342" y="342" type="curve" smooth="yes"/>
      <point x="342" y="384"/>
      <point x="374" y="408"/>
      <point x="428" y="408" type="curve" smooth="yes"/>
      <point x="466" y="408"/>
      <point x="503" y="398"/>
      <point x="539" y="380" type="curve"/>
      <point x="549" y="416"/>
      <point x="558" y="464"/>
      <point x="557" y="509" type="curve" smooth="yes"/>
      <point x="558" y="651"/>
      <point x="483" y="731"/>
      <point x="364" y="731" type="curve" smooth="yes"/>
      <point x="234" y="731"/>
      <point x="152" y="652"/>
      <point x="129" y="491" type="curve" smooth="yes"/>
    </contour>
  </outline>
</glyph>
<glyph name="ae" format="2">
  <advance width="743"/>
  <unicode hex="00E6"/>
  <anchor x="420" y="450" name="top"/>
  <outline>
    <contour>
      <point x="201" y="-10" type="curve" smooth="yes"/>
      <point x="284" y="-10"/>
      <point x="358" y="51"/>
      <point x="378" y="140" type="curve" smooth="yes"/>
      <point x="384" y="168" type="line"/>
      <point x="424" y="324" type="line"/>
      <point x="415" y="353" type="line"/>
      <point x="418" y="427"/>
      <point x="373" y="476"/>
      <point x="276" y="476" type="curve" smooth="yes"/>
      <point x="224" y="476"/>
      <point x="171" y="464"/>
      <point x="118" y="440" type="curve"/>
      <point x="108" y="365" type="line"/>
      <point x="156" y="394"/>
      <point x="207" y="407"/>
      <point x="261" y="407" type="curve" smooth="yes"/>
      <point x="322" y="407"/>
      <point x="359" y="379"/>
      <point x="350" y="316" type="curve" smooth="yes"/>
      <point x="344" y="270" type="line"/>
      <point x="243" y="265" type="line" smooth="yes"/>
      <point x="128" y="261"/>
      <point x="57" y="206"/>
      <point x="57" y="112" type="curve" smooth="yes"/>
      <point x="57" y="47"/>
      <point x="104" y="-10"/>
    </contour>
    <contour>
      <point x="218" y="57" type="curve" smooth="yes"/>
      <point x="172" y="57"/>
      <point x="141" y="82"/>
      <point x="141" y="121" type="curve" smooth="yes"/>
      <point x="141" y="174"/>
      <point x="186" y="202"/>
      <point x="246" y="205" type="curve" smooth="yes"/>
      <point x="336" y="209" type="line"/>
      <point x="329" y="163" type="line" smooth="yes"/>
      <point x="322" y="107"/>
      <point x="277" y="58"/>
    </contour>
    <contour>
      <point x="546" y="-10" type="curve" smooth="yes"/>
      <point x="604" y="-10"/>
      <point x="653" y="4"/>
      <point x="703" y="35" type="curve"/>
      <point x="714" y="119" type="line"/>
      <point x="664" y="79"/>
      <point x="614" y="61"/>
      <point x="555" y="61" type="curve" smooth="yes"/>
      <point x="464" y="61"/>
      <point x="415" y="119"/>
      <point x="419" y="214" type="curve" smooth="yes"/>
      <point x="423" y="240" type="line" smooth="yes"/>
      <point x="427" y="334"/>
      <point x="490" y="410"/>
      <point x="576" y="410" type="curve" smooth="yes"/>
      <point x="624" y="410"/>
      <point x="654" y="386"/>
      <point x="654" y="351" type="curve" smooth="yes"/>
      <point x="654" y="296"/>
      <point x="604" y="278"/>
      <point x="491" y="273" type="curve" smooth="yes"/>
      <point x="409" y="269" type="line"/>
      <point x="403" y="209" type="line"/>
      <point x="490" y="213" type="line" smooth="yes"/>
      <point x="664" y="220"/>
      <point x="737" y="254"/>
      <point x="737" y="351" type="curve" smooth="yes"/>
      <point x="737" y="425"/>
      <point x="675" y="476"/>
      <point x="584" y="476" type="curve" smooth="yes"/>
      <point x="442" y="476"/>
      <point x="344" y="359"/>
      <point x="344" y="203" type="curve" smooth="yes"/>
      <point x="344" y="75"/>
      <point x="411" y="-10"/>
    </contour>
  </outline>
</glyph>
<glyph name="eth" format="2">
  <advance width="553"/>
  <unicode hex="00F0"/>
  <outline>
    <contour>
      <point x="289" y="-11" type="curve" smooth="yes"/>
      <point x="440" y="-11"/>
      <point x="553" y="121"/>
      <point x="553" y="316" type="curve" smooth="yes"/>
      <point x="553" y="493"/>
      <point x="477" y="644"/>
      <point x="324" y="747" type="curve"/>
      <point x="238" y="715" type="line"/>
      <point x="423" y="599"/>
      <point x="494" y="443"/>
      <point x="482" y="280" type="curve"/>
      <point x="502" y="286" type="line"/>
      <point x="503" y="413"/>
      <point x="436" y="477"/>
      <point x="323" y="477" type="curve" smooth="yes"/>
      <point x="179" y="477"/>
      <point x="71" y="361"/>
      <point x="71" y="205" type="curve" smooth="yes"/>
      <point x="71" y="82"/>
      <point x="157" y="-11"/>
    </contour>
    <contour>
      <point x="292" y="65" type="curve" smooth="yes"/>
      <point x="209" y="65"/>
      <point x="154" y="126"/>
      <point x="154" y="210" type="curve" smooth="yes"/>
      <point x="154" y="320"/>
      <point x="228" y="402"/>
      <point x="327" y="402" type="curve" smooth="yes"/>
      <point x="399" y="402"/>
      <point x="456" y="357"/>
      <point x="463" y="265" type="curve" smooth="yes"/>
      <point x="463" y="150"/>
      <point x="392" y="65"/>
    </contour>
    <contour>
      <point x="275" y="561" type="line"/>
      <point x="521" y="637" type="line"/>
      <point x="511" y="703" type="line"/>
      <point x="266" y="627" type="line"/>
    </contour>
  </outline>
</glyph>
<glyph name="divide" format="2">
  <advance width="550"/>
  <unicode hex="00F7"/>
  <outline>
    <contour>
      <point x="96" y="255" type="line"/>
      <point x="526" y="255" type="line"/>
      <point x="536" y="326" type="line"/>
      <point x="106" y="326" type="line"/>
    </contour>
    <contour>
      <point x="293" y="426" type="line"/>
      <point x="370" y="426" type="line"/>
      <point x="381" y="503" type="line"/>
      <point x="304" y="503" type="line"/>
    </contour>
    <contour>
      <point x="250" y="78" type="line"/>
      <point x="328" y="78" type="line"/>
      <point x="339" y="155" type="line"/>
      <point x="262" y="155" type="line"/>
    </contour>
  </outline>
</glyph>
<glyph name="oslash" format="2">
  <advance width="534"/>
  <unicode hex="00F8"/>
  <anchor x="311" y="450" name="top"/>
  <outline>
    <contour>
      <point x="78" y="-48" type="line"/>
      <point x="150" y="-48" type="line"/>
      <point x="522" y="514" type="line"/>
      <point x="450" y="514" type="line"/>
    </contour>
    <component base="o"/>
  </outline>
</glyph>
<glyph name="thorn" format="2">
  <advance width="516"/>
  <unicode hex="00FE"/>
  <outline>
    <contour>
      <point x="28" y="-215" type="line"/>
      <point x="110" y="-215" type="line"/>
      <point x="142" y="8" type="line"/>
      <point x="172" y="-4"/>
      <point x="203" y="-10"/>
      <point x="239" y="-10" type="curve" smooth="yes"/>
      <point x="400" y="-10"/>
      <point x="514" y="119"/>
      <point x="514" y="286" type="curve" smooth="yes"/>
      <point x="514" y="404"/>
      <point x="443" y="476"/>
      <point x="348" y="476" type="curve" smooth="yes"/>
      <point x="286" y="476"/>
      <point x="222" y="445"/>
      <point x="186" y="347" type="curve"/>
      <point x="191" y="368"/>
      <point x="195" y="390"/>
      <point x="198" y="411" type="curve" smooth="yes"/>
      <point x="242" y="720" type="line"/>
      <point x="160" y="720" type="line"/>
    </contour>
    <contour>
      <point x="245" y="60" type="curve" smooth="yes"/>
      <point x="211" y="60"/>
      <point x="181" y="65"/>
      <point x="153" y="78" type="curve"/>
      <point x="162" y="148" type="line" smooth="yes"/>
      <point x="193" y="376"/>
      <point x="271" y="402"/>
      <point x="326" y="402" type="curve" smooth="yes"/>
      <point x="385" y="402"/>
      <point x="432" y="358"/>
      <point x="432" y="275" type="curve" smooth="yes"/>
      <point x="432" y="158"/>
      <point x="355" y="60"/>
    </contour>
  </outline>
</glyph>
<glyph name="dcroat" format="2">
  <advance width="522"/>
  <unicode hex="0111"/>
  <outline>
    <contour>
      <point x="384" y="561" type="line"/>
      <point x="595" y="561" type="line"/>
      <point x="605" y="630" type="line"/>
      <point x="394" y="630" type="line"/>
    </contour>
    <component base="d"/>
  </outline>
</glyph>
<glyph name="eogonek" format="2">
  <advance width="487"/>
  <unicode hex="0119"/>
  <outline>
    <contour>
      <point x="408" y="-215" type="curve"/>
      <point x="417" y="-151" type="line"/>
      <point x="365" y="-151"/>
      <point x="329" y="-123"/>
      <point x="329" y="-76" type="curve" smooth="yes"/>
      <point x="329" y="-40"/>
      <point x="351" y="-8"/>
      <point x="391" y="10" type="curve" smooth="yes"/>
      <point x="408" y="18"/>
      <point x="423" y="25"/>
      <point x="439" y="35" type="curve"/>
      <point x="451" y="119" type="line"/>
      <point x="400" y="79"/>
      <point x="349" y="61"/>
      <point x="291" y="61" type="curve" smooth="yes"/>
      <point x="199" y="61"/>
      <point x="149" y="116"/>
      <point x="154" y="211" type="curve" smooth="yes"/>
      <point x="157" y="237" type="line" smooth="yes"/>
      <point x="162" y="331"/>
      <point x="226" y="406"/>
      <point x="312" y="406" type="curve" smooth="yes"/>
      <point x="360" y="406"/>
      <point x="390" y="384"/>
      <point x="390" y="348" type="curve" smooth="yes"/>
      <point x="390" y="293"/>
      <point x="340" y="266"/>
      <point x="227" y="259" type="curve" smooth="yes"/>
      <point x="143" y="253" type="line"/>
      <point x="137" y="193" type="line"/>
      <point x="222" y="198" type="line" smooth="yes"/>
      <point x="400" y="208"/>
      <point x="473" y="254"/>
      <point x="473" y="351" type="curve" smooth="yes"/>
      <point x="473" y="425"/>
      <point x="411" y="476"/>
      <point x="320" y="476" type="curve" smooth="yes"/>
      <point x="178" y="476"/>
      <point x="71" y="359"/>
      <point x="71" y="203" type="curve" smooth="yes"/>
      <point x="71" y="75"/>
      <point x="147" y="-10"/>
      <point x="282" y="-10" type="curve" smooth="yes"/>
      <point x="319" y="-10"/>
      <point x="346" y="-6"/>
      <point x="379" y="5" type="curve"/>
      <point x="380" y="46" type="line"/>
      <point x="307" y="30"/>
      <point x="254" y="-25"/>
      <point x="254" y="-94" type="curve" smooth="yes"/>
      <point x="254" y="-166"/>
      <point x="313" y="-215"/>
    </contour>
  </outline>
</glyph>
<glyph name="Hbar" format="2">
  <advance width="699"/>
  <unicode hex="0126"/>
  <outline>
    <contour>
      <point x="96" y="474" type="line"/>
      <point x="736" y="474" type="line"/>
      <point x="746" y="546" type="line"/>
      <point x="107" y="546" type="line"/>
    </contour>
    <contour>
      <point x="81" y="0" type="line"/>
      <point x="165" y="0" type="line"/>
      <point x="206" y="293" type="line"/>
      <point x="576" y="293" type="line"/>
      <point x="534" y="0" type="line"/>
      <point x="619" y="0" type="line"/>
      <point x="711" y="658" type="line"/>
      <point x="626" y="658" type="line"/>
      <point x="586" y="372" type="line"/>
      <point x="217" y="372" type="line"/>
      <point x="257" y="658" type="line"/>
      <point x="173" y="658" type="line"/>
    </contour>
  </outline>
</glyph>
<glyph name="hbar" format="2">
  <advance width="499"/>
  <unicode hex="0127"/>
  <outline>
    <contour>
      <point x="93" y="561" type="line"/>
      <point x="306" y="561" type="line"/>
      <point x="315" y="630" type="line"/>
      <point x="103" y="630" type="line"/>
    </contour>
    <component base="h"/>
  </outline>
</glyph>
<glyph name="dotlessi" format="2">
  <advance width="204"/>
  <unicode hex="0131"/>
  <anchor x="162" y="450" name="top"/>
  <outline>
    <contour>
      <point x="66" y="0" type="curve"/>
      <point x="147" y="0" type="line"/>
      <point x="147" y="39"/>
      <point x="151" y="87"/>
      <point x="157" y="129" type="curve" smooth="yes"/>
      <point x="205" y="466" type="line"/>
      <point x="123" y="466" type="line"/>
      <point x="75" y="129" type="line" smooth="yes"/>
      <point x="69" y="85"/>
      <point x="66" y="40"/>
    </contour>
  </outline>
</glyph>
<glyph name="Lslash" format="2">
  <advance width="457"/>
  <unicode hex="0141"/>
  <outline>
    <contour>
      <point x="45" y="279" type="line"/>
      <point x="297" y="357" type="line"/>
      <point x="307" y="433" type="line"/>
      <point x="56" y="355" type="line"/>
    </contour>
    <component base="L" xOffset="1"/>
  </outline>
</glyph>
<glyph name="lslash" format="2">
  <advance width="210"/>
  <unicode hex="0142"/>
  <outline>
    <contour>
      <point x="52" y="304" type="line"/>
      <point x="261" y="359" type="line"/>
      <point x="271" y="433" type="line"/>
      <point x="63" y="377" type="line"/>
    </contour>
    <component base="l"/>
  </outline>
</glyph>
<glyph name="Eng" format="2">
  <advance width="708"/>
  <unicode hex="014A"/>
  <outline>
    <contour>
      <point x="72" y="0" type="line"/>
      <point x="152" y="0" type="line"/>
      <point x="219" y="481" type="line"/>
      <point x="235" y="603" type="line"/>
      <point x="191" y="603" type="line"/>
      <point x="257" y="481" type="line"/>
      <point x="556" y="0" type="line"/>
      <point x="560" y="0" type="line"/>
      <point x="556" y="0" type="line"/>
      <point x="548" y="-55" type="line" smooth="yes"/>
      <point x="539" y="-107"/>
      <point x="498" y="-141"/>
      <point x="441" y="-141" type="curve" smooth="yes"/>
      <point x="433" y="-141" type="line"/>
      <point x="423" y="-215" type="line"/>
      <point x="431" y="-215" type="line" smooth="yes"/>
      <point x="542" y="-215"/>
      <point x="613" y="-158"/>
      <point x="628" y="-55" type="curve" smooth="yes"/>
      <point x="726" y="658" type="line"/>
      <point x="646" y="658" type="line"/>
      <point x="579" y="180" type="line"/>
      <point x="564" y="55" type="line"/>
      <point x="611" y="55" type="line"/>
      <point x="545" y="180" type="line"/>
      <point x="251" y="658" type="line"/>
      <point x="164" y="658" type="line"/>
    </contour>
  </outline>
</glyph>
<glyph name="eng" format="2">
  <advance width="504"/>
  <unicode hex="014B"/>
  <outline>
    <contour>
      <point x="247" y="-215" type="line" smooth="yes"/>
      <point x="356" y="-215"/>
      <point x="428" y="-152"/>
      <point x="443" y="-42" type="curve" smooth="yes"/>
      <point x="492" y="304" type="line" smooth="yes"/>
      <point x="507" y="409"/>
      <point x="450" y="476"/>
      <point x="358" y="476" type="curve" smooth="yes"/>
      <point x="300" y="476"/>
      <point x="236" y="443"/>
      <point x="198" y="354" type="curve"/>
      <point x="202" y="385" type="line" smooth="yes"/>
      <point x="206" y="409"/>
      <point x="207" y="442"/>
      <point x="207" y="466" type="curve"/>
      <point x="126" y="466" type="line"/>
      <point x="126" y="431"/>
      <point x="123" y="393"/>
      <point x="117" y="349" type="curve" smooth="yes"/>
      <point x="68" y="0" type="line"/>
      <point x="150" y="0" type="line"/>
      <point x="169" y="139" type="line" smooth="yes"/>
      <point x="201" y="366"/>
      <point x="274" y="399"/>
      <point x="326" y="399" type="curve" smooth="yes"/>
      <point x="383" y="399"/>
      <point x="417" y="359"/>
      <point x="407" y="282" type="curve" smooth="yes"/>
      <point x="361" y="-40" type="line" smooth="yes"/>
      <point x="353" y="-102"/>
      <point x="313" y="-140"/>
      <point x="257" y="-140" type="curve" smooth="yes"/>
      <point x="249" y="-140" type="line"/>
      <point x="239" y="-215" type="line"/>
    </contour>
  </outline>
</glyph>
<glyph name="OE" format="2">
  <advance width="900"/>
  <unicode hex="0152"/>
  <outline>
    <contour>
      <point x="414" y="0" type="curve" smooth="yes"/>
      <point x="842" y="0" type="line"/>
      <point x="853" y="79" type="line"/>
      <point x="564" y="79" type="line"/>
      <point x="594" y="294" type="line"/>
      <point x="860" y="294" type="line"/>
      <point x="871" y="373" type="line"/>
      <point x="604" y="373" type="line"/>
      <point x="633" y="579" type="line"/>
      <point x="908" y="579" type="line"/>
      <point x="919" y="658" type="line"/>
      <point x="501" y="658" type="line" smooth="yes"/>
      <point x="249" y="658"/>
      <point x="96" y="511"/>
      <point x="96" y="293" type="curve" smooth="yes"/>
      <point x="96" y="126"/>
      <point x="209" y="0"/>
    </contour>
    <contour>
      <point x="416" y="79" type="line" smooth="yes"/>
      <point x="271" y="79"/>
      <point x="182" y="169"/>
      <point x="182" y="297" type="curve" smooth="yes"/>
      <point x="182" y="465"/>
      <point x="297" y="579"/>
      <point x="483" y="579" type="curve" smooth="yes"/>
      <point x="549" y="579" type="line"/>
      <point x="480" y="79" type="line"/>
    </contour>
  </outline>
</glyph>
<glyph name="oe" format="2">
  <advance width="836"/>
  <unicode hex="0153"/>
  <outline>
    <contour>
      <point x="639" y="-10" type="curve" smooth="yes"/>
      <point x="697" y="-10"/>
      <point x="746" y="4"/>
      <point x="796" y="35" type="curve"/>
      <point x="808" y="119" type="line"/>
      <point x="758" y="79"/>
      <point x="707" y="61"/>
      <point x="648" y="61" type="curve" smooth="yes"/>
      <point x="557" y="61"/>
      <point x="506" y="116"/>
      <point x="511" y="211" type="curve" smooth="yes"/>
      <point x="514" y="237" type="line" smooth="yes"/>
      <point x="519" y="331"/>
      <point x="584" y="406"/>
      <point x="669" y="406" type="curve" smooth="yes"/>
      <point x="717" y="406"/>
      <point x="747" y="384"/>
      <point x="747" y="348" type="curve" smooth="yes"/>
      <point x="747" y="293"/>
      <point x="697" y="266"/>
      <point x="585" y="259" type="curve" smooth="yes"/>
      <point x="500" y="253" type="line"/>
      <point x="495" y="193" type="line"/>
      <point x="579" y="198" type="line" smooth="yes"/>
      <point x="757" y="208"/>
      <point x="830" y="254"/>
      <point x="830" y="351" type="curve" smooth="yes"/>
      <point x="830" y="425"/>
      <point x="768" y="476"/>
      <point x="677" y="476" type="curve" smooth="yes"/>
      <point x="535" y="476"/>
      <point x="433" y="352"/>
      <point x="433" y="203" type="curve" smooth="yes"/>
      <point x="433" y="83"/>
      <point x="504" y="-10"/>
    </contour>
    <contour>
      <point x="275" y="-11" type="curve" smooth="yes"/>
      <point x="415" y="-11"/>
      <point x="511" y="116"/>
      <point x="511" y="266" type="curve" smooth="yes"/>
      <point x="511" y="387"/>
      <point x="438" y="477"/>
      <point x="311" y="477" type="curve" smooth="yes"/>
      <point x="171" y="477"/>
      <point x="71" y="357"/>
      <point x="71" y="200" type="curve" smooth="yes"/>
      <point x="71" y="71"/>
      <point x="148" y="-11"/>
    </contour>
    <contour>
      <point x="279" y="62" type="curve" smooth="yes"/>
      <point x="199" y="62"/>
      <point x="152" y="119"/>
      <point x="152" y="204" type="curve" smooth="yes"/>
      <point x="152" y="317"/>
      <point x="216" y="404"/>
      <point x="307" y="404" type="curve" smooth="yes"/>
      <point x="387" y="404"/>
      <point x="434" y="347"/>
      <point x="434" y="262" type="curve" smooth="yes"/>
      <point x="434" y="149"/>
      <point x="371" y="62"/>
    </contour>
  </outline>
</glyph>
<glyph name="Tbar" format="2">
  <advance width="550"/>
  <unicode hex="0166"/>
  <outline>
    <contour>
      <point x="152" y="310" type="line"/>
      <point x="484" y="310" type="line"/>
      <point x="495" y="383" type="line"/>
      <point x="163" y="383" type="line"/>
    </contour>
    <component base="T"/>
  </outline>
</glyph>
<glyph name="tbar" format="2">
  <advance width="302"/>
  <unicode hex="0167"/>
  <outline>
    <contour>
      <point x="64" y="237" type="line"/>
      <point x="274" y="237" type="line"/>
      <point x="284" y="306" type="line"/>
      <point x="73" y="306" type="line"/>
    </contour>
    <component base="t"/>
  </outline>
</glyph>
<glyph name="Uogonek" format="2">
  <advance width="667"/>
  <unicode hex="0172"/>
  <outline>
    <contour>
      <point x="462" y="-220" type="curve"/>
      <point x="471" y="-153" type="line"/>
      <point x="418" y="-153"/>
      <point x="383" y="-126"/>
      <point x="383" y="-79" type="curve" smooth="yes"/>
      <point x="383" y="-42"/>
      <point x="409" y="-9"/>
      <point x="452" y="6" type="curve" smooth="yes"/>
      <point x="548" y="39"/>
      <point x="617" y="123"/>
      <point x="635" y="248" type="curve" smooth="yes"/>
      <point x="693" y="658" type="line"/>
      <point x="614" y="658" type="line"/>
      <point x="557" y="250" type="line" smooth="yes"/>
      <point x="542" y="139"/>
      <point x="458" y="67"/>
      <point x="346" y="67" type="curve" smooth="yes"/>
      <point x="228" y="67"/>
      <point x="170" y="136"/>
      <point x="186" y="251" type="curve" smooth="yes"/>
      <point x="243" y="658" type="line"/>
      <point x="159" y="658" type="line"/>
      <point x="102" y="253" type="line" smooth="yes"/>
      <point x="79" y="90"/>
      <point x="169" y="-12"/>
      <point x="343" y="-12" type="curve" smooth="yes"/>
      <point x="379" y="-12"/>
      <point x="405" y="-8"/>
      <point x="436" y="1" type="curve"/>
      <point x="437" y="43" type="line"/>
      <point x="364" y="27"/>
      <point x="311" y="-29"/>
      <point x="311" y="-98" type="curve" smooth="yes"/>
      <point x="311" y="-171"/>
      <point x="368" y="-220"/>
    </contour>
  </outline>
</glyph>
<glyph name="florin" format="2">
  <advance width="418"/>
  <unicode hex="0192"/>
  <outline>
    <contour>
      <point x="113" y="391" type="line"/>
      <point x="413" y="391" type="line"/>
      <point x="423" y="466" type="line"/>
      <point x="124" y="466" type="line"/>
    </contour>
    <contour>
      <point x="56" y="-219" type="curve" smooth="yes"/>
      <point x="153" y="-219"/>
      <point x="217" y="-162"/>
      <point x="233" y="-43" type="curve" smooth="yes"/>
      <point x="316" y="552" type="line" smooth="yes"/>
      <point x="325" y="616"/>
      <point x="356" y="652"/>
      <point x="411" y="652" type="curve" smooth="yes"/>
      <point x="438" y="652"/>
      <point x="464" y="645"/>
      <point x="489" y="631" type="curve"/>
      <point x="500" y="710" type="line"/>
      <point x="471" y="721"/>
      <point x="442" y="727"/>
      <point x="412" y="727" type="curve" smooth="yes"/>
      <point x="319" y="727"/>
      <point x="252" y="670"/>
      <point x="235" y="551" type="curve" smooth="yes"/>
      <point x="153" y="-41" type="line" smooth="yes"/>
      <point x="145" y="-103"/>
      <point x="114" y="-140"/>
      <point x="64" y="-140" type="curve" smooth="yes"/>
      <point x="33" y="-140"/>
      <point x="8" y="-133"/>
      <point x="-16" y="-120" type="curve"/>
      <point x="-26" y="-200" type="line"/>
      <point x="0" y="-213"/>
      <point x="27" y="-219"/>
    </contour>
  </outline>
</glyph>
<glyph name="Oslashacute" format="2">
  <advance width="772"/>
  <unicode hex="01FE"/>
  <outline>
    <contour>
      <point x="138" y="-48" type="line"/>
      <point x="224" y="-48" type="line"/>
      <point x="727" y="706" type="line"/>
      <point x="641" y="706" type="line"/>
    </contour>
    <component base="O" yOffset="1"/>
    <component base="acutecmb.uc" xOffset="375" yOffset="12"/>
  </outline>
</glyph>
<glyph name="oslashacute" format="2">
  <advance width="533"/>
  <unicode hex="01FF"/>
  <anchor x="311" y="450" name="top"/>
  <outline>
    <contour>
      <point x="77" y="-48" type="line"/>
      <point x="149" y="-48" type="line"/>
      <point x="522" y="514" type="line"/>
      <point x="450" y="514" type="line"/>
    </contour>
    <component base="o"/>
    <component base="acutecmb" xOffset="248"/>
  </outline>
</glyph>
<glyph name="dotlessj" format="2">
  <advance width="205"/>
  <unicode hex="0237"/>
  <anchor x="170" y="450" name="top"/>
  <outline>
    <contour>
      <point x="-52" y="-211" type="line" smooth="yes"/>
      <point x="57" y="-211"/>
      <point x="126" y="-148"/>
      <point x="142" y="-36" type="curve" smooth="yes"/>
      <point x="213" y="466" type="line"/>
      <point x="131" y="466" type="line"/>
      <point x="61" y="-36" type="line" smooth="yes"/>
      <point x="52" y="-99"/>
      <point x="14" y="-136"/>
      <point x="-41" y="-136" type="curve" smooth="yes"/>
      <point x="-49" y="-136" type="line"/>
      <point x="-60" y="-211" type="line"/>
    </contour>
  </outline>
</glyph>
<glyph name="schwa" format="2">
  <advance width="481"/>
  <unicode hex="0259"/>
  <outline>
    <contour>
      <point x="226" y="-10" type="curve" smooth="yes"/>
      <point x="374" y="-10"/>
      <point x="471" y="105"/>
      <point x="471" y="263" type="curve" smooth="yes"/>
      <point x="471" y="390"/>
      <point x="395" y="476"/>
      <point x="262" y="476" type="curve" smooth="yes"/>
      <point x="213" y="476"/>
      <point x="157" y="464"/>
      <point x="103" y="431" type="curve"/>
      <point x="91" y="348" type="line"/>
      <point x="142" y="386"/>
      <point x="191" y="404"/>
      <point x="253" y="404" type="curve" smooth="yes"/>
      <point x="342" y="404"/>
      <point x="392" y="349"/>
      <point x="388" y="254" type="curve" smooth="yes"/>
      <point x="384" y="229" type="line" smooth="yes"/>
      <point x="380" y="136"/>
      <point x="315" y="59"/>
      <point x="230" y="59" type="curve" smooth="yes"/>
      <point x="182" y="59"/>
      <point x="152" y="82"/>
      <point x="152" y="118" type="curve" smooth="yes"/>
      <point x="152" y="173"/>
      <point x="202" y="199"/>
      <point x="315" y="206" type="curve" smooth="yes"/>
      <point x="398" y="211" type="line"/>
      <point x="404" y="273" type="line"/>
      <point x="320" y="268" type="line" smooth="yes"/>
      <point x="142" y="257"/>
      <point x="69" y="213"/>
      <point x="69" y="115" type="curve" smooth="yes"/>
      <point x="69" y="42"/>
      <point x="132" y="-10"/>
    </contour>
  </outline>
</glyph>
<glyph name="gravecmb" format="2">
  <advance width="167"/>
  <unicode hex="0300"/>
  <anchor x="63" y="450" name="_top"/>
  <anchor x="4" y="16" name="_bottom"/>
  <outline>
    <contour>
      <point x="41" y="524" type="line"/>
      <point x="127" y="524" type="line"/>
      <point x="37" y="661" type="line"/>
      <point x="-57" y="661" type="line"/>
    </contour>
  </outline>
</glyph>
<glyph name="acutecmb" format="2">
  <advance width="271"/>
  <unicode hex="0301"/>
  <anchor x="63" y="450" name="_top"/>
  <anchor x="2" y="16" name="_bottom"/>
  <outline>
    <contour>
      <point x="19" y="524" type="line"/>
      <point x="106" y="524" type="line"/>
      <point x="231" y="661" type="line"/>
      <point x="135" y="661" type="line"/>
    </contour>
  </outline>
</glyph>
<glyph name="circumflexcmb" format="2">
  <advance width="245"/>
  <unicode hex="0302"/>
  <anchor x="63" y="450" name="_top"/>
  <anchor x="4" y="16" name="_bottom"/>
  <outline>
    <contour>
      <point x="-57" y="524" type="line"/>
      <point x="17" y="524" type="line"/>
      <point x="99" y="615" type="line"/>
      <point x="76" y="615" type="line"/>
      <point x="133" y="524" type="line"/>
      <point x="205" y="524" type="line"/>
      <point x="126" y="658" type="line"/>
      <point x="59" y="658" type="line"/>
    </contour>
  </outline>
</glyph>
<glyph name="tildecmb" format="2">
  <advance width="281"/>
  <unicode hex="0303"/>
  <anchor x="63" y="450" name="_top"/>
  <anchor x="5" y="16" name="_bottom"/>
  <outline>
    <contour>
      <point x="-21" y="524" type="line"/>
      <point x="-14" y="554"/>
      <point x="2" y="570"/>
      <point x="24" y="570" type="curve" smooth="yes"/>
      <point x="38" y="570"/>
      <point x="51" y="563"/>
      <point x="70" y="547" type="curve"/>
      <point x="94" y="526"/>
      <point x="115" y="517"/>
      <point x="143" y="517" type="curve" smooth="yes"/>
      <point x="195" y="517"/>
      <point x="228" y="554"/>
      <point x="241" y="626" type="curve"/>
      <point x="188" y="626" type="line"/>
      <point x="181" y="596"/>
      <point x="165" y="580"/>
      <point x="143" y="580" type="curve" smooth="yes"/>
      <point x="130" y="580"/>
      <point x="117" y="587"/>
      <point x="97" y="603" type="curve"/>
      <point x="72" y="624"/>
      <point x="51" y="633"/>
      <point x="25" y="633" type="curve" smooth="yes"/>
      <point x="-28" y="633"/>
      <point x="-61" y="596"/>
      <point x="-74" y="524" type="curve"/>
    </contour>
  </outline>
</glyph>
<glyph name="brevecmb" format="2">
  <advance width="244"/>
  <unicode hex="0306"/>
  <anchor x="63" y="450" name="_top"/>
  <anchor x="5" y="16" name="_bottom"/>
  <outline>
    <contour>
      <point x="76" y="516" type="curve"/>
      <point x="143" y="516"/>
      <point x="194" y="564"/>
      <point x="204" y="650" type="curve"/>
      <point x="147" y="650" type="line"/>
      <point x="143" y="603"/>
      <point x="117" y="575"/>
      <point x="79" y="575" type="curve" smooth="yes"/>
      <point x="37" y="575"/>
      <point x="18" y="603"/>
      <point x="20" y="650" type="curve"/>
      <point x="-36" y="650" type="line"/>
      <point x="-45" y="571"/>
      <point x="-3" y="516"/>
    </contour>
  </outline>
</glyph>
<glyph name="dotaccentcmb" format="2">
  <advance width="171"/>
  <unicode hex="0307"/>
  <anchor x="63" y="450" name="_top"/>
  <anchor x="3" y="16" name="_bottom"/>
  <outline>
    <contour>
      <point x="32" y="532" type="line"/>
      <point x="119" y="532" type="line"/>
      <point x="131" y="620" type="line"/>
      <point x="44" y="620" type="line"/>
    </contour>
  </outline>
</glyph>
<glyph name="dieresiscmb" format="2">
  <advance width="245"/>
  <unicode hex="0308"/>
  <anchor x="63" y="450" name="_top"/>
  <anchor x="3" y="16" name="_bottom"/>
  <outline>
    <contour>
      <point x="-44" y="533" type="line"/>
      <point x="38" y="533" type="line"/>
      <point x="49" y="614" type="line"/>
      <point x="-32" y="614" type="line"/>
    </contour>
    <contour>
      <point x="112" y="533" type="line"/>
      <point x="194" y="533" type="line"/>
      <point x="205" y="614" type="line"/>
      <point x="123" y="614" type="line"/>
    </contour>
  </outline>
</glyph>
<glyph name="ringcmb" format="2">
  <advance width="209"/>
  <unicode hex="030A"/>
  <anchor x="63" y="450" name="_top"/>
  <anchor x="5" y="16" name="_bottom"/>
  <outline>
    <contour>
      <point x="70" y="456" type="curve" smooth="yes"/>
      <point x="130" y="456"/>
      <point x="169" y="499"/>
      <point x="169" y="554" type="curve" smooth="yes"/>
      <point x="169" y="601"/>
      <point x="135" y="637"/>
      <point x="86" y="637" type="curve" smooth="yes"/>
      <point x="29" y="637"/>
      <point x="-14" y="595"/>
      <point x="-14" y="539" type="curve" smooth="yes"/>
      <point x="-14" y="492"/>
      <point x="21" y="456"/>
    </contour>
    <contour>
      <point x="74" y="504" type="curve" smooth="yes"/>
      <point x="52" y="504"/>
      <point x="36" y="519"/>
      <point x="36" y="542" type="curve" smooth="yes"/>
      <point x="36" y="569"/>
      <point x="56" y="590"/>
      <point x="81" y="590" type="curve" smooth="yes"/>
      <point x="103" y="590"/>
      <point x="120" y="574"/>
      <point x="120" y="551" type="curve" smooth="yes"/>
      <point x="120" y="524"/>
      <point x="100" y="504"/>
    </contour>
  </outline>
</glyph>
<glyph name="hungarumlautcmb" format="2">
  <advance width="336"/>
  <unicode hex="030B"/>
  <anchor x="63" y="450" name="_top"/>
  <anchor x="4" y="16" name="_bottom"/>
  <outline>
    <contour>
      <point x="-37" y="523" type="line"/>
      <point x="36" y="523" type="line"/>
      <point x="146" y="659" type="line"/>
      <point x="67" y="659" type="line"/>
    </contour>
    <contour>
      <point x="106" y="523" type="line"/>
      <point x="180" y="523" type="line"/>
      <point x="296" y="659" type="line"/>
      <point x="216" y="659" type="line"/>
    </contour>
  </outline>
</glyph>
<glyph name="caroncmb" format="2">
  <advance width="264"/>
  <unicode hex="030C"/>
  <anchor x="63" y="450" name="_top"/>
  <anchor x="4" y="16" name="_bottom"/>
  <outline>
    <contour>
      <point x="41" y="524" type="line"/>
      <point x="108" y="524" type="line"/>
      <point x="224" y="658" type="line"/>
      <point x="149" y="658" type="line"/>
      <point x="67" y="567" type="line"/>
      <point x="89" y="567" type="line"/>
      <point x="33" y="658" type="line"/>
      <point x="-39" y="658" type="line"/>
    </contour>
  </outline>
</glyph>
<glyph name="commaturnedabovecmb" format="2">
  <advance width="206"/>
  <unicode hex="0312"/>
  <anchor x="3" y="16" name="_bottom"/>
  <anchor x="63" y="450" name="_top"/>
  <outline>
    <contour>
      <point x="110" y="711" type="line"/>
      <point x="68" y="664"/>
      <point x="51" y="622"/>
      <point x="42" y="562" type="curve" smooth="yes"/>
      <point x="36" y="520" type="line"/>
      <point x="110" y="520" type="line"/>
      <point x="116" y="562" type="line" smooth="yes"/>
      <point x="122" y="608"/>
      <point x="135" y="643"/>
      <point x="166" y="685" type="curve"/>
    </contour>
  </outline>
</glyph>
<glyph name="commaaccentcmb" format="2">
  <advance width="71"/>
  <unicode hex="0326"/>
  <anchor x="64" y="450" name="_top"/>
  <anchor x="2" y="16" name="_bottom"/>
  <outline>
    <contour>
      <point x="-43" y="-231" type="line"/>
      <point x="-1" y="-185"/>
      <point x="16" y="-143"/>
      <point x="25" y="-82" type="curve" smooth="yes"/>
      <point x="31" y="-40" type="line"/>
      <point x="-43" y="-40" type="line"/>
      <point x="-49" y="-82" type="line" smooth="yes"/>
      <point x="-55" y="-128"/>
      <point x="-68" y="-163"/>
      <point x="-99" y="-205" type="curve"/>
    </contour>
  </outline>
</glyph>
<glyph name="cedillacmb" format="2">
  <advance width="118"/>
  <unicode hex="0327"/>
  <anchor x="63" y="450" name="_top"/>
  <anchor x="2" y="16" name="_bottom"/>
  <outline>
    <contour>
      <point x="-20" y="-212" type="curve" smooth="yes"/>
      <point x="38" y="-212"/>
      <point x="78" y="-175"/>
      <point x="78" y="-123" type="curve" smooth="yes"/>
      <point x="78" y="-75"/>
      <point x="44" y="-44"/>
      <point x="-11" y="-44" type="curve" smooth="yes"/>
      <point x="-17" y="-44" type="line"/>
      <point x="-23" y="-92" type="line"/>
      <point x="-17" y="-92" type="line" smooth="yes"/>
      <point x="6" y="-92"/>
      <point x="21" y="-106"/>
      <point x="21" y="-126" type="curve" smooth="yes"/>
      <point x="21" y="-149"/>
      <point x="4" y="-163"/>
      <point x="-21" y="-163" type="curve" smooth="yes"/>
      <point x="-40" y="-163"/>
      <point x="-60" y="-157"/>
      <point x="-75" y="-146" type="curve"/>
      <point x="-82" y="-197" type="line"/>
      <point x="-63" y="-207"/>
      <point x="-41" y="-212"/>
    </contour>
  </outline>
</glyph>
<glyph name="ogonekcmb" format="2">
  <advance width="39"/>
  <unicode hex="0328"/>
  <anchor x="63" y="450" name="_top"/>
  <anchor x="2" y="16" name="_ogonek"/>
  <outline>
    <contour>
      <point x="-24" y="-220" type="curve"/>
      <point x="-15" y="-153" type="line"/>
      <point x="-62" y="-153"/>
      <point x="-95" y="-129"/>
      <point x="-95" y="-87" type="curve" smooth="yes"/>
      <point x="-95" y="-37"/>
      <point x="-54" y="0"/>
      <point x="-1" y="0" type="curve"/>
      <point x="-10" y="35" type="line"/>
      <point x="-97" y="34"/>
      <point x="-166" y="-25"/>
      <point x="-166" y="-102" type="curve" smooth="yes"/>
      <point x="-166" y="-172"/>
      <point x="-112" y="-220"/>
    </contour>
  </outline>
</glyph>
<glyph name="Delta" format="2">
  <advance width="620"/>
  <unicode hex="0394"/>
  <unicode hex="2206"/>
  <outline>
    <contour>
      <point x="30" y="0" type="line"/>
      <point x="358" y="670" type="line"/>
      <point x="454" y="670" type="line"/>
      <point x="589" y="0" type="line"/>
    </contour>
    <contour>
      <point x="148" y="77" type="line"/>
      <point x="485" y="77" type="line"/>
      <point x="388" y="572" type="line"/>
    </contour>
  </outline>
</glyph>
<glyph name="mu" format="2">
  <advance width="507"/>
  <unicode hex="03BC"/>
  <unicode hex="00B5"/>
  <outline>
    <contour>
      <point x="96" y="-210" type="line"/>
      <point x="125" y="34" type="line"/>
      <point x="144" y="5"/>
      <point x="177" y="-11"/>
      <point x="218" y="-11" type="curve" smooth="yes"/>
      <point x="278" y="-11"/>
      <point x="340" y="23"/>
      <point x="377" y="112" type="curve"/>
      <point x="374" y="87" type="line" smooth="yes"/>
      <point x="370" y="59"/>
      <point x="369" y="26"/>
      <point x="369" y="0" type="curve"/>
      <point x="451" y="0" type="line"/>
      <point x="451" y="37"/>
      <point x="453" y="78"/>
      <point x="459" y="120" type="curve" smooth="yes"/>
      <point x="508" y="466" type="line"/>
      <point x="426" y="466" type="line"/>
      <point x="405" y="316" type="line" smooth="yes"/>
      <point x="376" y="112"/>
      <point x="306" y="64"/>
      <point x="250" y="64" type="curve" smooth="yes"/>
      <point x="190" y="64"/>
      <point x="157" y="105"/>
      <point x="171" y="185" type="curve" smooth="yes"/>
      <point x="196" y="339" type="line" smooth="yes"/>
      <point x="204" y="383"/>
      <point x="208" y="423"/>
      <point x="208" y="466" type="curve"/>
      <point x="126" y="466" type="line"/>
      <point x="126" y="427"/>
      <point x="122" y="389"/>
      <point x="114" y="342" type="curve" smooth="yes"/>
      <point x="26" y="-210" type="line"/>
    </contour>
  </outline>
</glyph>
<glyph name="pi" format="2">
  <advance width="510"/>
  <unicode hex="03C0"/>
  <outline>
    <contour>
      <point x="102" y="0" type="line"/>
      <point x="184" y="0" type="line"/>
      <point x="240" y="391" type="line"/>
      <point x="381" y="391" type="line"/>
      <point x="347" y="153" type="line" smooth="yes"/>
      <point x="338" y="91"/>
      <point x="336" y="48"/>
      <point x="336" y="0" type="curve"/>
      <point x="419" y="0" type="line"/>
      <point x="419" y="45"/>
      <point x="421" y="95"/>
      <point x="429" y="153" type="curve" smooth="yes"/>
      <point x="463" y="391" type="line"/>
      <point x="531" y="391" type="line"/>
      <point x="541" y="466" type="line"/>
      <point x="100" y="466" type="line"/>
      <point x="89" y="391" type="line"/>
      <point x="158" y="391" type="line"/>
    </contour>
  </outline>
</glyph>
<glyph name="endash" format="2">
  <advance width="506"/>
  <unicode hex="2013"/>
  <outline>
    <contour>
      <point x="72" y="200" type="line"/>
      <point x="492" y="200" type="line"/>
      <point x="502" y="272" type="line"/>
      <point x="82" y="272" type="line"/>
    </contour>
  </outline>
</glyph>
<glyph name="emdash" format="2">
  <advance width="1006"/>
  <unicode hex="2014"/>
  <outline>
    <contour>
      <point x="72" y="200" type="line"/>
      <point x="992" y="200" type="line"/>
      <point x="1002" y="272" type="line"/>
      <point x="82" y="272" type="line"/>
    </contour>
  </outline>
</glyph>
<glyph name="quoteleft" format="2">
  <advance width="195"/>
  <unicode hex="2018"/>
  <outline>
    <contour>
      <point x="114" y="487" type="line"/>
      <point x="195" y="487" type="line"/>
      <point x="206" y="567" type="line" smooth="yes"/>
      <point x="214" y="625"/>
      <point x="235" y="665"/>
      <point x="268" y="709" type="curve"/>
      <point x="214" y="733" type="line"/>
      <point x="169" y="691"/>
      <point x="135" y="630"/>
      <point x="125" y="562" type="curve" smooth="yes"/>
    </contour>
  </outline>
</glyph>
<glyph name="quoteright" format="2">
  <advance width="193"/>
  <unicode hex="2019"/>
  <outline>
    <contour>
      <point x="149" y="472" type="line"/>
      <point x="194" y="514"/>
      <point x="228" y="577"/>
      <point x="238" y="644" type="curve" smooth="yes"/>
      <point x="249" y="720" type="line"/>
      <point x="170" y="720" type="line"/>
      <point x="159" y="640" type="line" smooth="yes"/>
      <point x="150" y="581"/>
      <point x="129" y="541"/>
      <point x="97" y="496" type="curve"/>
    </contour>
  </outline>
</glyph>
<glyph name="quotesinglbase" format="2">
  <advance width="194"/>
  <unicode hex="201A"/>
  <outline>
    <contour>
      <point x="61" y="-153" type="line"/>
      <point x="106" y="-111"/>
      <point x="141" y="-48"/>
      <point x="150" y="19" type="curve" smooth="yes"/>
      <point x="161" y="95" type="line"/>
      <point x="82" y="95" type="line"/>
      <point x="71" y="15" type="line" smooth="yes"/>
      <point x="62" y="-44"/>
      <point x="42" y="-84"/>
      <point x="9" y="-129" type="curve"/>
    </contour>
  </outline>
</glyph>
<glyph name="quotedblleft" format="2">
  <advance width="346"/>
  <unicode hex="201C"/>
  <outline>
    <contour>
      <point x="96" y="490" type="line"/>
      <point x="176" y="490" type="line"/>
      <point x="187" y="567" type="line" smooth="yes"/>
      <point x="195" y="626"/>
      <point x="216" y="666"/>
      <point x="249" y="710" type="curve"/>
      <point x="194" y="734" type="line"/>
      <point x="149" y="692"/>
      <point x="115" y="630"/>
      <point x="106" y="563" type="curve" smooth="yes"/>
    </contour>
    <contour>
      <point x="247" y="490" type="line"/>
      <point x="327" y="490" type="line"/>
      <point x="338" y="567" type="line" smooth="yes"/>
      <point x="346" y="626"/>
      <point x="367" y="666"/>
      <point x="400" y="710" type="curve"/>
      <point x="345" y="734" type="line"/>
      <point x="301" y="692"/>
      <point x="266" y="630"/>
      <point x="257" y="563" type="curve" smooth="yes"/>
    </contour>
  </outline>
</glyph>
<glyph name="quotedblright" format="2">
  <advance width="338"/>
  <unicode hex="201D"/>
  <outline>
    <contour>
      <point x="149" y="472" type="line"/>
      <point x="194" y="514"/>
      <point x="228" y="577"/>
      <point x="238" y="644" type="curve" smooth="yes"/>
      <point x="249" y="720" type="line"/>
      <point x="170" y="720" type="line"/>
      <point x="159" y="640" type="line" smooth="yes"/>
      <point x="150" y="581"/>
      <point x="129" y="541"/>
      <point x="97" y="496" type="curve"/>
    </contour>
    <contour>
      <point x="293" y="472" type="line"/>
      <point x="338" y="514"/>
      <point x="373" y="577"/>
      <point x="383" y="644" type="curve" smooth="yes"/>
      <point x="394" y="720" type="line"/>
      <point x="315" y="720" type="line"/>
      <point x="303" y="640" type="line" smooth="yes"/>
      <point x="295" y="581"/>
      <point x="274" y="541"/>
      <point x="241" y="496" type="curve"/>
    </contour>
  </outline>
</glyph>
<glyph name="quotedblbase" format="2">
  <advance width="336"/>
  <unicode hex="201E"/>
  <outline>
    <contour>
      <point x="61" y="-153" type="line"/>
      <point x="106" y="-111"/>
      <point x="141" y="-48"/>
      <point x="150" y="19" type="curve" smooth="yes"/>
      <point x="161" y="95" type="line"/>
      <point x="82" y="95" type="line"/>
      <point x="71" y="15" type="line" smooth="yes"/>
      <point x="62" y="-44"/>
      <point x="42" y="-84"/>
      <point x="9" y="-129" type="curve"/>
    </contour>
    <contour>
      <point x="203" y="-153" type="line"/>
      <point x="248" y="-111"/>
      <point x="282" y="-48"/>
      <point x="292" y="19" type="curve" smooth="yes"/>
      <point x="303" y="95" type="line"/>
      <point x="224" y="95" type="line"/>
      <point x="213" y="15" type="line" smooth="yes"/>
      <point x="204" y="-44"/>
      <point x="183" y="-84"/>
      <point x="151" y="-129" type="curve"/>
    </contour>
  </outline>
</glyph>
<glyph name="dagger" format="2">
  <advance width="456"/>
  <unicode hex="2020"/>
  <outline>
    <contour>
      <point x="187" y="0" type="line"/>
      <point x="270" y="0" type="line"/>
      <point x="330" y="461" type="line"/>
      <point x="478" y="457" type="line"/>
      <point x="488" y="532" type="line"/>
      <point x="340" y="528" type="line"/>
      <point x="370" y="720" type="line"/>
      <point x="287" y="720" type="line"/>
      <point x="264" y="528" type="line"/>
      <point x="117" y="532" type="line"/>
      <point x="107" y="457" type="line"/>
      <point x="255" y="461" type="line"/>
    </contour>
  </outline>
</glyph>
<glyph name="daggerdbl" format="2">
  <advance width="457"/>
  <unicode hex="2021"/>
  <outline>
    <contour>
      <point x="187" y="0" type="line"/>
      <point x="270" y="0" type="line"/>
      <point x="294" y="199" type="line"/>
      <point x="441" y="195" type="line"/>
      <point x="452" y="270" type="line"/>
      <point x="303" y="266" type="line"/>
      <point x="331" y="461" type="line"/>
      <point x="478" y="457" type="line"/>
      <point x="489" y="532" type="line"/>
      <point x="340" y="528" type="line"/>
      <point x="371" y="720" type="line"/>
      <point x="288" y="720" type="line"/>
      <point x="265" y="528" type="line"/>
      <point x="118" y="532" type="line"/>
      <point x="107" y="457" type="line"/>
      <point x="256" y="461" type="line"/>
      <point x="228" y="266" type="line"/>
      <point x="81" y="270" type="line"/>
      <point x="70" y="195" type="line"/>
      <point x="219" y="199" type="line"/>
    </contour>
  </outline>
</glyph>
<glyph name="bullet" format="2">
  <advance width="271"/>
  <unicode hex="2022"/>
  <outline>
    <contour>
      <point x="84" y="170" type="line"/>
      <point x="234" y="170" type="line"/>
      <point x="255" y="321" type="line"/>
      <point x="105" y="321" type="line"/>
    </contour>
  </outline>
</glyph>
<glyph name="minute" format="2">
  <advance width="196"/>
  <unicode hex="2032"/>
  <outline>
    <contour>
      <point x="132" y="513" type="line"/>
      <point x="208" y="513" type="line"/>
      <point x="238" y="724" type="line"/>
      <point x="162" y="724" type="line"/>
    </contour>
  </outline>
</glyph>
<glyph name="second" format="2">
  <advance width="319"/>
  <unicode hex="2033"/>
  <outline>
    <contour>
      <point x="134" y="513" type="line"/>
      <point x="205" y="513" type="line"/>
      <point x="235" y="724" type="line"/>
      <point x="164" y="724" type="line"/>
    </contour>
    <contour>
      <point x="259" y="513" type="line"/>
      <point x="329" y="513" type="line"/>
      <point x="359" y="724" type="line"/>
      <point x="289" y="724" type="line"/>
    </contour>
  </outline>
</glyph>
<glyph name="guilsinglleft" format="2">
  <advance width="326"/>
  <unicode hex="2039"/>
  <outline>
    <contour>
      <point x="201" y="67" type="line"/>
      <point x="295" y="67" type="line"/>
      <point x="167" y="226" type="line" smooth="yes"/>
      <point x="339" y="386" type="line"/>
      <point x="245" y="386" type="line"/>
      <point x="72" y="226" type="line"/>
    </contour>
  </outline>
</glyph>
<glyph name="guilsinglright" format="2">
  <advance width="326"/>
  <unicode hex="203A"/>
  <outline>
    <contour>
      <point x="50" y="67" type="line"/>
      <point x="144" y="67" type="line"/>
      <point x="318" y="226" type="line"/>
      <point x="188" y="386" type="line"/>
      <point x="94" y="386" type="line"/>
      <point x="223" y="226" type="line" smooth="yes"/>
    </contour>
  </outline>
</glyph>
<glyph name="fraction" format="2">
  <advance width="143"/>
  <unicode hex="2044"/>
  <unicode hex="2215"/>
  <outline>
    <contour>
      <point x="-107" y="0" type="line"/>
      <point x="-34" y="0" type="line"/>
      <point x="351" y="720" type="line"/>
      <point x="278" y="720" type="line"/>
    </contour>
  </outline>
</glyph>
<glyph name="Euro" format="2">
  <advance width="720"/>
  <unicode hex="20AC"/>
  <outline>
    <contour>
      <point x="83" y="358" type="line"/>
      <point x="392" y="358" type="line"/>
      <point x="401" y="417" type="line"/>
      <point x="91" y="417" type="line"/>
    </contour>
    <contour>
      <point x="66" y="243" type="line"/>
      <point x="376" y="243" type="line"/>
      <point x="385" y="302" type="line"/>
      <point x="74" y="302" type="line"/>
    </contour>
    <component base="C" xOffset="48"/>
  </outline>
</glyph>
<glyph name="bitcoin" format="2">
  <advance width="529"/>
  <unicode hex="20BF"/>
  <outline>
    <contour>
      <point x="243" y="599" type="line"/>
      <point x="303" y="599" type="line"/>
      <point x="329" y="786" type="line"/>
      <point x="269" y="786" type="line"/>
    </contour>
    <contour>
      <point x="361" y="599" type="line"/>
      <point x="420" y="599" type="line"/>
      <point x="447" y="786" type="line"/>
      <point x="387" y="786" type="line"/>
    </contour>
    <contour>
      <point x="142" y="-124" type="line"/>
      <point x="201" y="-124" type="line"/>
      <point x="228" y="63" type="line"/>
      <point x="168" y="63" type="line"/>
    </contour>
    <contour>
      <point x="259" y="-124" type="line"/>
      <point x="319" y="-124" type="line"/>
      <point x="345" y="63" type="line"/>
      <point x="286" y="63" type="line"/>
    </contour>
    <component base="B"/>
  </outline>
</glyph>
<glyph name="copyrightsound" format="2">
  <advance width="675"/>
  <unicode hex="2117"/>
  <outline>
    <contour>
      <point x="370" y="107" type="curve" smooth="yes"/>
      <point x="555" y="107"/>
      <point x="686" y="253"/>
      <point x="686" y="434" type="curve" smooth="yes"/>
      <point x="686" y="586"/>
      <point x="572" y="699"/>
      <point x="419" y="699" type="curve" smooth="yes"/>
      <point x="233" y="699"/>
      <point x="102" y="554"/>
      <point x="102" y="373" type="curve" smooth="yes"/>
      <point x="102" y="221"/>
      <point x="216" y="107"/>
    </contour>
    <contour>
      <point x="371" y="155" type="curve" smooth="yes"/>
      <point x="249" y="155"/>
      <point x="152" y="249"/>
      <point x="152" y="374" type="curve" smooth="yes"/>
      <point x="152" y="536"/>
      <point x="271" y="651"/>
      <point x="418" y="651" type="curve" smooth="yes"/>
      <point x="539" y="651"/>
      <point x="636" y="558"/>
      <point x="636" y="431" type="curve" smooth="yes"/>
      <point x="636" y="270"/>
      <point x="517" y="155"/>
    </contour>
    <contour>
      <point x="288" y="233" type="line"/>
      <point x="343" y="233" type="line"/>
      <point x="360" y="355" type="line"/>
      <point x="396" y="355" type="line" smooth="yes"/>
      <point x="478" y="355"/>
      <point x="537" y="405"/>
      <point x="537" y="484" type="curve" smooth="yes"/>
      <point x="537" y="539"/>
      <point x="492" y="576"/>
      <point x="428" y="576" type="curve" smooth="yes"/>
      <point x="336" y="576" type="line"/>
    </contour>
    <contour>
      <point x="366" y="401" type="line"/>
      <point x="384" y="529" type="line"/>
      <point x="419" y="529" type="line" smooth="yes"/>
      <point x="461" y="529"/>
      <point x="482" y="504"/>
      <point x="482" y="474" type="curve" smooth="yes"/>
      <point x="482" y="434"/>
      <point x="455" y="401"/>
      <point x="402" y="401" type="curve" smooth="yes"/>
    </contour>
  </outline>
</glyph>
<glyph name="trademark" format="2">
  <advance width="597"/>
  <unicode hex="2122"/>
  <outline>
    <contour>
      <point x="168" y="458" type="line"/>
      <point x="225" y="458" type="line"/>
      <point x="255" y="671" type="line"/>
      <point x="331" y="671" type="line"/>
      <point x="338" y="720" type="line"/>
      <point x="129" y="720" type="line"/>
      <point x="122" y="671" type="line"/>
      <point x="198" y="671" type="line"/>
    </contour>
    <contour>
      <point x="330" y="458" type="line"/>
      <point x="378" y="458" type="line"/>
      <point x="415" y="717" type="line"/>
      <point x="391" y="717" type="line"/>
      <point x="461" y="502" type="line"/>
      <point x="496" y="502" type="line"/>
      <point x="625" y="717" type="line"/>
      <point x="600" y="717" type="line"/>
      <point x="564" y="458" type="line"/>
      <point x="620" y="458" type="line"/>
      <point x="657" y="720" type="line"/>
      <point x="574" y="720" type="line"/>
      <point x="473" y="549" type="line"/>
      <point x="505" y="549" type="line"/>
      <point x="451" y="720" type="line"/>
      <point x="367" y="720" type="line"/>
    </contour>
  </outline>
</glyph>
<glyph name="partialdiff" format="2">
  <advance width="540"/>
  <unicode hex="2202"/>
  <outline>
    <contour>
      <point x="281" y="-12" type="curve" smooth="yes"/>
      <point x="436" y="-11"/>
      <point x="541" y="124"/>
      <point x="541" y="334" type="curve" smooth="yes"/>
      <point x="541" y="560"/>
      <point x="408" y="689"/>
      <point x="175" y="689" type="curve"/>
      <point x="164" y="606" type="line"/>
      <point x="357" y="606"/>
      <point x="455" y="513"/>
      <point x="455" y="340" type="curve" smooth="yes"/>
      <point x="455" y="319"/>
      <point x="453" y="294"/>
      <point x="450" y="269" type="curve"/>
      <point x="469" y="271" type="line"/>
      <point x="473" y="375"/>
      <point x="405" y="445"/>
      <point x="300" y="445" type="curve" smooth="yes"/>
      <point x="172" y="445"/>
      <point x="71" y="339"/>
      <point x="71" y="197" type="curve" smooth="yes"/>
      <point x="71" y="67"/>
      <point x="156" y="-13"/>
    </contour>
    <contour>
      <point x="285" y="64" type="curve" smooth="yes"/>
      <point x="211" y="64"/>
      <point x="160" y="122"/>
      <point x="160" y="201" type="curve" smooth="yes"/>
      <point x="160" y="297"/>
      <point x="226" y="369"/>
      <point x="315" y="369" type="curve" smooth="yes"/>
      <point x="393" y="369"/>
      <point x="445" y="317"/>
      <point x="446" y="247" type="curve" smooth="yes"/>
      <point x="436" y="137"/>
      <point x="374" y="64"/>
    </contour>
  </outline>
</glyph>
<glyph name="product" format="2">
  <advance width="518"/>
  <unicode hex="220F"/>
  <outline>
    <contour>
      <point x="60" y="0" type="line"/>
      <point x="144" y="0" type="line"/>
      <point x="226" y="580" type="line"/>
      <point x="456" y="580" type="line"/>
      <point x="374" y="0" type="line"/>
      <point x="458" y="0" type="line"/>
      <point x="551" y="658" type="line"/>
      <point x="153" y="658" type="line"/>
    </contour>
  </outline>
</glyph>
<glyph name="summation" format="2">
  <advance width="495"/>
  <unicode hex="2211"/>
  <outline>
    <contour>
      <point x="42" y="0" type="line"/>
      <point x="455" y="0" type="line"/>
      <point x="466" y="84" type="line"/>
      <point x="118" y="84" type="line"/>
      <point x="119" y="35" type="line"/>
      <point x="429" y="342" type="line"/>
      <point x="205" y="623" type="line"/>
      <point x="199" y="580" type="line"/>
      <point x="535" y="580" type="line"/>
      <point x="546" y="658" type="line"/>
      <point x="135" y="658" type="line"/>
      <point x="125" y="583" type="line"/>
      <point x="349" y="306" type="line"/>
      <point x="352" y="368" type="line"/>
      <point x="53" y="77" type="line"/>
    </contour>
  </outline>
</glyph>
<glyph name="minus" format="2">
  <advance width="524"/>
  <unicode hex="2212"/>
  <outline>
    <contour>
      <point x="82" y="255" type="line"/>
      <point x="512" y="255" type="line"/>
      <point x="522" y="326" type="line"/>
      <point x="92" y="326" type="line"/>
    </contour>
  </outline>
</glyph>
<glyph name="radical" format="2">
  <advance width="561"/>
  <unicode hex="221A"/>
  <outline>
    <contour>
      <point x="194" y="-5" type="line"/>
      <point x="284" y="-5" type="line"/>
      <point x="652" y="716" type="line"/>
      <point x="572" y="716" type="line"/>
      <point x="218" y="16" type="line"/>
      <point x="272" y="16" type="line"/>
      <point x="164" y="494" type="line"/>
      <point x="80" y="494" type="line"/>
    </contour>
  </outline>
</glyph>
<glyph name="infinity" format="2">
  <advance width="824"/>
  <unicode hex="221E"/>
  <outline>
    <contour>
      <point x="221" y="36" type="curve" smooth="yes"/>
      <point x="305" y="36"/>
      <point x="376" y="84"/>
      <point x="446" y="185" type="curve"/>
      <point x="409" y="241" type="line"/>
      <point x="348" y="148"/>
      <point x="296" y="110"/>
      <point x="240" y="110" type="curve" smooth="yes"/>
      <point x="183" y="110"/>
      <point x="148" y="153"/>
      <point x="148" y="217" type="curve" smooth="yes"/>
      <point x="148" y="292"/>
      <point x="197" y="348"/>
      <point x="266" y="348" type="curve" smooth="yes"/>
      <point x="318" y="348"/>
      <point x="358" y="314"/>
      <point x="402" y="223" type="curve" smooth="yes"/>
      <point x="425" y="177" type="line" smooth="yes"/>
      <point x="472" y="80"/>
      <point x="527" y="36"/>
      <point x="614" y="36" type="curve" smooth="yes"/>
      <point x="731" y="36"/>
      <point x="818" y="123"/>
      <point x="818" y="251" type="curve" smooth="yes"/>
      <point x="818" y="357"/>
      <point x="753" y="421"/>
      <point x="659" y="421" type="curve" smooth="yes"/>
      <point x="577" y="421"/>
      <point x="509" y="373"/>
      <point x="440" y="276" type="curve"/>
      <point x="477" y="219" type="line"/>
      <point x="541" y="312"/>
      <point x="588" y="347"/>
      <point x="644" y="347" type="curve" smooth="yes"/>
      <point x="702" y="347"/>
      <point x="738" y="305"/>
      <point x="738" y="242" type="curve" smooth="yes"/>
      <point x="738" y="167"/>
      <point x="691" y="110"/>
      <point x="622" y="110" type="curve" smooth="yes"/>
      <point x="566" y="110"/>
      <point x="532" y="144"/>
      <point x="485" y="239" type="curve" smooth="yes"/>
      <point x="462" y="286" type="line" smooth="yes"/>
      <point x="417" y="377"/>
      <point x="360" y="422"/>
      <point x="275" y="422" type="curve" smooth="yes"/>
      <point x="157" y="422"/>
      <point x="68" y="336"/>
      <point x="68" y="209" type="curve" smooth="yes"/>
      <point x="68" y="102"/>
      <point x="130" y="36"/>
    </contour>
  </outline>
</glyph>
<glyph name="integral" format="2">
  <advance width="441"/>
  <unicode hex="222B"/>
  <outline>
    <contour>
      <point x="53" y="-223" type="curve" smooth="yes"/>
      <point x="146" y="-223"/>
      <point x="211" y="-167"/>
      <point x="225" y="-50" type="curve" smooth="yes"/>
      <point x="299" y="552" type="line" smooth="yes"/>
      <point x="308" y="616"/>
      <point x="341" y="652"/>
      <point x="399" y="652" type="curve" smooth="yes"/>
      <point x="424" y="652"/>
      <point x="449" y="645"/>
      <point x="474" y="631" type="curve"/>
      <point x="485" y="710" type="line"/>
      <point x="455" y="721"/>
      <point x="425" y="727"/>
      <point x="394" y="727" type="curve" smooth="yes"/>
      <point x="301" y="727"/>
      <point x="233" y="670"/>
      <point x="219" y="551" type="curve" smooth="yes"/>
      <point x="145" y="-47" type="line" smooth="yes"/>
      <point x="137" y="-110"/>
      <point x="105" y="-148"/>
      <point x="54" y="-148" type="curve" smooth="yes"/>
      <point x="26" y="-148"/>
      <point x="3" y="-141"/>
      <point x="-18" y="-128" type="curve"/>
      <point x="-29" y="-204" type="line"/>
      <point x="-4" y="-217"/>
      <point x="23" y="-223"/>
    </contour>
  </outline>
</glyph>
<glyph name="approxequal" format="2">
  <advance width="408"/>
  <unicode hex="2248"/>
  <outline>
    <contour>
      <point x="121" y="327" type="line"/>
      <point x="141" y="347"/>
      <point x="164" y="357"/>
      <point x="187" y="357" type="curve" smooth="yes"/>
      <point x="213" y="357"/>
      <point x="232" y="346"/>
      <point x="251" y="337" type="curve" smooth="yes"/>
      <point x="271" y="327"/>
      <point x="293" y="317"/>
      <point x="316" y="317" type="curve" smooth="yes"/>
      <point x="345" y="317"/>
      <point x="378" y="332"/>
      <point x="397" y="358" type="curve"/>
      <point x="392" y="421" type="line"/>
      <point x="373" y="404"/>
      <point x="351" y="391"/>
      <point x="327" y="391" type="curve" smooth="yes"/>
      <point x="302" y="391"/>
      <point x="284" y="402"/>
      <point x="264" y="412" type="curve" smooth="yes"/>
      <point x="244" y="421"/>
      <point x="222" y="431"/>
      <point x="198" y="431" type="curve" smooth="yes"/>
      <point x="169" y="431"/>
      <point x="134" y="416"/>
      <point x="115" y="390" type="curve"/>
    </contour>
    <contour>
      <point x="98" y="156" type="line"/>
      <point x="117" y="176"/>
      <point x="140" y="186"/>
      <point x="163" y="186" type="curve" smooth="yes"/>
      <point x="189" y="186"/>
      <point x="209" y="175"/>
      <point x="227" y="166" type="curve" smooth="yes"/>
      <point x="247" y="156"/>
      <point x="269" y="146"/>
      <point x="292" y="146" type="curve" smooth="yes"/>
      <point x="322" y="146"/>
      <point x="356" y="161"/>
      <point x="374" y="187" type="curve"/>
      <point x="368" y="251" type="line"/>
      <point x="349" y="233"/>
      <point x="328" y="220"/>
      <point x="304" y="220" type="curve" smooth="yes"/>
      <point x="279" y="220"/>
      <point x="260" y="231"/>
      <point x="240" y="241" type="curve" smooth="yes"/>
      <point x="220" y="250"/>
      <point x="198" y="260"/>
      <point x="174" y="260" type="curve" smooth="yes"/>
      <point x="145" y="260"/>
      <point x="110" y="245"/>
      <point x="91" y="219" type="curve"/>
    </contour>
  </outline>
</glyph>
<glyph name="notequal" format="2">
  <advance width="551"/>
  <unicode hex="2260"/>
  <outline>
    <contour>
      <point x="110" y="50" type="line"/>
      <point x="187" y="50" type="line"/>
      <point x="506" y="525" type="line"/>
      <point x="429" y="525" type="line"/>
    </contour>
    <component base="equal"/>
  </outline>
</glyph>
<glyph name="lessequal" format="2">
  <advance width="466"/>
  <unicode hex="2264"/>
  <outline>
    <contour>
      <point x="58" y="-71" type="line"/>
      <point x="385" y="-71" type="line"/>
      <point x="395" y="0" type="line"/>
      <point x="68" y="0" type="line"/>
    </contour>
    <contour>
      <point x="303" y="81" type="line"/>
      <point x="415" y="81" type="line"/>
      <point x="212" y="287" type="line"/>
      <point x="476" y="495" type="line"/>
      <point x="363" y="495" type="line"/>
      <point x="100" y="288" type="line"/>
    </contour>
  </outline>
</glyph>
<glyph name="greaterequal" format="2">
  <advance width="466"/>
  <unicode hex="2265"/>
  <outline>
    <contour>
      <point x="58" y="-71" type="line"/>
      <point x="388" y="-71" type="line"/>
      <point x="398" y="0" type="line"/>
      <point x="69" y="0" type="line"/>
    </contour>
    <contour>
      <point x="71" y="81" type="line"/>
      <point x="185" y="81" type="line"/>
      <point x="446" y="288" type="line"/>
      <point x="243" y="495" type="line"/>
      <point x="132" y="495" type="line"/>
      <point x="335" y="288" type="line"/>
    </contour>
  </outline>
</glyph>
<glyph name="lozenge" format="2">
  <advance width="608"/>
  <unicode hex="25CA"/>
  <outline>
    <contour>
      <point x="302" y="-26" type="line"/>
      <point x="606" y="315" type="line"/>
      <point x="399" y="656" type="line"/>
      <point x="92" y="315" type="line"/>
    </contour>
    <contour>
      <point x="314" y="91" type="line"/>
      <point x="181" y="311" type="line"/>
      <point x="383" y="539" type="line"/>
      <point x="516" y="318" type="line"/>
    </contour>
  </outline>
</glyph>
<glyph name="checkmark" format="2">
  <advance width="568"/>
  <unicode hex="2713"/>
  <outline>
    <contour>
      <point x="201" y="-5" type="line"/>
      <point x="291" y="-5" type="line"/>
      <point x="658" y="723" type="line"/>
      <point x="579" y="723" type="line"/>
      <point x="225" y="16" type="line"/>
      <point x="278" y="16" type="line"/>
      <point x="172" y="494" type="line"/>
      <point x="87" y="494" type="line"/>
    </contour>
  </outline>
</glyph>
<glyph name="Omega" format="2">
  <advance width="691"/>
  <unicode hex="A7B6"/>
  <unicode hex="2126"/>
  <outline>
    <contour>
      <point x="58" y="0" type="line"/>
      <point x="315" y="0" type="line"/>
      <point x="339" y="175" type="line"/>
      <point x="241" y="190"/>
      <point x="177" y="266"/>
      <point x="177" y="365" type="curve" smooth="yes"/>
      <point x="177" y="490"/>
      <point x="275" y="594"/>
      <point x="415" y="594" type="curve" smooth="yes"/>
      <point x="546" y="594"/>
      <point x="621" y="509"/>
      <point x="621" y="396" type="curve" smooth="yes"/>
      <point x="621" y="281"/>
      <point x="539" y="187"/>
      <point x="401" y="174" type="curve"/>
      <point x="377" y="0" type="line"/>
      <point x="633" y="0" type="line"/>
      <point x="644" y="80" type="line"/>
      <point x="429" y="80" type="line"/>
      <point x="449" y="61" type="line"/>
      <point x="461" y="142" type="line"/>
      <point x="439" y="111" type="line"/>
      <point x="590" y="131"/>
      <point x="707" y="249"/>
      <point x="707" y="401" type="curve" smooth="yes"/>
      <point x="707" y="569"/>
      <point x="586" y="672"/>
      <point x="417" y="672" type="curve" smooth="yes"/>
      <point x="232" y="672"/>
      <point x="92" y="544"/>
      <point x="92" y="361" type="curve" smooth="yes"/>
      <point x="92" y="231"/>
      <point x="177" y="137"/>
      <point x="281" y="114" type="curve"/>
      <point x="269" y="131" type="line"/>
      <point x="260" y="66" type="line"/>
      <point x="277" y="80" type="line"/>
      <point x="69" y="80" type="line"/>
    </contour>
  </outline>
</glyph>
<glyph name="apple" format="2">
  <advance width="721"/>
  <unicode hex="F8FF"/>
  <anchor x="433" y="565" name="top"/>
  <outline>
    <contour>
      <point x="29" y="0" type="line"/>
      <point x="692" y="0" type="line"/>
      <point x="784" y="658" type="line"/>
      <point x="121" y="658" type="line"/>
    </contour>
    <contour>
      <point x="230" y="77" type="line" smooth="yes"/>
      <point x="293" y="528" type="line" smooth="yes"/>
      <point x="190" y="528" type="line" smooth="yes"/>
      <point x="197" y="582" type="line" smooth="yes"/>
      <point x="537" y="582" type="line" smooth="yes"/>
      <point x="639" y="582"/>
      <point x="684" y="530"/>
      <point x="684" y="468" type="curve" smooth="yes"/>
      <point x="684" y="368"/>
      <point x="613" y="309"/>
      <point x="504" y="309" type="curve" smooth="yes"/>
      <point x="473" y="309" type="line" smooth="yes"/>
      <point x="440" y="77" type="line" smooth="yes"/>
      <point x="377" y="77" type="line" smooth="yes"/>
      <point x="441" y="528" type="line"/>
      <point x="356" y="528" type="line" smooth="yes"/>
      <point x="293" y="77" type="line" smooth="yes"/>
    </contour>
  </outline>
</glyph>
<glyph name="A.sc" format="2">
  <advance width="534"/>
  <anchor x="335" y="496" name="top"/>
  <anchor x="516" y="16" name="ogonek"/>
  <outline>
    <contour>
      <point x="14" y="0" type="line"/>
      <point x="97" y="0" type="line"/>
      <point x="171" y="137" type="line"/>
      <point x="151" y="137" type="line"/>
      <point x="422" y="137" type="line"/>
      <point x="399" y="137" type="line"/>
      <point x="434" y="0" type="line"/>
      <point x="520" y="0" type="line"/>
      <point x="385" y="512" type="line"/>
      <point x="293" y="512" type="line"/>
    </contour>
    <contour>
      <point x="206" y="206" type="line"/>
      <point x="293" y="367" type="line"/>
      <point x="336" y="449" type="line"/>
      <point x="320" y="449" type="line"/>
      <point x="340" y="367" type="line"/>
      <point x="383" y="206" type="line"/>
      <point x="402" y="206" type="line"/>
      <point x="183" y="206" type="line"/>
    </contour>
  </outline>
</glyph>
<glyph name="AE.sc" format="2">
  <advance width="718"/>
  <anchor x="507" y="496" name="top"/>
  <outline>
    <contour>
      <point x="8" y="0" type="line"/>
      <point x="94" y="0" type="line"/>
      <point x="196" y="135" type="line"/>
      <point x="172" y="135" type="line"/>
      <point x="395" y="135" type="line"/>
      <point x="376" y="135" type="line"/>
      <point x="357" y="0" type="line"/>
      <point x="669" y="0" type="line"/>
      <point x="679" y="75" type="line"/>
      <point x="448" y="75" type="line"/>
      <point x="468" y="224" type="line"/>
      <point x="671" y="224" type="line"/>
      <point x="682" y="298" type="line"/>
      <point x="479" y="298" type="line"/>
      <point x="499" y="438" type="line"/>
      <point x="725" y="438" type="line"/>
      <point x="736" y="512" type="line"/>
      <point x="398" y="512" type="line"/>
    </contour>
    <contour>
      <point x="250" y="206" type="line"/>
      <point x="378" y="374" type="line"/>
      <point x="443" y="461" type="line"/>
      <point x="421" y="461" type="line"/>
      <point x="386" y="206" type="line"/>
      <point x="404" y="206" type="line"/>
      <point x="226" y="206" type="line"/>
    </contour>
  </outline>
</glyph>
<glyph name="B.sc" format="2">
  <advance width="450"/>
  <outline>
    <contour>
      <point x="66" y="0" type="line"/>
      <point x="233" y="0" type="line" smooth="yes"/>
      <point x="359" y="0"/>
      <point x="428" y="63"/>
      <point x="428" y="156" type="curve" smooth="yes"/>
      <point x="428" y="214"/>
      <point x="389" y="260"/>
      <point x="305" y="267" type="curve"/>
      <point x="303" y="259" type="line"/>
      <point x="402" y="266"/>
      <point x="448" y="328"/>
      <point x="448" y="401" type="curve" smooth="yes"/>
      <point x="448" y="466"/>
      <point x="400" y="512"/>
      <point x="303" y="512" type="curve" smooth="yes"/>
      <point x="139" y="512" type="line"/>
    </contour>
    <contour>
      <point x="188" y="291" type="line"/>
      <point x="210" y="447" type="line"/>
      <point x="288" y="447" type="line" smooth="yes"/>
      <point x="333" y="447"/>
      <point x="364" y="423"/>
      <point x="364" y="380" type="curve" smooth="yes"/>
      <point x="364" y="325"/>
      <point x="322" y="291"/>
      <point x="262" y="291" type="curve" smooth="yes"/>
    </contour>
    <contour>
      <point x="156" y="68" type="line"/>
      <point x="180" y="231" type="line"/>
      <point x="258" y="231" type="line" smooth="yes"/>
      <point x="310" y="231"/>
      <point x="347" y="204"/>
      <point x="347" y="160" type="curve" smooth="yes"/>
      <point x="347" y="104"/>
      <point x="303" y="68"/>
      <point x="239" y="68" type="curve" smooth="yes"/>
    </contour>
  </outline>
</glyph>
<glyph name="C.sc" format="2">
  <advance width="514"/>
  <anchor x="374" y="500" name="top"/>
  <anchor x="281" y="16" name="bottom"/>
  <outline>
    <contour>
      <point x="321" y="-11" type="curve" smooth="yes"/>
      <point x="375" y="-11"/>
      <point x="426" y="2"/>
      <point x="480" y="26" type="curve"/>
      <point x="490" y="104" type="line"/>
      <point x="436" y="78"/>
      <point x="386" y="64"/>
      <point x="331" y="64" type="curve" smooth="yes"/>
      <point x="228" y="64"/>
      <point x="162" y="129"/>
      <point x="162" y="227" type="curve" smooth="yes"/>
      <point x="162" y="360"/>
      <point x="249" y="449"/>
      <point x="385" y="449" type="curve" smooth="yes"/>
      <point x="437" y="449"/>
      <point x="481" y="437"/>
      <point x="526" y="413" type="curve"/>
      <point x="537" y="491" type="line"/>
      <point x="491" y="512"/>
      <point x="446" y="524"/>
      <point x="387" y="524" type="curve" smooth="yes"/>
      <point x="192" y="524"/>
      <point x="79" y="393"/>
      <point x="79" y="216" type="curve" smooth="yes"/>
      <point x="79" y="85"/>
      <point x="164" y="-11"/>
    </contour>
  </outline>
</glyph>
<glyph name="D.sc" format="2">
  <advance width="557"/>
  <anchor x="309" y="496" name="top"/>
  <outline>
    <contour>
      <point x="66" y="0" type="line"/>
      <point x="225" y="0" type="line" smooth="yes"/>
      <point x="435" y="0"/>
      <point x="552" y="127"/>
      <point x="552" y="298" type="curve" smooth="yes"/>
      <point x="552" y="422"/>
      <point x="463" y="512"/>
      <point x="298" y="512" type="curve" smooth="yes"/>
      <point x="138" y="512" type="line"/>
    </contour>
    <contour>
      <point x="158" y="75" type="line"/>
      <point x="209" y="438" type="line"/>
      <point x="289" y="438" type="line" smooth="yes"/>
      <point x="399" y="438"/>
      <point x="469" y="379"/>
      <point x="469" y="290" type="curve" smooth="yes"/>
      <point x="469" y="161"/>
      <point x="378" y="75"/>
      <point x="232" y="75" type="curve" smooth="yes"/>
    </contour>
  </outline>
</glyph>
<glyph name="E.sc" format="2">
  <advance width="427"/>
  <anchor x="286" y="496" name="top"/>
  <anchor x="380" y="16" name="ogonek"/>
  <outline>
    <contour>
      <point x="66" y="0" type="line"/>
      <point x="379" y="0" type="line"/>
      <point x="389" y="75" type="line"/>
      <point x="157" y="75" type="line"/>
      <point x="179" y="226" type="line"/>
      <point x="381" y="226" type="line"/>
      <point x="391" y="297" type="line"/>
      <point x="188" y="297" type="line"/>
      <point x="209" y="440" type="line"/>
      <point x="435" y="440" type="line"/>
      <point x="446" y="512" type="line"/>
      <point x="138" y="512" type="line"/>
    </contour>
  </outline>
</glyph>
<glyph name="Eng.sc" format="2">
  <advance width="581"/>
  <outline>
    <contour>
      <point x="66" y="0" type="line"/>
      <point x="142" y="0" type="line"/>
      <point x="192" y="356" type="line"/>
      <point x="204" y="452" type="line"/>
      <point x="173" y="452" type="line"/>
      <point x="223" y="356" type="line"/>
      <point x="440" y="0" type="line"/>
      <point x="456" y="0" type="line"/>
      <point x="440" y="0" type="line"/>
      <point x="433" y="-50" type="line" smooth="yes"/>
      <point x="424" y="-113"/>
      <point x="384" y="-151"/>
      <point x="323" y="-151" type="curve" smooth="yes"/>
      <point x="315" y="-151" type="line"/>
      <point x="306" y="-215" type="line"/>
      <point x="314" y="-215" type="line" smooth="yes"/>
      <point x="425" y="-215"/>
      <point x="492" y="-156"/>
      <point x="507" y="-47" type="curve" smooth="yes"/>
      <point x="586" y="512" type="line"/>
      <point x="510" y="512" type="line"/>
      <point x="462" y="163" type="line"/>
      <point x="450" y="60" type="line"/>
      <point x="485" y="68" type="line"/>
      <point x="436" y="163" type="line"/>
      <point x="218" y="512" type="line"/>
      <point x="138" y="512" type="line"/>
    </contour>
  </outline>
</glyph>
<glyph name="Eth.sc" format="2">
  <advance width="562"/>
  <anchor x="60" y="496" name="top"/>
  <outline>
    <contour>
      <point x="51" y="227" type="line"/>
      <point x="256" y="227" type="line"/>
      <point x="265" y="291" type="line"/>
      <point x="59" y="291" type="line"/>
    </contour>
    <component base="D.sc" xOffset="8"/>
  </outline>
</glyph>
<glyph name="Euro.lc" format="2">
  <advance width="516"/>
  <outline>
    <contour>
      <point x="56" y="169" type="line"/>
      <point x="340" y="169" type="line"/>
      <point x="346" y="212" type="line"/>
      <point x="62" y="212" type="line"/>
    </contour>
    <contour>
      <point x="68" y="258" type="line"/>
      <point x="352" y="258" type="line"/>
      <point x="358" y="301" type="line"/>
      <point x="74" y="301" type="line"/>
    </contour>
    <component base="c" xOffset="39"/>
  </outline>
</glyph>
<glyph name="Euro.sc" format="2">
  <advance width="568"/>
  <outline>
    <contour>
      <point x="56" y="174" type="line"/>
      <point x="350" y="174" type="line"/>
      <point x="358" y="229" type="line"/>
      <point x="64" y="229" type="line"/>
    </contour>
    <contour>
      <point x="71" y="279" type="line"/>
      <point x="365" y="279" type="line"/>
      <point x="373" y="334" type="line"/>
      <point x="79" y="334" type="line"/>
    </contour>
    <component base="C.sc" xOffset="43"/>
  </outline>
</glyph>
<glyph name="Euro.tab" format="2">
  <advance width="650"/>
  <outline>
    <contour>
      <point x="411" y="-14" type="curve" smooth="yes"/>
      <point x="475" y="-14"/>
      <point x="545" y="2"/>
      <point x="598" y="30" type="curve"/>
      <point x="611" y="120" type="line"/>
      <point x="550" y="84"/>
      <point x="484" y="64"/>
      <point x="418" y="64" type="curve" smooth="yes"/>
      <point x="296" y="64"/>
      <point x="213" y="153"/>
      <point x="213" y="281" type="curve" smooth="yes"/>
      <point x="213" y="467"/>
      <point x="321" y="590"/>
      <point x="477" y="590" type="curve" smooth="yes"/>
      <point x="538" y="590"/>
      <point x="602" y="569"/>
      <point x="653" y="531" type="curve"/>
      <point x="665" y="615" type="line"/>
      <point x="616" y="648"/>
      <point x="548" y="668"/>
      <point x="480" y="668" type="curve" smooth="yes"/>
      <point x="268" y="668"/>
      <point x="137" y="500"/>
      <point x="137" y="275" type="curve" smooth="yes"/>
      <point x="137" y="110"/>
      <point x="239" y="-14"/>
    </contour>
    <contour>
      <point x="88" y="243" type="line"/>
      <point x="348" y="243" type="line"/>
      <point x="356" y="302" type="line"/>
      <point x="97" y="302" type="line"/>
    </contour>
    <contour>
      <point x="104" y="359" type="line"/>
      <point x="364" y="359" type="line"/>
      <point x="372" y="418" type="line"/>
      <point x="112" y="418" type="line"/>
    </contour>
  </outline>
</glyph>
<glyph name="F.sc" format="2">
  <advance width="387"/>
  <outline>
    <contour>
      <point x="66" y="0" type="line"/>
      <point x="147" y="0" type="line"/>
      <point x="178" y="217" type="line"/>
      <point x="364" y="217" type="line"/>
      <point x="374" y="292" type="line"/>
      <point x="188" y="292" type="line"/>
      <point x="209" y="437" type="line"/>
      <point x="417" y="437" type="line"/>
      <point x="428" y="512" type="line"/>
      <point x="138" y="512" type="line"/>
    </contour>
  </outline>
</glyph>
<glyph name="G.sc" format="2">
  <advance width="554"/>
  <anchor x="373" y="500" name="top"/>
  <anchor x="312" y="16" name="bottom"/>
  <outline>
    <contour>
      <point x="319" y="-10" type="curve" smooth="yes"/>
      <point x="380" y="-10"/>
      <point x="448" y="6"/>
      <point x="509" y="36" type="curve"/>
      <point x="542" y="273" type="line"/>
      <point x="364" y="273" type="line"/>
      <point x="354" y="202" type="line"/>
      <point x="452" y="202" type="line"/>
      <point x="436" y="89" type="line"/>
      <point x="400" y="73"/>
      <point x="365" y="65"/>
      <point x="328" y="65" type="curve" smooth="yes"/>
      <point x="225" y="65"/>
      <point x="162" y="133"/>
      <point x="162" y="226" type="curve" smooth="yes"/>
      <point x="162" y="355"/>
      <point x="249" y="448"/>
      <point x="385" y="448" type="curve" smooth="yes"/>
      <point x="435" y="448"/>
      <point x="487" y="436"/>
      <point x="532" y="413" type="curve"/>
      <point x="542" y="491" type="line"/>
      <point x="497" y="511"/>
      <point x="445" y="523"/>
      <point x="391" y="523" type="curve" smooth="yes"/>
      <point x="196" y="523"/>
      <point x="78" y="393"/>
      <point x="78" y="216" type="curve" smooth="yes"/>
      <point x="78" y="85"/>
      <point x="171" y="-10"/>
    </contour>
  </outline>
</glyph>
<glyph name="H.sc" format="2">
  <advance width="559"/>
  <guideline x="281" y="0" angle="82.0" name="" identifier="eRQZAMmgNN"/>
  <anchor x="348" y="496" name="top"/>
  <outline>
    <contour>
      <point x="66" y="0" type="line"/>
      <point x="147" y="0" type="line"/>
      <point x="179" y="224" type="line"/>
      <point x="443" y="224" type="line"/>
      <point x="412" y="0" type="line"/>
      <point x="492" y="0" type="line"/>
      <point x="564" y="512" type="line"/>
      <point x="484" y="512" type="line"/>
      <point x="454" y="299" type="line"/>
      <point x="189" y="299" type="line"/>
      <point x="219" y="512" type="line"/>
      <point x="138" y="512" type="line"/>
    </contour>
  </outline>
</glyph>
<glyph name="Hbar.sc" format="2">
  <advance width="547"/>
  <outline>
    <contour>
      <point x="61" y="0" type="line"/>
      <point x="142" y="0" type="line"/>
      <point x="173" y="220" type="line"/>
      <point x="437" y="220" type="line"/>
      <point x="406" y="0" type="line"/>
      <point x="488" y="0" type="line"/>
      <point x="560" y="512" type="line"/>
      <point x="478" y="512" type="line"/>
      <point x="448" y="295" type="line"/>
      <point x="184" y="295" type="line"/>
      <point x="214" y="512" type="line"/>
      <point x="133" y="512" type="line"/>
    </contour>
    <contour>
      <point x="71" y="373" type="line"/>
      <point x="581" y="373" type="line"/>
      <point x="589" y="430" type="line"/>
      <point x="78" y="430" type="line"/>
    </contour>
  </outline>
</glyph>
<glyph name="I.sc" format="2">
  <advance width="214"/>
  <anchor x="176" y="496" name="top"/>
  <anchor x="146" y="16" name="ogonek"/>
  <outline>
    <contour>
      <point x="66" y="0" type="line"/>
      <point x="147" y="0" type="line"/>
      <point x="219" y="512" type="line"/>
      <point x="138" y="512" type="line"/>
    </contour>
  </outline>
</glyph>
<glyph name="J.base" format="2">
  <advance width="286"/>
  <anchor x="255" y="640" name="top"/>
  <outline>
    <contour>
      <point x="32" y="-16" type="line" smooth="yes"/>
      <point x="138" y="-16"/>
      <point x="213" y="37"/>
      <point x="230" y="157" type="curve" smooth="yes"/>
      <point x="300" y="658" type="line"/>
      <point x="215" y="658" type="line"/>
      <point x="145" y="156" type="line" smooth="yes"/>
      <point x="136" y="90"/>
      <point x="99" y="62"/>
      <point x="43" y="62" type="curve" smooth="yes"/>
      <point x="35" y="62" type="line"/>
      <point x="24" y="-16" type="line"/>
    </contour>
  </outline>
</glyph>
<glyph name="J.base_sc" format="2">
  <advance width="267"/>
  <anchor x="232" y="493" name="top"/>
  <outline>
    <contour>
      <point x="35" y="-16" type="line" smooth="yes"/>
      <point x="143" y="-16"/>
      <point x="208" y="44"/>
      <point x="223" y="155" type="curve" smooth="yes"/>
      <point x="274" y="512" type="line"/>
      <point x="194" y="512" type="line"/>
      <point x="143" y="155" type="line" smooth="yes"/>
      <point x="133" y="89"/>
      <point x="102" y="59"/>
      <point x="46" y="59" type="curve" smooth="yes"/>
      <point x="38" y="59" type="line"/>
      <point x="27" y="-16" type="line"/>
    </contour>
  </outline>
</glyph>
